<svg xmlns:inkscape="http://www.inkscape.org/namespaces/inkscape" xmlns:sodipodi="http://sodipodi.sourceforge.net/DTD/sodipodi-0.dtd" xmlns="http://www.w3.org/2000/svg" xmlns:svg="http://www.w3.org/2000/svg" version="1.1" id="svg372" sodipodi:docname="27b9b3da-2909-4793-9a6e-57311b81c98a_upscayl_5x_digital-art-4x.svg" inkscape:version="1.4 (86a8ad7, 2024-10-11)" viewBox="381.83 430.75 1452.62 383.08">
  <defs id="defs372"/>
  <sodipodi:namedview id="namedview372" pagecolor="#ffffff" bordercolor="#000000" borderopacity="0.25" inkscape:showpageshadow="2" inkscape:pageopacity="0.0" inkscape:pagecheckerboard="0" inkscape:deskcolor="#d1d1d1" inkscape:zoom="0.48796954" inkscape:cx="1031.8267" inkscape:cy="718.28254" inkscape:window-width="1920" inkscape:window-height="1017" inkscape:window-x="-8" inkscape:window-y="-8" inkscape:window-maximized="1" inkscape:current-layer="svg372"/>
  <g fill="None" fill-opacity="0.0" stroke="#323536" stroke-opacity="1.00" stroke-width="0.3" id="g66" style="stroke:#000000;stroke-opacity:1">
    <path d=" M 622.00 436.00  C 616.12 453.20 593.96 450.46 581.03 443.98 C 567.91 441.77 552.51 422.99 540.70 436.70 C 508.92 463.47 473.66 487.62 444.00 516.00 C 446.38 516.92 448.43 518.76 451.00 519.00 C 450.54 565.37 451.93 612.25 450.30 658.30 C 443.86 664.41 440.10 646.94 436.92 642.08 C 411.87 575.47 422.11 477.65 493.00 444.00 C 493.18 429.69 474.99 445.14 467.23 446.23 C 352.46 494.67 354.10 682.37 468.93 730.07 C 530.14 760.24 606.88 722.88 628.00 660.00 C 625.59 659.99 624.28 657.55 622.00 657.00 C 607.67 690.67 572.90 715.08 536.00 714.00 C 536.00 630.67 536.00 547.33 536.00 464.00 C 545.52 468.72 554.55 474.09 563.92 479.08 C 583.81 493.49 608.10 482.41 617.08 461.08 C 618.71 453.15 635.28 440.04 622.00 436.00 M 526.00 460.00  C 528.32 544.17 526.34 629.41 527.00 714.00 C 521.52 713.63 516.09 712.91 511.00 711.00 C 511.00 637.33 511.00 563.67 511.00 490.00 C 508.09 476.38 513.22 464.99 526.00 460.00 M 502.00 479.00  C 502.00 555.67 502.00 632.33 502.00 709.00 C 485.20 701.82 469.17 691.43 457.75 676.25 C 446.03 668.88 456.02 662.66 463.75 657.75 C 471.92 653.06 479.18 646.30 488.00 643.00 C 488.00 598.67 488.00 554.33 488.00 510.00 C 485.83 496.56 488.48 483.74 502.00 479.00 Z" id="path66" style="stroke:#000000;stroke-opacity:1"/>
  </g>
  <g fill="None" fill-opacity="0.0" stroke="#323536" stroke-opacity="1.00" stroke-width="0.3" id="g69" style="stroke:#000000;stroke-opacity:1">
    <path d=" M 781.00 574.00  C 797.26 564.05 813.07 553.02 826.08 538.08 C 854.41 502.93 824.51 455.23 789.23 437.77 C 780.36 428.95 772.59 442.66 764.75 446.75 C 749.78 458.66 734.16 469.33 719.00 481.00 C 719.00 468.67 719.00 456.33 719.00 444.00 C 692.00 444.00 665.00 444.00 638.00 444.00 C 637.10 455.07 654.35 449.03 659.77 457.23 C 677.58 466.91 678.97 488.48 678.00 507.00 C 678.00 563.67 678.00 620.33 678.00 677.00 C 682.04 696.32 672.11 713.44 655.70 722.70 C 649.50 729.93 631.90 722.86 634.00 735.00 C 677.26 735.64 721.16 733.70 764.00 736.00 C 766.51 721.30 738.55 732.53 739.93 716.07 C 737.77 687.88 739.61 658.61 739.00 630.00 C 741.86 618.44 732.27 598.58 745.92 593.92 C 754.26 586.26 765.73 596.70 771.25 603.75 C 799.37 654.76 796.81 716.83 823.08 768.92 C 834.96 801.40 872.32 822.63 905.98 809.98 C 912.76 807.58 935.80 802.24 925.00 794.00 C 893.72 816.40 864.65 776.69 858.32 748.68 C 847.14 716.09 840.88 682.01 832.33 648.67 C 825.59 619.60 815.83 579.63 781.00 574.00 M 739.00 588.00  C 739.56 550.39 737.81 512.20 740.00 475.00 C 746.26 471.68 751.87 466.63 757.00 462.00 C 784.10 473.64 802.36 503.66 797.01 533.01 C 795.71 564.39 763.35 577.23 739.00 588.00 M 730.00 484.00  C 729.33 560.17 731.33 637.65 729.00 713.00 C 716.83 702.92 718.52 687.79 719.00 673.00 C 719.00 623.00 719.00 573.00 719.00 523.00 C 720.62 509.13 712.89 489.06 730.00 484.00 Z" id="path69" style="stroke:#000000;stroke-opacity:1"/>
  </g>
  <g fill="None" fill-opacity="0" stroke="#323536" stroke-opacity="1" stroke-width="0.3" id="g71" transform="translate(12.295849,-4.0986165)" style="fill:#000000;fill-opacity:1;stroke:#000000;stroke-opacity:1">
    <path d="m 1686,435 c -36.39,19.37 -72.89,38.37 -108,60 20.63,0.28 42.08,-8.75 63,-12 4.87,20.51 -12.85,38 -19.08,56.92 -16.36,36.13 -33.43,72.03 -49.92,108.08 -17.19,-7.58 -33.42,-18.49 -51,-25 -2.02,7.03 -5.81,13.37 -9,20 16.39,8.36 32.07,17.92 49,25 -14.5,33.48 -30.99,66.19 -47,99 6.66,3.29 12.85,8.25 20,10 13.93,-33.12 30.72,-65.4 46,-98 16.51,7.66 32.5,17.36 49,25 1.84,-7.42 6.69,-13.77 9,-21 -15.94,-8.48 -31.69,-17.13 -48,-25 4.57,-8.22 6.37,-21.81 14.77,-25.77 18.17,6.51 35.66,19.94 42.23,38.77 13.14,-11.72 25.3,-25.47 39,-36 1.56,10.3 5.33,19.97 8.07,29.93 2.48,18.53 19.79,39.58 5.68,56.82 -5.25,10.04 -24.89,1.41 -21.75,15.25 39,-1.7 78.64,-0.78 118,-1 1.61,-12.81 -17.52,-5.12 -24.3,-12.69 -7.54,-3.8 -14.87,-9.44 -18.95,-17.06 -16.74,-34.69 -24.0234,-72.99546 -36.2934,-109.52546 17.237,0.34118 31.5578,-0.0904 46.1889,0.067 14.1015,0.15171 29.0604,0.15178 45.3053,1.2953 C 1800.1608,601.4568 1796,609 1796,609 l 26,-13 -27,-12 c 0,0 6.4258,8.12681 12.9358,11.08681 -14.7347,1.07254 -29.2934,0.0916 -42.9414,-0.23662 -16.0012,-0.38484 -31.2712,-0.21178 -48.9944,0.14981 -7.54,-29.67 -17.07,-58.74 -26,-88 13.98,11.88 22.82,32.82 38,43 -14.25,-38.25 -28.99,-76.4 -42,-115 m -13,160 h -33.5 -20.5 c 9.76,-23.97 21.36,-47.3 32,-71 5.93,9.11 7.52,23.4 11.33,34.67 3.27,12.17 7.8,24.02 10.67,36.33 m 0.6377,1 c 2.3857,10.32 6.7223,19.7 8.3623,30 -5.44,3.72 -9.92,8.8 -15,13 -10.52,-18.29 -30.3,-32.73 -51,-36 0.13,0.97859 2.4395,-6.61575 2.4395,-6.61575 z" id="path71" sodipodi:nodetypes="ccccccccccccccccccccccccccccccccccccccccccccccc" style="fill:#000000;fill-opacity:1;stroke:#000000;stroke-opacity:1"/>
    <path style="fill:#000000;stroke:#000000;stroke-width:0.434724;fill-opacity:1;stroke-opacity:1" d="m 940.9883,739.80232 c -6.30201,-1.90607 -20.96534,-12.61552 -26.46856,-19.33149 -2.83763,-3.46295 -6.72383,-9.83389 -8.636,-14.15764 -6.62206,-14.97366 -7.22066,-21.64053 -7.34109,-81.75982 -0.11181,-55.81646 -0.15367,-56.58985 -3.39125,-62.64951 -4.42865,-8.28892 -8.91316,-9.35619 -17.99876,-4.28352 -4.89225,2.73145 -7.1536,3.34082 -7.90228,2.12943 -1.12076,-1.81342 -0.52626,-2.34869 24.63043,-22.17636 17.99119,-14.18007 16.77118,-14.13381 29.25113,-1.10901 11.99,12.51346 11.50664,9.25363 11.66518,78.66996 0.12804,56.06089 0.37782,62.17088 2.78415,68.10674 6.01531,14.83836 15.58562,24.02599 28.83838,27.68525 4.11149,1.13524 6.14411,0.8648 10.57322,-1.40675 5.88153,-3.01646 21.95916,-16.47311 24.27965,-20.32156 1.9411,-3.21936 2.4469,-110.28444 0.5672,-120.08646 -1.5719,-8.19729 -7.15354,-16.28765 -11.23703,-16.28765 -1.36613,0 -5.23261,2.02144 -8.59218,4.4921 -5.48959,4.03708 -10.40251,4.82147 -10.40251,1.66084 0,-0.65087 6.35783,-5.69534 14.12852,-11.20992 7.77069,-5.51459 16.9917,-12.50151 20.4911,-15.52649 3.4995,-3.02498 7.7837,-5.49997 9.5205,-5.49997 7.8181,0 20.8326,16.57708 23.3848,29.78617 0.6074,3.14396 1.1499,36.08638 1.2054,73.20539 l 0.101,67.48911 4.3983,7.1385 c 5.3034,8.6075 10.6521,9.99249 18.9012,4.89424 2.8105,-1.73696 5.4612,-2.80683 5.8906,-2.37748 1.7043,1.70437 -1.1977,6.25358 -6.1253,9.60207 -2.8581,1.94217 -9.9861,7.51314 -15.84,12.37993 -5.8538,4.86678 -12.3396,9.75648 -14.4127,10.86602 -3.625,1.94002 -4.0763,1.71553 -11.7779,-5.85908 -10.0098,-9.84463 -13.5572,-15.50182 -16.5296,-26.36055 l -2.3437,-8.562 -7.57407,5.98696 c -25.55229,20.19793 -47.12569,36.25744 -48.56174,36.14998 -0.91541,-0.0685 -3.37965,-0.64335 -5.47609,-1.27743 z" id="path374" transform="translate(-12.295849,4.0986165)"/>
    <path style="fill:#000000;stroke:#000000;stroke-width:0.434724;fill-opacity:1;stroke-opacity:1" d="m 940.9883,739.80232 c -6.30201,-1.90607 -20.96534,-12.61552 -26.46856,-19.33149 -2.83763,-3.46295 -6.72383,-9.83389 -8.636,-14.15764 -6.62206,-14.97366 -7.22066,-21.64053 -7.34109,-81.75982 -0.11181,-55.81646 -0.15367,-56.58985 -3.39125,-62.64951 -4.42865,-8.28892 -8.91316,-9.35619 -17.99876,-4.28352 -4.89225,2.73145 -7.1536,3.34082 -7.90228,2.12943 -1.12076,-1.81342 -0.52626,-2.34869 24.63043,-22.17636 17.99119,-14.18007 16.77118,-14.13381 29.25113,-1.10901 11.99,12.51346 11.50664,9.25363 11.66518,78.66996 0.12804,56.06089 0.37782,62.17088 2.78415,68.10674 6.01531,14.83836 15.58562,24.02599 28.83838,27.68525 4.11149,1.13524 6.14411,0.8648 10.57322,-1.40675 5.88153,-3.01646 21.95916,-16.47311 24.27965,-20.32156 1.9411,-3.21936 2.4469,-110.28444 0.5672,-120.08646 -1.5719,-8.19729 -7.15354,-16.28765 -11.23703,-16.28765 -1.36613,0 -5.23261,2.02144 -8.59218,4.4921 -5.48959,4.03708 -10.40251,4.82147 -10.40251,1.66084 0,-0.65087 6.35783,-5.69534 14.12852,-11.20992 7.77069,-5.51459 16.9917,-12.50151 20.4911,-15.52649 3.4995,-3.02498 7.7837,-5.49997 9.5205,-5.49997 7.8181,0 20.8326,16.57708 23.3848,29.78617 0.6074,3.14396 1.1499,36.08638 1.2054,73.20539 l 0.101,67.48911 4.3983,7.1385 c 5.3034,8.6075 10.6521,9.99249 18.9012,4.89424 2.8105,-1.73696 5.4612,-2.80683 5.8906,-2.37748 1.7043,1.70437 -1.1977,6.25358 -6.1253,9.60207 -2.8581,1.94217 -9.9861,7.51314 -15.84,12.37993 -5.8538,4.86678 -12.3396,9.75648 -14.4127,10.86602 -3.625,1.94002 -4.0763,1.71553 -11.7779,-5.85908 -10.0098,-9.84463 -13.5572,-15.50182 -16.5296,-26.36055 l -2.3437,-8.562 -7.57407,5.98696 c -25.55229,20.19793 -47.12569,36.25744 -48.56174,36.14998 -0.91541,-0.0685 -3.37965,-0.64335 -5.47609,-1.27743 z" id="path375" transform="translate(-12.295849,4.0986165)"/>
    <path style="fill:#000000;stroke:#000000;stroke-width:0.434724;fill-opacity:1;stroke-opacity:1" d="m 940.9883,739.80232 c -6.30201,-1.90607 -20.96534,-12.61552 -26.46856,-19.33149 -2.83763,-3.46295 -6.72383,-9.83389 -8.636,-14.15764 -6.62206,-14.97366 -7.22066,-21.64053 -7.34109,-81.75982 -0.11181,-55.81646 -0.15367,-56.58985 -3.39125,-62.64951 -4.42865,-8.28892 -8.91316,-9.35619 -17.99876,-4.28352 -4.89225,2.73145 -7.1536,3.34082 -7.90228,2.12943 -1.12076,-1.81342 -0.52626,-2.34869 24.63043,-22.17636 17.99119,-14.18007 16.77118,-14.13381 29.25113,-1.10901 11.99,12.51346 11.50664,9.25363 11.66518,78.66996 0.12804,56.06089 0.37782,62.17088 2.78415,68.10674 6.01531,14.83836 15.58562,24.02599 28.83838,27.68525 4.11149,1.13524 6.14411,0.8648 10.57322,-1.40675 5.88153,-3.01646 21.95916,-16.47311 24.27965,-20.32156 1.9411,-3.21936 2.4469,-110.28444 0.5672,-120.08646 -1.5719,-8.19729 -7.15354,-16.28765 -11.23703,-16.28765 -1.36613,0 -5.23261,2.02144 -8.59218,4.4921 -5.48959,4.03708 -10.40251,4.82147 -10.40251,1.66084 0,-0.65087 6.35783,-5.69534 14.12852,-11.20992 7.77069,-5.51459 16.9917,-12.50151 20.4911,-15.52649 3.4995,-3.02498 7.7837,-5.49997 9.5205,-5.49997 7.8181,0 20.8326,16.57708 23.3848,29.78617 0.6074,3.14396 1.1499,36.08638 1.2054,73.20539 l 0.101,67.48911 4.3983,7.1385 c 5.3034,8.6075 10.6521,9.99249 18.9012,4.89424 2.8105,-1.73696 5.4612,-2.80683 5.8906,-2.37748 1.7043,1.70437 -1.1977,6.25358 -6.1253,9.60207 -2.8581,1.94217 -9.9861,7.51314 -15.84,12.37993 -5.8538,4.86678 -12.3396,9.75648 -14.4127,10.86602 -3.625,1.94002 -4.0763,1.71553 -11.7779,-5.85908 -10.0098,-9.84463 -13.5572,-15.50182 -16.5296,-26.36055 l -2.3437,-8.562 -7.57407,5.98696 c -25.55229,20.19793 -47.12569,36.25744 -48.56174,36.14998 -0.91541,-0.0685 -3.37965,-0.64335 -5.47609,-1.27743 z" id="path376" transform="translate(-12.295849,4.0986165)"/>
    <path style="fill:#000000;stroke:#000000;stroke-width:0.434724;fill-opacity:1;stroke-opacity:1" d="m 940.9883,739.80232 c -6.30201,-1.90607 -20.96534,-12.61552 -26.46856,-19.33149 -2.83763,-3.46295 -6.72383,-9.83389 -8.636,-14.15764 -6.62206,-14.97366 -7.22066,-21.64053 -7.34109,-81.75982 -0.11181,-55.81646 -0.15367,-56.58985 -3.39125,-62.64951 -4.42865,-8.28892 -8.91316,-9.35619 -17.99876,-4.28352 -4.89225,2.73145 -7.1536,3.34082 -7.90228,2.12943 -1.12076,-1.81342 -0.52626,-2.34869 24.63043,-22.17636 17.99119,-14.18007 16.77118,-14.13381 29.25113,-1.10901 11.99,12.51346 11.50664,9.25363 11.66518,78.66996 0.12804,56.06089 0.37782,62.17088 2.78415,68.10674 6.01531,14.83836 15.58562,24.02599 28.83838,27.68525 4.11149,1.13524 6.14411,0.8648 10.57322,-1.40675 5.88153,-3.01646 21.95916,-16.47311 24.27965,-20.32156 1.9411,-3.21936 2.4469,-110.28444 0.5672,-120.08646 -1.5719,-8.19729 -7.15354,-16.28765 -11.23703,-16.28765 -1.36613,0 -5.23261,2.02144 -8.59218,4.4921 -5.48959,4.03708 -10.40251,4.82147 -10.40251,1.66084 0,-0.65087 6.35783,-5.69534 14.12852,-11.20992 7.77069,-5.51459 16.9917,-12.50151 20.4911,-15.52649 3.4995,-3.02498 7.7837,-5.49997 9.5205,-5.49997 7.8181,0 20.8326,16.57708 23.3848,29.78617 0.6074,3.14396 1.1499,36.08638 1.2054,73.20539 l 0.101,67.48911 4.3983,7.1385 c 5.3034,8.6075 10.6521,9.99249 18.9012,4.89424 2.8105,-1.73696 5.4612,-2.80683 5.8906,-2.37748 1.7043,1.70437 -1.1977,6.25358 -6.1253,9.60207 -2.8581,1.94217 -9.9861,7.51314 -15.84,12.37993 -5.8538,4.86678 -12.3396,9.75648 -14.4127,10.86602 -3.625,1.94002 -4.0763,1.71553 -11.7779,-5.85908 -10.0098,-9.84463 -13.5572,-15.50182 -16.5296,-26.36055 l -2.3437,-8.562 -7.57407,5.98696 c -25.55229,20.19793 -47.12569,36.25744 -48.56174,36.14998 -0.91541,-0.0685 -3.37965,-0.64335 -5.47609,-1.27743 z" id="path377" transform="translate(-12.295849,4.0986165)"/>
    <path style="fill:#000000;stroke:#000000;stroke-width:0.434724;fill-opacity:1;stroke-opacity:1" d="m 940.9883,739.80232 c -6.30201,-1.90607 -20.96534,-12.61552 -26.46856,-19.33149 -2.83763,-3.46295 -6.72383,-9.83389 -8.636,-14.15764 -6.62206,-14.97366 -7.22066,-21.64053 -7.34109,-81.75982 -0.11181,-55.81646 -0.15367,-56.58985 -3.39125,-62.64951 -4.42865,-8.28892 -8.91316,-9.35619 -17.99876,-4.28352 -4.89225,2.73145 -7.1536,3.34082 -7.90228,2.12943 -1.12076,-1.81342 -0.52626,-2.34869 24.63043,-22.17636 17.99119,-14.18007 16.77118,-14.13381 29.25113,-1.10901 11.99,12.51346 11.50664,9.25363 11.66518,78.66996 0.12804,56.06089 0.37782,62.17088 2.78415,68.10674 6.01531,14.83836 15.58562,24.02599 28.83838,27.68525 4.11149,1.13524 6.14411,0.8648 10.57322,-1.40675 5.88153,-3.01646 21.95916,-16.47311 24.27965,-20.32156 1.9411,-3.21936 2.4469,-110.28444 0.5672,-120.08646 -1.5719,-8.19729 -7.15354,-16.28765 -11.23703,-16.28765 -1.36613,0 -5.23261,2.02144 -8.59218,4.4921 -5.48959,4.03708 -10.40251,4.82147 -10.40251,1.66084 0,-0.65087 6.35783,-5.69534 14.12852,-11.20992 7.77069,-5.51459 16.9917,-12.50151 20.4911,-15.52649 3.4995,-3.02498 7.7837,-5.49997 9.5205,-5.49997 7.8181,0 20.8326,16.57708 23.3848,29.78617 0.6074,3.14396 1.1499,36.08638 1.2054,73.20539 l 0.101,67.48911 4.3983,7.1385 c 5.3034,8.6075 10.6521,9.99249 18.9012,4.89424 2.8105,-1.73696 5.4612,-2.80683 5.8906,-2.37748 1.7043,1.70437 -1.1977,6.25358 -6.1253,9.60207 -2.8581,1.94217 -9.9861,7.51314 -15.84,12.37993 -5.8538,4.86678 -12.3396,9.75648 -14.4127,10.86602 -3.625,1.94002 -4.0763,1.71553 -11.7779,-5.85908 -10.0098,-9.84463 -13.5572,-15.50182 -16.5296,-26.36055 l -2.3437,-8.562 -7.57407,5.98696 c -25.55229,20.19793 -47.12569,36.25744 -48.56174,36.14998 -0.91541,-0.0685 -3.37965,-0.64335 -5.47609,-1.27743 z" id="path378" transform="translate(-12.295849,4.0986165)"/>
    <path style="fill:#000000;stroke:#000000;stroke-width:0.434724;fill-opacity:1;stroke-opacity:1" d="m 940.9883,739.80232 c -6.30201,-1.90607 -20.96534,-12.61552 -26.46856,-19.33149 -2.83763,-3.46295 -6.72383,-9.83389 -8.636,-14.15764 -6.62206,-14.97366 -7.22066,-21.64053 -7.34109,-81.75982 -0.11181,-55.81646 -0.15367,-56.58985 -3.39125,-62.64951 -4.42865,-8.28892 -8.91316,-9.35619 -17.99876,-4.28352 -4.89225,2.73145 -7.1536,3.34082 -7.90228,2.12943 -1.12076,-1.81342 -0.52626,-2.34869 24.63043,-22.17636 17.99119,-14.18007 16.77118,-14.13381 29.25113,-1.10901 11.99,12.51346 11.50664,9.25363 11.66518,78.66996 0.12804,56.06089 0.37782,62.17088 2.78415,68.10674 6.01531,14.83836 15.58562,24.02599 28.83838,27.68525 4.11149,1.13524 6.14411,0.8648 10.57322,-1.40675 5.88153,-3.01646 21.95916,-16.47311 24.27965,-20.32156 1.9411,-3.21936 2.4469,-110.28444 0.5672,-120.08646 -1.5719,-8.19729 -7.15354,-16.28765 -11.23703,-16.28765 -1.36613,0 -5.23261,2.02144 -8.59218,4.4921 -5.48959,4.03708 -10.40251,4.82147 -10.40251,1.66084 0,-0.65087 6.35783,-5.69534 14.12852,-11.20992 7.77069,-5.51459 16.9917,-12.50151 20.4911,-15.52649 3.4995,-3.02498 7.7837,-5.49997 9.5205,-5.49997 7.8181,0 20.8326,16.57708 23.3848,29.78617 0.6074,3.14396 1.1499,36.08638 1.2054,73.20539 l 0.101,67.48911 4.3983,7.1385 c 5.3034,8.6075 10.6521,9.99249 18.9012,4.89424 2.8105,-1.73696 5.4612,-2.80683 5.8906,-2.37748 1.7043,1.70437 -1.1977,6.25358 -6.1253,9.60207 -2.8581,1.94217 -9.9861,7.51314 -15.84,12.37993 -5.8538,4.86678 -12.3396,9.75648 -14.4127,10.86602 -3.625,1.94002 -4.0763,1.71553 -11.7779,-5.85908 -10.0098,-9.84463 -13.5572,-15.50182 -16.5296,-26.36055 l -2.3437,-8.562 -7.57407,5.98696 c -25.55229,20.19793 -47.12569,36.25744 -48.56174,36.14998 -0.91541,-0.0685 -3.37965,-0.64335 -5.47609,-1.27743 z" id="path379" transform="translate(-12.295849,4.0986165)"/>
    <path style="fill:#000000;stroke:#000000;stroke-width:0.434724;fill-opacity:1;stroke-opacity:1" d="m 940.9883,739.80232 c -6.30201,-1.90607 -20.96534,-12.61552 -26.46856,-19.33149 -2.83763,-3.46295 -6.72383,-9.83389 -8.636,-14.15764 -6.62206,-14.97366 -7.22066,-21.64053 -7.34109,-81.75982 -0.11181,-55.81646 -0.15367,-56.58985 -3.39125,-62.64951 -4.42865,-8.28892 -8.91316,-9.35619 -17.99876,-4.28352 -4.89225,2.73145 -7.1536,3.34082 -7.90228,2.12943 -1.12076,-1.81342 -0.52626,-2.34869 24.63043,-22.17636 17.99119,-14.18007 16.77118,-14.13381 29.25113,-1.10901 11.99,12.51346 11.50664,9.25363 11.66518,78.66996 0.12804,56.06089 0.37782,62.17088 2.78415,68.10674 6.01531,14.83836 15.58562,24.02599 28.83838,27.68525 4.11149,1.13524 6.14411,0.8648 10.57322,-1.40675 5.88153,-3.01646 21.95916,-16.47311 24.27965,-20.32156 1.9411,-3.21936 2.4469,-110.28444 0.5672,-120.08646 -1.5719,-8.19729 -7.15354,-16.28765 -11.23703,-16.28765 -1.36613,0 -5.23261,2.02144 -8.59218,4.4921 -5.48959,4.03708 -10.40251,4.82147 -10.40251,1.66084 0,-0.65087 6.35783,-5.69534 14.12852,-11.20992 7.77069,-5.51459 16.9917,-12.50151 20.4911,-15.52649 3.4995,-3.02498 7.7837,-5.49997 9.5205,-5.49997 7.8181,0 20.8326,16.57708 23.3848,29.78617 0.6074,3.14396 1.1499,36.08638 1.2054,73.20539 l 0.101,67.48911 4.3983,7.1385 c 5.3034,8.6075 10.6521,9.99249 18.9012,4.89424 2.8105,-1.73696 5.4612,-2.80683 5.8906,-2.37748 1.7043,1.70437 -1.1977,6.25358 -6.1253,9.60207 -2.8581,1.94217 -9.9861,7.51314 -15.84,12.37993 -5.8538,4.86678 -12.3396,9.75648 -14.4127,10.86602 -3.625,1.94002 -4.0763,1.71553 -11.7779,-5.85908 -10.0098,-9.84463 -13.5572,-15.50182 -16.5296,-26.36055 l -2.3437,-8.562 -7.57407,5.98696 c -25.55229,20.19793 -47.12569,36.25744 -48.56174,36.14998 -0.91541,-0.0685 -3.37965,-0.64335 -5.47609,-1.27743 z" id="path380" transform="translate(-12.295849,4.0986165)"/>
    <path style="fill:#000000;stroke:#000000;stroke-width:0.434724;fill-opacity:1;stroke-opacity:1" d="m 940.9883,739.80232 c -6.30201,-1.90607 -20.96534,-12.61552 -26.46856,-19.33149 -2.83763,-3.46295 -6.72383,-9.83389 -8.636,-14.15764 -6.62206,-14.97366 -7.22066,-21.64053 -7.34109,-81.75982 -0.11181,-55.81646 -0.15367,-56.58985 -3.39125,-62.64951 -4.42865,-8.28892 -8.91316,-9.35619 -17.99876,-4.28352 -4.89225,2.73145 -7.1536,3.34082 -7.90228,2.12943 -1.12076,-1.81342 -0.52626,-2.34869 24.63043,-22.17636 17.99119,-14.18007 16.77118,-14.13381 29.25113,-1.10901 11.99,12.51346 11.50664,9.25363 11.66518,78.66996 0.12804,56.06089 0.37782,62.17088 2.78415,68.10674 6.01531,14.83836 15.58562,24.02599 28.83838,27.68525 4.11149,1.13524 6.14411,0.8648 10.57322,-1.40675 5.88153,-3.01646 21.95916,-16.47311 24.27965,-20.32156 1.9411,-3.21936 2.4469,-110.28444 0.5672,-120.08646 -1.5719,-8.19729 -7.15354,-16.28765 -11.23703,-16.28765 -1.36613,0 -5.23261,2.02144 -8.59218,4.4921 -5.48959,4.03708 -10.40251,4.82147 -10.40251,1.66084 0,-0.65087 6.35783,-5.69534 14.12852,-11.20992 7.77069,-5.51459 16.9917,-12.50151 20.4911,-15.52649 3.4995,-3.02498 7.7837,-5.49997 9.5205,-5.49997 7.8181,0 20.8326,16.57708 23.3848,29.78617 0.6074,3.14396 1.1499,36.08638 1.2054,73.20539 l 0.101,67.48911 4.3983,7.1385 c 5.3034,8.6075 10.6521,9.99249 18.9012,4.89424 2.8105,-1.73696 5.4612,-2.80683 5.8906,-2.37748 1.7043,1.70437 -1.1977,6.25358 -6.1253,9.60207 -2.8581,1.94217 -9.9861,7.51314 -15.84,12.37993 -5.8538,4.86678 -12.3396,9.75648 -14.4127,10.86602 -3.625,1.94002 -4.0763,1.71553 -11.7779,-5.85908 -10.0098,-9.84463 -13.5572,-15.50182 -16.5296,-26.36055 l -2.3437,-8.562 -7.57407,5.98696 c -25.55229,20.19793 -47.12569,36.25744 -48.56174,36.14998 -0.91541,-0.0685 -3.37965,-0.64335 -5.47609,-1.27743 z" id="path381" transform="translate(-12.295849,4.0986165)"/>
    <path style="fill:#000000;stroke:#000000;stroke-width:0.434724;fill-opacity:1;stroke-opacity:1" d="m 940.9883,739.80232 c -6.30201,-1.90607 -20.96534,-12.61552 -26.46856,-19.33149 -2.83763,-3.46295 -6.72383,-9.83389 -8.636,-14.15764 -6.62206,-14.97366 -7.22066,-21.64053 -7.34109,-81.75982 -0.11181,-55.81646 -0.15367,-56.58985 -3.39125,-62.64951 -4.42865,-8.28892 -8.91316,-9.35619 -17.99876,-4.28352 -4.89225,2.73145 -7.1536,3.34082 -7.90228,2.12943 -1.12076,-1.81342 -0.52626,-2.34869 24.63043,-22.17636 17.99119,-14.18007 16.77118,-14.13381 29.25113,-1.10901 11.99,12.51346 11.50664,9.25363 11.66518,78.66996 0.12804,56.06089 0.37782,62.17088 2.78415,68.10674 6.01531,14.83836 15.58562,24.02599 28.83838,27.68525 4.11149,1.13524 6.14411,0.8648 10.57322,-1.40675 5.88153,-3.01646 21.95916,-16.47311 24.27965,-20.32156 1.9411,-3.21936 2.4469,-110.28444 0.5672,-120.08646 -1.5719,-8.19729 -7.15354,-16.28765 -11.23703,-16.28765 -1.36613,0 -5.23261,2.02144 -8.59218,4.4921 -5.48959,4.03708 -10.40251,4.82147 -10.40251,1.66084 0,-0.65087 6.35783,-5.69534 14.12852,-11.20992 7.77069,-5.51459 16.9917,-12.50151 20.4911,-15.52649 3.4995,-3.02498 7.7837,-5.49997 9.5205,-5.49997 7.8181,0 20.8326,16.57708 23.3848,29.78617 0.6074,3.14396 1.1499,36.08638 1.2054,73.20539 l 0.101,67.48911 4.3983,7.1385 c 5.3034,8.6075 10.6521,9.99249 18.9012,4.89424 2.8105,-1.73696 5.4612,-2.80683 5.8906,-2.37748 1.7043,1.70437 -1.1977,6.25358 -6.1253,9.60207 -2.8581,1.94217 -9.9861,7.51314 -15.84,12.37993 -5.8538,4.86678 -12.3396,9.75648 -14.4127,10.86602 -3.625,1.94002 -4.0763,1.71553 -11.7779,-5.85908 -10.0098,-9.84463 -13.5572,-15.50182 -16.5296,-26.36055 l -2.3437,-8.562 -7.57407,5.98696 c -25.55229,20.19793 -47.12569,36.25744 -48.56174,36.14998 -0.91541,-0.0685 -3.37965,-0.64335 -5.47609,-1.27743 z" id="path382" transform="translate(-12.295849,4.0986165)"/>
    <path style="fill:#000000;stroke:#000000;stroke-width:0.434724;fill-opacity:1;stroke-opacity:1" d="m 940.9883,739.80232 c -6.30201,-1.90607 -20.96534,-12.61552 -26.46856,-19.33149 -2.83763,-3.46295 -6.72383,-9.83389 -8.636,-14.15764 -6.62206,-14.97366 -7.22066,-21.64053 -7.34109,-81.75982 -0.11181,-55.81646 -0.15367,-56.58985 -3.39125,-62.64951 -4.42865,-8.28892 -8.91316,-9.35619 -17.99876,-4.28352 -4.89225,2.73145 -7.1536,3.34082 -7.90228,2.12943 -1.12076,-1.81342 -0.52626,-2.34869 24.63043,-22.17636 17.99119,-14.18007 16.77118,-14.13381 29.25113,-1.10901 11.99,12.51346 11.50664,9.25363 11.66518,78.66996 0.12804,56.06089 0.37782,62.17088 2.78415,68.10674 6.01531,14.83836 15.58562,24.02599 28.83838,27.68525 4.11149,1.13524 6.14411,0.8648 10.57322,-1.40675 5.88153,-3.01646 21.95916,-16.47311 24.27965,-20.32156 1.9411,-3.21936 2.4469,-110.28444 0.5672,-120.08646 -1.5719,-8.19729 -7.15354,-16.28765 -11.23703,-16.28765 -1.36613,0 -5.23261,2.02144 -8.59218,4.4921 -5.48959,4.03708 -10.40251,4.82147 -10.40251,1.66084 0,-0.65087 6.35783,-5.69534 14.12852,-11.20992 7.77069,-5.51459 16.9917,-12.50151 20.4911,-15.52649 3.4995,-3.02498 7.7837,-5.49997 9.5205,-5.49997 7.8181,0 20.8326,16.57708 23.3848,29.78617 0.6074,3.14396 1.1499,36.08638 1.2054,73.20539 l 0.101,67.48911 4.3983,7.1385 c 5.3034,8.6075 10.6521,9.99249 18.9012,4.89424 2.8105,-1.73696 5.4612,-2.80683 5.8906,-2.37748 1.7043,1.70437 -1.1977,6.25358 -6.1253,9.60207 -2.8581,1.94217 -9.9861,7.51314 -15.84,12.37993 -5.8538,4.86678 -12.3396,9.75648 -14.4127,10.86602 -3.625,1.94002 -4.0763,1.71553 -11.7779,-5.85908 -10.0098,-9.84463 -13.5572,-15.50182 -16.5296,-26.36055 l -2.3437,-8.562 -7.57407,5.98696 c -25.55229,20.19793 -47.12569,36.25744 -48.56174,36.14998 -0.91541,-0.0685 -3.37965,-0.64335 -5.47609,-1.27743 z" id="path383" transform="translate(-12.295849,4.0986165)"/>
    <path style="fill:#000000;stroke:#000000;stroke-width:0.434724;fill-opacity:1;stroke-opacity:1" d="m 1124.275,731.83927 c -6.2786,-6.56275 -9.903,-11.87443 -12.1125,-17.75123 -3.1013,-8.24875 -3.1453,-9.50243 -2.6805,-76.49295 l 0.4726,-68.10675 -3.3127,-6.76586 c -5.1161,-10.4493 -6.327,-10.93176 -13.8595,-5.52231 -5.7712,4.1446 -9.5953,4.76989 -9.5953,1.56898 0,-0.62102 5.0537,-5.04963 11.2304,-9.84135 6.1767,-4.79172 15.1323,-12.04529 19.9012,-16.11905 8.4571,-7.22412 8.7609,-7.34995 12.3172,-5.10088 6.2696,3.96493 11.7318,9.65806 15.6597,16.32173 l 3.7849,6.42101 -0.3845,68.93114 c -0.4027,72.18922 0.1487,80.5125 5.8105,87.71037 3.3485,4.25697 9.0789,4.84156 13.9583,1.42393 3.1195,-2.185 6.1162,-1.79643 6.1162,0.79306 0,1.42751 -35.6004,31.89518 -37.2684,31.89518 -0.5929,0 -5.1099,-4.21425 -10.0376,-9.36502 z" id="path384" transform="translate(-12.295849,4.0986165)"/>
    <path style="fill:#000000;stroke:#000000;stroke-width:0.434724;fill-opacity:1;stroke-opacity:1" d="m 1272.0244,614.39599 c -6.5232,-1.02036 -12.5683,-2.09118 -13.4335,-2.37961 -0.8653,-0.28843 5.2764,-10.62731 13.6483,-22.9753 8.3719,-12.34799 15.2321,-22.9136 15.2449,-23.47912 0.013,-0.56553 -5.8483,-1.0189 -13.0246,-1.00749 -10.6974,0.017 -47.8331,-4.88825 -50.7897,-6.70879 -1.9109,-1.17668 -14.0045,2.67358 -18.0216,5.73753 -4.4295,3.37853 -6.6729,6.8042 -9.427,14.39484 -1.2273,3.38275 -1.8846,3.82573 -3.5839,2.41542 -1.7943,-1.48911 -1.6751,-2.75862 0.8653,-9.21425 5.6411,-14.33536 13.6042,-27.82272 20.8145,-35.25382 10.1118,-10.42162 15.8679,-11.06817 43.4841,-4.8844 36.7278,8.22401 69.5311,7.65511 83.8963,-1.45498 7.3714,-4.67485 9.567,-3.09235 5.4819,3.95123 -3.8991,6.72287 -41.4899,64.9019 -50.147,77.61214 -4.2244,6.20219 -5.2563,6.33616 -25.008,3.2466 z" id="path385" transform="translate(-12.295849,4.0986165)"/>
    <path style="fill:#000000;stroke:#000000;stroke-width:0.434724;fill-opacity:1;stroke-opacity:1" d="m 1272.0244,614.39599 c -6.5232,-1.02036 -12.5683,-2.09118 -13.4335,-2.37961 -0.8653,-0.28843 5.2764,-10.62731 13.6483,-22.9753 8.3719,-12.34799 15.2321,-22.9136 15.2449,-23.47912 0.013,-0.56553 -5.8483,-1.0189 -13.0246,-1.00749 -10.6974,0.017 -47.8331,-4.88825 -50.7897,-6.70879 -1.9109,-1.17668 -14.0045,2.67358 -18.0216,5.73753 -4.4295,3.37853 -6.6729,6.8042 -9.427,14.39484 -1.2273,3.38275 -1.8846,3.82573 -3.5839,2.41542 -1.7943,-1.48911 -1.6751,-2.75862 0.8653,-9.21425 5.6411,-14.33536 13.6042,-27.82272 20.8145,-35.25382 10.1118,-10.42162 15.8679,-11.06817 43.4841,-4.8844 36.7278,8.22401 69.5311,7.65511 83.8963,-1.45498 7.3714,-4.67485 9.567,-3.09235 5.4819,3.95123 -3.8991,6.72287 -41.4899,64.9019 -50.147,77.61214 -4.2244,6.20219 -5.2563,6.33616 -25.008,3.2466 z" id="path386" transform="translate(-12.295849,4.0986165)"/>
    <path style="fill:#000000;stroke:#000000;stroke-width:0.108681;fill-opacity:1;stroke-opacity:1" d="m 1025.7582,738.90185 c -14.5443,-12.49188 -21.4559,-23.64184 -22.3859,-36.11339 l -0.2468,-3.31099 -8.69452,6.84422 c -4.78196,3.76431 -15.21533,11.83523 -23.18527,17.93535 -7.96994,6.10013 -15.39469,11.94007 -16.49944,12.97763 -6.43742,6.04594 -12.67702,5.35258 -25.16161,-2.796 -8.89418,-5.80515 -14.46374,-11.08744 -19.22289,-18.23141 -10.00642,-15.02065 -13.54482,-33.97821 -12.49049,-66.91987 0.21858,-6.82926 0.55876,-17.30748 0.75596,-23.28494 0.2528,-7.66267 0.23869,-13.37901 -0.0478,-19.38144 -0.24122,-5.05352 -0.31238,-12.93014 -0.17512,-19.38144 0.31395,-14.75565 -0.14215,-17.6459 -3.9567,-25.07304 -2.72778,-5.31112 -4.80104,-6.98785 -8.64043,-6.98785 -2.96752,0 -6.42506,1.42606 -11.78475,4.86062 -4.23437,2.71344 -3.9461,2.66921 -4.80098,0.7366 -1.58214,-3.57669 0.0878,-5.79766 8.48127,-11.28013 3.14544,-2.05453 6.40587,-4.43967 7.2454,-5.3003 0.83953,-0.86063 4.70534,-3.98184 8.59068,-6.93601 7.66022,-5.82436 9.85301,-7.60267 13.29459,-10.78165 l 2.24535,-2.07403 2.28302,1.28483 c 6.67521,3.75663 14.08165,11.07014 20.28811,20.03355 l 1.85535,2.67952 0.65152,5.10928 c 1.3714,10.75465 1.56826,15.00913 1.57745,34.09088 0.0152,31.5909 -0.38541,60.8766 -0.88459,64.66519 -0.57453,4.36052 -0.2913,15.25759 0.51318,19.74371 1.9031,10.61259 5.2594,18.47128 10.82407,25.34433 4.87564,6.02199 11.66453,10.50268 19.26254,12.71334 4.35121,1.266 6.31072,1.28732 9.15774,0.0997 4.68137,-1.95287 7.80414,-4.19034 15.84,-11.34937 3.13113,-2.78948 6.64792,-5.78214 7.81508,-6.65035 1.16716,-0.86822 2.20098,-1.84635 2.29738,-2.17362 0.3478,-1.18108 1.284,-12.34232 1.63,-19.43308 0.2054,-4.21075 0.3001,-26.28785 0.226,-52.71028 -0.1144,-40.8073 -0.1896,-45.75946 -0.7337,-48.34044 -0.7205,-3.41695 -1.94941,-6.80018 -3.31934,-9.13778 -1.0917,-1.86285 -4.71293,-5.88547 -6.34322,-7.04635 l -1.03314,-0.73565 -1.9003,0.87582 c -1.04517,0.48171 -3.61203,2.15517 -5.70414,3.71882 -5.79077,4.32803 -10.14356,6.33921 -10.14356,4.68678 0,-0.30332 -0.65208,-1.25893 -1.44908,-2.12356 -0.79699,-0.86464 -1.44908,-1.80775 -1.44908,-2.09581 0,-0.28806 0.67832,-0.82301 1.50736,-1.18879 2.16719,-0.95616 8.07656,-5.00788 13.52684,-9.27458 2.59023,-2.02774 6.63548,-4.95686 8.98945,-6.50916 2.35396,-1.55229 6.47821,-4.75329 9.16511,-7.11333 8.0403,-7.06234 11.7942,-8.83635 15.1017,-7.13677 6.57,3.37608 12.8338,9.74395 16.5219,16.7963 4.6818,8.95262 6.4285,17.99745 6.0168,31.15658 -0.1277,4.08214 -0.3032,32.0383 -0.3899,62.12482 -0.1396,48.3955 -0.093,55.05286 0.4057,57.73918 0.7161,3.85895 1.9642,6.97387 3.7271,9.30128 0.7631,1.00753 1.9301,2.8499 2.5932,4.09415 1.3832,2.59512 2.6984,3.83945 4.688,4.43557 2.8036,0.83996 4.4533,0.23827 14.8728,-5.42435 1.4944,-0.81214 2.8258,-1.4809 2.9588,-1.48614 0.1329,-0.005 0.5219,0.72406 0.8643,1.62068 0.5887,1.54149 0.5887,1.71906 -8e-4,3.26263 -0.8636,2.26112 -3.0509,4.31579 -8.8286,8.29325 -2.7258,1.87654 -5.944,4.36421 -7.1514,5.52816 -1.9517,1.88148 -9.409,7.89681 -16.0852,12.97487 -2.3924,1.81974 -8.2658,5.62468 -8.6824,5.62468 -0.1241,0 -2.0962,-1.60667 -4.3826,-3.57039 z" id="path387" transform="translate(-12.295849,4.0986165)"/>
    <path style="fill:#000000;stroke:#000000;stroke-width:0.108681;fill-opacity:1;stroke-opacity:1" d="m 1025.7582,738.90185 c -14.5443,-12.49188 -21.4559,-23.64184 -22.3859,-36.11339 l -0.2468,-3.31099 -8.69452,6.84422 c -4.78196,3.76431 -15.21533,11.83523 -23.18527,17.93535 -7.96994,6.10013 -15.39469,11.94007 -16.49944,12.97763 -6.43742,6.04594 -12.67702,5.35258 -25.16161,-2.796 -8.89418,-5.80515 -14.46374,-11.08744 -19.22289,-18.23141 -10.00642,-15.02065 -13.54482,-33.97821 -12.49049,-66.91987 0.21858,-6.82926 0.55876,-17.30748 0.75596,-23.28494 0.2528,-7.66267 0.23869,-13.37901 -0.0478,-19.38144 -0.24122,-5.05352 -0.31238,-12.93014 -0.17512,-19.38144 0.31395,-14.75565 -0.14215,-17.6459 -3.9567,-25.07304 -2.72778,-5.31112 -4.80104,-6.98785 -8.64043,-6.98785 -2.96752,0 -6.42506,1.42606 -11.78475,4.86062 -4.23437,2.71344 -3.9461,2.66921 -4.80098,0.7366 -1.58214,-3.57669 0.0878,-5.79766 8.48127,-11.28013 3.14544,-2.05453 6.40587,-4.43967 7.2454,-5.3003 0.83953,-0.86063 4.70534,-3.98184 8.59068,-6.93601 7.66022,-5.82436 9.85301,-7.60267 13.29459,-10.78165 l 2.24535,-2.07403 2.28302,1.28483 c 6.67521,3.75663 14.08165,11.07014 20.28811,20.03355 l 1.85535,2.67952 0.65152,5.10928 c 1.3714,10.75465 1.56826,15.00913 1.57745,34.09088 0.0152,31.5909 -0.38541,60.8766 -0.88459,64.66519 -0.57453,4.36052 -0.2913,15.25759 0.51318,19.74371 1.9031,10.61259 5.2594,18.47128 10.82407,25.34433 4.87564,6.02199 11.66453,10.50268 19.26254,12.71334 4.35121,1.266 6.31072,1.28732 9.15774,0.0997 4.68137,-1.95287 7.80414,-4.19034 15.84,-11.34937 3.13113,-2.78948 6.64792,-5.78214 7.81508,-6.65035 1.16716,-0.86822 2.20098,-1.84635 2.29738,-2.17362 0.3478,-1.18108 1.284,-12.34232 1.63,-19.43308 0.2054,-4.21075 0.3001,-26.28785 0.226,-52.71028 -0.1144,-40.8073 -0.1896,-45.75946 -0.7337,-48.34044 -0.7205,-3.41695 -1.94941,-6.80018 -3.31934,-9.13778 -1.0917,-1.86285 -4.71293,-5.88547 -6.34322,-7.04635 l -1.03314,-0.73565 -1.9003,0.87582 c -1.04517,0.48171 -3.61203,2.15517 -5.70414,3.71882 -5.79077,4.32803 -10.14356,6.33921 -10.14356,4.68678 0,-0.30332 -0.65208,-1.25893 -1.44908,-2.12356 -0.79699,-0.86464 -1.44908,-1.80775 -1.44908,-2.09581 0,-0.28806 0.67832,-0.82301 1.50736,-1.18879 2.16719,-0.95616 8.07656,-5.00788 13.52684,-9.27458 2.59023,-2.02774 6.63548,-4.95686 8.98945,-6.50916 2.35396,-1.55229 6.47821,-4.75329 9.16511,-7.11333 8.0403,-7.06234 11.7942,-8.83635 15.1017,-7.13677 6.57,3.37608 12.8338,9.74395 16.5219,16.7963 4.6818,8.95262 6.4285,17.99745 6.0168,31.15658 -0.1277,4.08214 -0.3032,32.0383 -0.3899,62.12482 -0.1396,48.3955 -0.093,55.05286 0.4057,57.73918 0.7161,3.85895 1.9642,6.97387 3.7271,9.30128 0.7631,1.00753 1.9301,2.8499 2.5932,4.09415 1.3832,2.59512 2.6984,3.83945 4.688,4.43557 2.8036,0.83996 4.4533,0.23827 14.8728,-5.42435 1.4944,-0.81214 2.8258,-1.4809 2.9588,-1.48614 0.1329,-0.005 0.5219,0.72406 0.8643,1.62068 0.5887,1.54149 0.5887,1.71906 -8e-4,3.26263 -0.8636,2.26112 -3.0509,4.31579 -8.8286,8.29325 -2.7258,1.87654 -5.944,4.36421 -7.1514,5.52816 -1.9517,1.88148 -9.409,7.89681 -16.0852,12.97487 -2.3924,1.81974 -8.2658,5.62468 -8.6824,5.62468 -0.1241,0 -2.0962,-1.60667 -4.3826,-3.57039 z" id="path388" transform="translate(-12.295849,4.0986165)"/>
    <path style="fill:#000000;stroke:#000000;stroke-width:0.108681;fill-opacity:1;stroke-opacity:1" d="m 1025.7582,738.90185 c -14.5443,-12.49188 -21.4559,-23.64184 -22.3859,-36.11339 l -0.2468,-3.31099 -8.69452,6.84422 c -4.78196,3.76431 -15.21533,11.83523 -23.18527,17.93535 -7.96994,6.10013 -15.39469,11.94007 -16.49944,12.97763 -6.43742,6.04594 -12.67702,5.35258 -25.16161,-2.796 -8.89418,-5.80515 -14.46374,-11.08744 -19.22289,-18.23141 -10.00642,-15.02065 -13.54482,-33.97821 -12.49049,-66.91987 0.21858,-6.82926 0.55876,-17.30748 0.75596,-23.28494 0.2528,-7.66267 0.23869,-13.37901 -0.0478,-19.38144 -0.24122,-5.05352 -0.31238,-12.93014 -0.17512,-19.38144 0.31395,-14.75565 -0.14215,-17.6459 -3.9567,-25.07304 -2.72778,-5.31112 -4.80104,-6.98785 -8.64043,-6.98785 -2.96752,0 -6.42506,1.42606 -11.78475,4.86062 -4.23437,2.71344 -3.9461,2.66921 -4.80098,0.7366 -1.58214,-3.57669 0.0878,-5.79766 8.48127,-11.28013 3.14544,-2.05453 6.40587,-4.43967 7.2454,-5.3003 0.83953,-0.86063 4.70534,-3.98184 8.59068,-6.93601 7.66022,-5.82436 9.85301,-7.60267 13.29459,-10.78165 l 2.24535,-2.07403 2.28302,1.28483 c 6.67521,3.75663 14.08165,11.07014 20.28811,20.03355 l 1.85535,2.67952 0.65152,5.10928 c 1.3714,10.75465 1.56826,15.00913 1.57745,34.09088 0.0152,31.5909 -0.38541,60.8766 -0.88459,64.66519 -0.57453,4.36052 -0.2913,15.25759 0.51318,19.74371 1.9031,10.61259 5.2594,18.47128 10.82407,25.34433 4.87564,6.02199 11.66453,10.50268 19.26254,12.71334 4.35121,1.266 6.31072,1.28732 9.15774,0.0997 4.68137,-1.95287 7.80414,-4.19034 15.84,-11.34937 3.13113,-2.78948 6.64792,-5.78214 7.81508,-6.65035 1.16716,-0.86822 2.20098,-1.84635 2.29738,-2.17362 0.3478,-1.18108 1.284,-12.34232 1.63,-19.43308 0.2054,-4.21075 0.3001,-26.28785 0.226,-52.71028 -0.1144,-40.8073 -0.1896,-45.75946 -0.7337,-48.34044 -0.7205,-3.41695 -1.94941,-6.80018 -3.31934,-9.13778 -1.0917,-1.86285 -4.71293,-5.88547 -6.34322,-7.04635 l -1.03314,-0.73565 -1.9003,0.87582 c -1.04517,0.48171 -3.61203,2.15517 -5.70414,3.71882 -5.79077,4.32803 -10.14356,6.33921 -10.14356,4.68678 0,-0.30332 -0.65208,-1.25893 -1.44908,-2.12356 -0.79699,-0.86464 -1.44908,-1.80775 -1.44908,-2.09581 0,-0.28806 0.67832,-0.82301 1.50736,-1.18879 2.16719,-0.95616 8.07656,-5.00788 13.52684,-9.27458 2.59023,-2.02774 6.63548,-4.95686 8.98945,-6.50916 2.35396,-1.55229 6.47821,-4.75329 9.16511,-7.11333 8.0403,-7.06234 11.7942,-8.83635 15.1017,-7.13677 6.57,3.37608 12.8338,9.74395 16.5219,16.7963 4.6818,8.95262 6.4285,17.99745 6.0168,31.15658 -0.1277,4.08214 -0.3032,32.0383 -0.3899,62.12482 -0.1396,48.3955 -0.093,55.05286 0.4057,57.73918 0.7161,3.85895 1.9642,6.97387 3.7271,9.30128 0.7631,1.00753 1.9301,2.8499 2.5932,4.09415 1.3832,2.59512 2.6984,3.83945 4.688,4.43557 2.8036,0.83996 4.4533,0.23827 14.8728,-5.42435 1.4944,-0.81214 2.8258,-1.4809 2.9588,-1.48614 0.1329,-0.005 0.5219,0.72406 0.8643,1.62068 0.5887,1.54149 0.5887,1.71906 -8e-4,3.26263 -0.8636,2.26112 -3.0509,4.31579 -8.8286,8.29325 -2.7258,1.87654 -5.944,4.36421 -7.1514,5.52816 -1.9517,1.88148 -9.409,7.89681 -16.0852,12.97487 -2.3924,1.81974 -8.2658,5.62468 -8.6824,5.62468 -0.1241,0 -2.0962,-1.60667 -4.3826,-3.57039 z" id="path389" transform="translate(-12.295849,4.0986165)"/>
    <path style="fill:#000000;stroke:#000000;stroke-width:0.108681;fill-opacity:1;stroke-opacity:1" d="m 1025.7582,738.90185 c -14.5443,-12.49188 -21.4559,-23.64184 -22.3859,-36.11339 l -0.2468,-3.31099 -8.69452,6.84422 c -4.78196,3.76431 -15.21533,11.83523 -23.18527,17.93535 -7.96994,6.10013 -15.39469,11.94007 -16.49944,12.97763 -6.43742,6.04594 -12.67702,5.35258 -25.16161,-2.796 -8.89418,-5.80515 -14.46374,-11.08744 -19.22289,-18.23141 -10.00642,-15.02065 -13.54482,-33.97821 -12.49049,-66.91987 0.21858,-6.82926 0.55876,-17.30748 0.75596,-23.28494 0.2528,-7.66267 0.23869,-13.37901 -0.0478,-19.38144 -0.24122,-5.05352 -0.31238,-12.93014 -0.17512,-19.38144 0.31395,-14.75565 -0.14215,-17.6459 -3.9567,-25.07304 -2.72778,-5.31112 -4.80104,-6.98785 -8.64043,-6.98785 -2.96752,0 -6.42506,1.42606 -11.78475,4.86062 -4.23437,2.71344 -3.9461,2.66921 -4.80098,0.7366 -1.58214,-3.57669 0.0878,-5.79766 8.48127,-11.28013 3.14544,-2.05453 6.40587,-4.43967 7.2454,-5.3003 0.83953,-0.86063 4.70534,-3.98184 8.59068,-6.93601 7.66022,-5.82436 9.85301,-7.60267 13.29459,-10.78165 l 2.24535,-2.07403 2.28302,1.28483 c 6.67521,3.75663 14.08165,11.07014 20.28811,20.03355 l 1.85535,2.67952 0.65152,5.10928 c 1.3714,10.75465 1.56826,15.00913 1.57745,34.09088 0.0152,31.5909 -0.38541,60.8766 -0.88459,64.66519 -0.57453,4.36052 -0.2913,15.25759 0.51318,19.74371 1.9031,10.61259 5.2594,18.47128 10.82407,25.34433 4.87564,6.02199 11.66453,10.50268 19.26254,12.71334 4.35121,1.266 6.31072,1.28732 9.15774,0.0997 4.68137,-1.95287 7.80414,-4.19034 15.84,-11.34937 3.13113,-2.78948 6.64792,-5.78214 7.81508,-6.65035 1.16716,-0.86822 2.20098,-1.84635 2.29738,-2.17362 0.3478,-1.18108 1.284,-12.34232 1.63,-19.43308 0.2054,-4.21075 0.3001,-26.28785 0.226,-52.71028 -0.1144,-40.8073 -0.1896,-45.75946 -0.7337,-48.34044 -0.7205,-3.41695 -1.94941,-6.80018 -3.31934,-9.13778 -1.0917,-1.86285 -4.71293,-5.88547 -6.34322,-7.04635 l -1.03314,-0.73565 -1.9003,0.87582 c -1.04517,0.48171 -3.61203,2.15517 -5.70414,3.71882 -5.79077,4.32803 -10.14356,6.33921 -10.14356,4.68678 0,-0.30332 -0.65208,-1.25893 -1.44908,-2.12356 -0.79699,-0.86464 -1.44908,-1.80775 -1.44908,-2.09581 0,-0.28806 0.67832,-0.82301 1.50736,-1.18879 2.16719,-0.95616 8.07656,-5.00788 13.52684,-9.27458 2.59023,-2.02774 6.63548,-4.95686 8.98945,-6.50916 2.35396,-1.55229 6.47821,-4.75329 9.16511,-7.11333 8.0403,-7.06234 11.7942,-8.83635 15.1017,-7.13677 6.57,3.37608 12.8338,9.74395 16.5219,16.7963 4.6818,8.95262 6.4285,17.99745 6.0168,31.15658 -0.1277,4.08214 -0.3032,32.0383 -0.3899,62.12482 -0.1396,48.3955 -0.093,55.05286 0.4057,57.73918 0.7161,3.85895 1.9642,6.97387 3.7271,9.30128 0.7631,1.00753 1.9301,2.8499 2.5932,4.09415 1.3832,2.59512 2.6984,3.83945 4.688,4.43557 2.8036,0.83996 4.4533,0.23827 14.8728,-5.42435 1.4944,-0.81214 2.8258,-1.4809 2.9588,-1.48614 0.1329,-0.005 0.5219,0.72406 0.8643,1.62068 0.5887,1.54149 0.5887,1.71906 -8e-4,3.26263 -0.8636,2.26112 -3.0509,4.31579 -8.8286,8.29325 -2.7258,1.87654 -5.944,4.36421 -7.1514,5.52816 -1.9517,1.88148 -9.409,7.89681 -16.0852,12.97487 -2.3924,1.81974 -8.2658,5.62468 -8.6824,5.62468 -0.1241,0 -2.0962,-1.60667 -4.3826,-3.57039 z" id="path390" transform="translate(-12.295849,4.0986165)"/>
    <path style="fill:#000000;stroke:#000000;stroke-width:0.108681;fill-opacity:1;stroke-opacity:1" d="m 1025.7582,738.90185 c -14.5443,-12.49188 -21.4559,-23.64184 -22.3859,-36.11339 l -0.2468,-3.31099 -8.69452,6.84422 c -4.78196,3.76431 -15.21533,11.83523 -23.18527,17.93535 -7.96994,6.10013 -15.39469,11.94007 -16.49944,12.97763 -6.43742,6.04594 -12.67702,5.35258 -25.16161,-2.796 -8.89418,-5.80515 -14.46374,-11.08744 -19.22289,-18.23141 -10.00642,-15.02065 -13.54482,-33.97821 -12.49049,-66.91987 0.21858,-6.82926 0.55876,-17.30748 0.75596,-23.28494 0.2528,-7.66267 0.23869,-13.37901 -0.0478,-19.38144 -0.24122,-5.05352 -0.31238,-12.93014 -0.17512,-19.38144 0.31395,-14.75565 -0.14215,-17.6459 -3.9567,-25.07304 -2.72778,-5.31112 -4.80104,-6.98785 -8.64043,-6.98785 -2.96752,0 -6.42506,1.42606 -11.78475,4.86062 -4.23437,2.71344 -3.9461,2.66921 -4.80098,0.7366 -1.58214,-3.57669 0.0878,-5.79766 8.48127,-11.28013 3.14544,-2.05453 6.40587,-4.43967 7.2454,-5.3003 0.83953,-0.86063 4.70534,-3.98184 8.59068,-6.93601 7.66022,-5.82436 9.85301,-7.60267 13.29459,-10.78165 l 2.24535,-2.07403 2.28302,1.28483 c 6.67521,3.75663 14.08165,11.07014 20.28811,20.03355 l 1.85535,2.67952 0.65152,5.10928 c 1.3714,10.75465 1.56826,15.00913 1.57745,34.09088 0.0152,31.5909 -0.38541,60.8766 -0.88459,64.66519 -0.57453,4.36052 -0.2913,15.25759 0.51318,19.74371 1.9031,10.61259 5.2594,18.47128 10.82407,25.34433 4.87564,6.02199 11.66453,10.50268 19.26254,12.71334 4.35121,1.266 6.31072,1.28732 9.15774,0.0997 4.68137,-1.95287 7.80414,-4.19034 15.84,-11.34937 3.13113,-2.78948 6.64792,-5.78214 7.81508,-6.65035 1.16716,-0.86822 2.20098,-1.84635 2.29738,-2.17362 0.3478,-1.18108 1.284,-12.34232 1.63,-19.43308 0.2054,-4.21075 0.3001,-26.28785 0.226,-52.71028 -0.1144,-40.8073 -0.1896,-45.75946 -0.7337,-48.34044 -0.7205,-3.41695 -1.94941,-6.80018 -3.31934,-9.13778 -1.0917,-1.86285 -4.71293,-5.88547 -6.34322,-7.04635 l -1.03314,-0.73565 -1.9003,0.87582 c -1.04517,0.48171 -3.61203,2.15517 -5.70414,3.71882 -5.79077,4.32803 -10.14356,6.33921 -10.14356,4.68678 0,-0.30332 -0.65208,-1.25893 -1.44908,-2.12356 -0.79699,-0.86464 -1.44908,-1.80775 -1.44908,-2.09581 0,-0.28806 0.67832,-0.82301 1.50736,-1.18879 2.16719,-0.95616 8.07656,-5.00788 13.52684,-9.27458 2.59023,-2.02774 6.63548,-4.95686 8.98945,-6.50916 2.35396,-1.55229 6.47821,-4.75329 9.16511,-7.11333 8.0403,-7.06234 11.7942,-8.83635 15.1017,-7.13677 6.57,3.37608 12.8338,9.74395 16.5219,16.7963 4.6818,8.95262 6.4285,17.99745 6.0168,31.15658 -0.1277,4.08214 -0.3032,32.0383 -0.3899,62.12482 -0.1396,48.3955 -0.093,55.05286 0.4057,57.73918 0.7161,3.85895 1.9642,6.97387 3.7271,9.30128 0.7631,1.00753 1.9301,2.8499 2.5932,4.09415 1.3832,2.59512 2.6984,3.83945 4.688,4.43557 2.8036,0.83996 4.4533,0.23827 14.8728,-5.42435 1.4944,-0.81214 2.8258,-1.4809 2.9588,-1.48614 0.1329,-0.005 0.5219,0.72406 0.8643,1.62068 0.5887,1.54149 0.5887,1.71906 -8e-4,3.26263 -0.8636,2.26112 -3.0509,4.31579 -8.8286,8.29325 -2.7258,1.87654 -5.944,4.36421 -7.1514,5.52816 -1.9517,1.88148 -9.409,7.89681 -16.0852,12.97487 -2.3924,1.81974 -8.2658,5.62468 -8.6824,5.62468 -0.1241,0 -2.0962,-1.60667 -4.3826,-3.57039 z" id="path391" transform="translate(-12.295849,4.0986165)"/>
    <path style="fill:#000000;stroke:#000000;stroke-width:0.108681;fill-opacity:1;stroke-opacity:1" d="m 1025.7582,738.90185 c -14.5443,-12.49188 -21.4559,-23.64184 -22.3859,-36.11339 l -0.2468,-3.31099 -8.69452,6.84422 c -4.78196,3.76431 -15.21533,11.83523 -23.18527,17.93535 -7.96994,6.10013 -15.39469,11.94007 -16.49944,12.97763 -6.43742,6.04594 -12.67702,5.35258 -25.16161,-2.796 -8.89418,-5.80515 -14.46374,-11.08744 -19.22289,-18.23141 -10.00642,-15.02065 -13.54482,-33.97821 -12.49049,-66.91987 0.21858,-6.82926 0.55876,-17.30748 0.75596,-23.28494 0.2528,-7.66267 0.23869,-13.37901 -0.0478,-19.38144 -0.24122,-5.05352 -0.31238,-12.93014 -0.17512,-19.38144 0.31395,-14.75565 -0.14215,-17.6459 -3.9567,-25.07304 -2.72778,-5.31112 -4.80104,-6.98785 -8.64043,-6.98785 -2.96752,0 -6.42506,1.42606 -11.78475,4.86062 -4.23437,2.71344 -3.9461,2.66921 -4.80098,0.7366 -1.58214,-3.57669 0.0878,-5.79766 8.48127,-11.28013 3.14544,-2.05453 6.40587,-4.43967 7.2454,-5.3003 0.83953,-0.86063 4.70534,-3.98184 8.59068,-6.93601 7.66022,-5.82436 9.85301,-7.60267 13.29459,-10.78165 l 2.24535,-2.07403 2.28302,1.28483 c 6.67521,3.75663 14.08165,11.07014 20.28811,20.03355 l 1.85535,2.67952 0.65152,5.10928 c 1.3714,10.75465 1.56826,15.00913 1.57745,34.09088 0.0152,31.5909 -0.38541,60.8766 -0.88459,64.66519 -0.57453,4.36052 -0.2913,15.25759 0.51318,19.74371 1.9031,10.61259 5.2594,18.47128 10.82407,25.34433 4.87564,6.02199 11.66453,10.50268 19.26254,12.71334 4.35121,1.266 6.31072,1.28732 9.15774,0.0997 4.68137,-1.95287 7.80414,-4.19034 15.84,-11.34937 3.13113,-2.78948 6.64792,-5.78214 7.81508,-6.65035 1.16716,-0.86822 2.20098,-1.84635 2.29738,-2.17362 0.3478,-1.18108 1.284,-12.34232 1.63,-19.43308 0.2054,-4.21075 0.3001,-26.28785 0.226,-52.71028 -0.1144,-40.8073 -0.1896,-45.75946 -0.7337,-48.34044 -0.7205,-3.41695 -1.94941,-6.80018 -3.31934,-9.13778 -1.0917,-1.86285 -4.71293,-5.88547 -6.34322,-7.04635 l -1.03314,-0.73565 -1.9003,0.87582 c -1.04517,0.48171 -3.61203,2.15517 -5.70414,3.71882 -5.79077,4.32803 -10.14356,6.33921 -10.14356,4.68678 0,-0.30332 -0.65208,-1.25893 -1.44908,-2.12356 -0.79699,-0.86464 -1.44908,-1.80775 -1.44908,-2.09581 0,-0.28806 0.67832,-0.82301 1.50736,-1.18879 2.16719,-0.95616 8.07656,-5.00788 13.52684,-9.27458 2.59023,-2.02774 6.63548,-4.95686 8.98945,-6.50916 2.35396,-1.55229 6.47821,-4.75329 9.16511,-7.11333 8.0403,-7.06234 11.7942,-8.83635 15.1017,-7.13677 6.57,3.37608 12.8338,9.74395 16.5219,16.7963 4.6818,8.95262 6.4285,17.99745 6.0168,31.15658 -0.1277,4.08214 -0.3032,32.0383 -0.3899,62.12482 -0.1396,48.3955 -0.093,55.05286 0.4057,57.73918 0.7161,3.85895 1.9642,6.97387 3.7271,9.30128 0.7631,1.00753 1.9301,2.8499 2.5932,4.09415 1.3832,2.59512 2.6984,3.83945 4.688,4.43557 2.8036,0.83996 4.4533,0.23827 14.8728,-5.42435 1.4944,-0.81214 2.8258,-1.4809 2.9588,-1.48614 0.1329,-0.005 0.5219,0.72406 0.8643,1.62068 0.5887,1.54149 0.5887,1.71906 -8e-4,3.26263 -0.8636,2.26112 -3.0509,4.31579 -8.8286,8.29325 -2.7258,1.87654 -5.944,4.36421 -7.1514,5.52816 -1.9517,1.88148 -9.409,7.89681 -16.0852,12.97487 -2.3924,1.81974 -8.2658,5.62468 -8.6824,5.62468 -0.1241,0 -2.0962,-1.60667 -4.3826,-3.57039 z" id="path392" transform="translate(-12.295849,4.0986165)"/>
    <path style="fill:#000000;stroke:#000000;stroke-width:0.108681;fill-opacity:1;stroke-opacity:1" d="m 1025.7582,738.90185 c -14.5443,-12.49188 -21.4559,-23.64184 -22.3859,-36.11339 l -0.2468,-3.31099 -8.69452,6.84422 c -4.78196,3.76431 -15.21533,11.83523 -23.18527,17.93535 -7.96994,6.10013 -15.39469,11.94007 -16.49944,12.97763 -6.43742,6.04594 -12.67702,5.35258 -25.16161,-2.796 -8.89418,-5.80515 -14.46374,-11.08744 -19.22289,-18.23141 -10.00642,-15.02065 -13.54482,-33.97821 -12.49049,-66.91987 0.21858,-6.82926 0.55876,-17.30748 0.75596,-23.28494 0.2528,-7.66267 0.23869,-13.37901 -0.0478,-19.38144 -0.24122,-5.05352 -0.31238,-12.93014 -0.17512,-19.38144 0.31395,-14.75565 -0.14215,-17.6459 -3.9567,-25.07304 -2.72778,-5.31112 -4.80104,-6.98785 -8.64043,-6.98785 -2.96752,0 -6.42506,1.42606 -11.78475,4.86062 -4.23437,2.71344 -3.9461,2.66921 -4.80098,0.7366 -1.58214,-3.57669 0.0878,-5.79766 8.48127,-11.28013 3.14544,-2.05453 6.40587,-4.43967 7.2454,-5.3003 0.83953,-0.86063 4.70534,-3.98184 8.59068,-6.93601 7.66022,-5.82436 9.85301,-7.60267 13.29459,-10.78165 l 2.24535,-2.07403 2.28302,1.28483 c 6.67521,3.75663 14.08165,11.07014 20.28811,20.03355 l 1.85535,2.67952 0.65152,5.10928 c 1.3714,10.75465 1.56826,15.00913 1.57745,34.09088 0.0152,31.5909 -0.38541,60.8766 -0.88459,64.66519 -0.57453,4.36052 -0.2913,15.25759 0.51318,19.74371 1.9031,10.61259 5.2594,18.47128 10.82407,25.34433 4.87564,6.02199 11.66453,10.50268 19.26254,12.71334 4.35121,1.266 6.31072,1.28732 9.15774,0.0997 4.68137,-1.95287 7.80414,-4.19034 15.84,-11.34937 3.13113,-2.78948 6.64792,-5.78214 7.81508,-6.65035 1.16716,-0.86822 2.20098,-1.84635 2.29738,-2.17362 0.3478,-1.18108 1.284,-12.34232 1.63,-19.43308 0.2054,-4.21075 0.3001,-26.28785 0.226,-52.71028 -0.1144,-40.8073 -0.1896,-45.75946 -0.7337,-48.34044 -0.7205,-3.41695 -1.94941,-6.80018 -3.31934,-9.13778 -1.0917,-1.86285 -4.71293,-5.88547 -6.34322,-7.04635 l -1.03314,-0.73565 -1.9003,0.87582 c -1.04517,0.48171 -3.61203,2.15517 -5.70414,3.71882 -5.79077,4.32803 -10.14356,6.33921 -10.14356,4.68678 0,-0.30332 -0.65208,-1.25893 -1.44908,-2.12356 -0.79699,-0.86464 -1.44908,-1.80775 -1.44908,-2.09581 0,-0.28806 0.67832,-0.82301 1.50736,-1.18879 2.16719,-0.95616 8.07656,-5.00788 13.52684,-9.27458 2.59023,-2.02774 6.63548,-4.95686 8.98945,-6.50916 2.35396,-1.55229 6.47821,-4.75329 9.16511,-7.11333 8.0403,-7.06234 11.7942,-8.83635 15.1017,-7.13677 6.57,3.37608 12.8338,9.74395 16.5219,16.7963 4.6818,8.95262 6.4285,17.99745 6.0168,31.15658 -0.1277,4.08214 -0.3032,32.0383 -0.3899,62.12482 -0.1396,48.3955 -0.093,55.05286 0.4057,57.73918 0.7161,3.85895 1.9642,6.97387 3.7271,9.30128 0.7631,1.00753 1.9301,2.8499 2.5932,4.09415 1.3832,2.59512 2.6984,3.83945 4.688,4.43557 2.8036,0.83996 4.4533,0.23827 14.8728,-5.42435 1.4944,-0.81214 2.8258,-1.4809 2.9588,-1.48614 0.1329,-0.005 0.5219,0.72406 0.8643,1.62068 0.5887,1.54149 0.5887,1.71906 -8e-4,3.26263 -0.8636,2.26112 -3.0509,4.31579 -8.8286,8.29325 -2.7258,1.87654 -5.944,4.36421 -7.1514,5.52816 -1.9517,1.88148 -9.409,7.89681 -16.0852,12.97487 -2.3924,1.81974 -8.2658,5.62468 -8.6824,5.62468 -0.1241,0 -2.0962,-1.60667 -4.3826,-3.57039 z" id="path393" transform="translate(-12.295849,4.0986165)"/>
    <path style="fill:#000000;stroke:#000000;stroke-width:0.108681;fill-opacity:1;stroke-opacity:1" d="m 1025.7582,738.90185 c -14.5443,-12.49188 -21.4559,-23.64184 -22.3859,-36.11339 l -0.2468,-3.31099 -8.69452,6.84422 c -4.78196,3.76431 -15.21533,11.83523 -23.18527,17.93535 -7.96994,6.10013 -15.39469,11.94007 -16.49944,12.97763 -6.43742,6.04594 -12.67702,5.35258 -25.16161,-2.796 -8.89418,-5.80515 -14.46374,-11.08744 -19.22289,-18.23141 -10.00642,-15.02065 -13.54482,-33.97821 -12.49049,-66.91987 0.21858,-6.82926 0.55876,-17.30748 0.75596,-23.28494 0.2528,-7.66267 0.23869,-13.37901 -0.0478,-19.38144 -0.24122,-5.05352 -0.31238,-12.93014 -0.17512,-19.38144 0.31395,-14.75565 -0.14215,-17.6459 -3.9567,-25.07304 -2.72778,-5.31112 -4.80104,-6.98785 -8.64043,-6.98785 -2.96752,0 -6.42506,1.42606 -11.78475,4.86062 -4.23437,2.71344 -3.9461,2.66921 -4.80098,0.7366 -1.58214,-3.57669 0.0878,-5.79766 8.48127,-11.28013 3.14544,-2.05453 6.40587,-4.43967 7.2454,-5.3003 0.83953,-0.86063 4.70534,-3.98184 8.59068,-6.93601 7.66022,-5.82436 9.85301,-7.60267 13.29459,-10.78165 l 2.24535,-2.07403 2.28302,1.28483 c 6.67521,3.75663 14.08165,11.07014 20.28811,20.03355 l 1.85535,2.67952 0.65152,5.10928 c 1.3714,10.75465 1.56826,15.00913 1.57745,34.09088 0.0152,31.5909 -0.38541,60.8766 -0.88459,64.66519 -0.57453,4.36052 -0.2913,15.25759 0.51318,19.74371 1.9031,10.61259 5.2594,18.47128 10.82407,25.34433 4.87564,6.02199 11.66453,10.50268 19.26254,12.71334 4.35121,1.266 6.31072,1.28732 9.15774,0.0997 4.68137,-1.95287 7.80414,-4.19034 15.84,-11.34937 3.13113,-2.78948 6.64792,-5.78214 7.81508,-6.65035 1.16716,-0.86822 2.20098,-1.84635 2.29738,-2.17362 0.3478,-1.18108 1.284,-12.34232 1.63,-19.43308 0.2054,-4.21075 0.3001,-26.28785 0.226,-52.71028 -0.1144,-40.8073 -0.1896,-45.75946 -0.7337,-48.34044 -0.7205,-3.41695 -1.94941,-6.80018 -3.31934,-9.13778 -1.0917,-1.86285 -4.71293,-5.88547 -6.34322,-7.04635 l -1.03314,-0.73565 -1.9003,0.87582 c -1.04517,0.48171 -3.61203,2.15517 -5.70414,3.71882 -5.79077,4.32803 -10.14356,6.33921 -10.14356,4.68678 0,-0.30332 -0.65208,-1.25893 -1.44908,-2.12356 -0.79699,-0.86464 -1.44908,-1.80775 -1.44908,-2.09581 0,-0.28806 0.67832,-0.82301 1.50736,-1.18879 2.16719,-0.95616 8.07656,-5.00788 13.52684,-9.27458 2.59023,-2.02774 6.63548,-4.95686 8.98945,-6.50916 2.35396,-1.55229 6.47821,-4.75329 9.16511,-7.11333 8.0403,-7.06234 11.7942,-8.83635 15.1017,-7.13677 6.57,3.37608 12.8338,9.74395 16.5219,16.7963 4.6818,8.95262 6.4285,17.99745 6.0168,31.15658 -0.1277,4.08214 -0.3032,32.0383 -0.3899,62.12482 -0.1396,48.3955 -0.093,55.05286 0.4057,57.73918 0.7161,3.85895 1.9642,6.97387 3.7271,9.30128 0.7631,1.00753 1.9301,2.8499 2.5932,4.09415 1.3832,2.59512 2.6984,3.83945 4.688,4.43557 2.8036,0.83996 4.4533,0.23827 14.8728,-5.42435 1.4944,-0.81214 2.8258,-1.4809 2.9588,-1.48614 0.1329,-0.005 0.5219,0.72406 0.8643,1.62068 0.5887,1.54149 0.5887,1.71906 -8e-4,3.26263 -0.8636,2.26112 -3.0509,4.31579 -8.8286,8.29325 -2.7258,1.87654 -5.944,4.36421 -7.1514,5.52816 -1.9517,1.88148 -9.409,7.89681 -16.0852,12.97487 -2.3924,1.81974 -8.2658,5.62468 -8.6824,5.62468 -0.1241,0 -2.0962,-1.60667 -4.3826,-3.57039 z" id="path395" transform="translate(-12.295849,4.0986165)"/>
    <path style="fill:#000000;stroke:#000000;stroke-width:0.108681;fill-opacity:1;stroke-opacity:1" d="m 877.92432,812.35205 c -1.3154,-0.16991 -4.27303,-0.79403 -6.57251,-1.38692 -14.07249,-3.62842 -26.43871,-11.49653 -35.94725,-22.87167 -4.90415,-5.86687 -6.97952,-9.44058 -12.50336,-21.53027 -9.5577,-20.91837 -14.40745,-36.77297 -22.82776,-74.62761 -10.61747,-47.73229 -14.74641,-61.47906 -24.26466,-80.78619 -2.64098,-5.35706 -4.52853,-8.69959 -5.75748,-10.19556 -2.37266,-2.88816 -7.486,-6.98679 -10.88005,-8.72098 -2.40333,-1.22797 -3.01958,-1.38389 -5.92272,-1.49853 -3.11731,-0.1231 -3.33861,-0.0784 -5.83091,1.17646 -5.97908,3.01052 -8.41371,5.58591 -9.29535,9.83274 -0.47878,2.30627 0.18367,102.69795 0.7326,111.02259 0.49378,7.48839 0.82653,8.82086 2.66082,10.65515 1.86176,1.86176 4.20583,2.7693 10.77905,4.17329 8.38313,1.79057 10.82689,3.24871 10.82689,6.46015 0,1.18816 -0.0543,1.24339 -0.99625,1.01392 -1.23975,-0.30201 -46.57218,-0.86637 -72.45398,-0.90202 L 670.38052,734.14 v -11.21637 -11.21637 l 1.99964,-2.93666 c 2.58075,-3.79008 3.8016,-6.23835 5.39844,-10.82596 l 1.2964,-3.72445 -0.0319,-80.47944 c -0.0176,-44.26368 -0.1628,-91.07583 -0.32273,-104.02698 -0.27435,-22.21571 -0.33535,-23.75244 -1.07864,-27.17024 -1.35218,-6.21768 -3.69849,-12.13307 -6.37461,-16.07133 l -0.88656,-1.30468 v -10.05947 -10.05946 h 23.90982 23.90981 l 0.004,16.93612 c 0.004,17.06554 0.11716,19.65523 0.85852,19.65062 0.46462,-0.003 8.01355,-5.48062 26.1266,-18.95825 20.97474,-15.60696 24.12122,-17.99112 27.77107,-21.04273 1.92444,-1.60902 4.44493,-3.49606 5.60109,-4.19343 1.83278,-1.10549 2.40562,-1.26794 4.47096,-1.26794 2.30003,0 2.48822,0.0737 6.47767,2.53589 11.50738,7.10214 16.62761,10.9565 22.87661,17.22085 14.4458,14.4813 23.187,32.31809 23.80708,48.57938 0.29291,7.68154 -0.56737,12.82741 -3.3638,20.12092 -4.74112,12.36556 -19.86472,27.32608 -43.13573,42.6706 -9.13427,6.02299 -9.60341,6.36238 -9.44626,6.83384 0.0746,0.22392 1.95742,0.91736 4.18396,1.54099 4.36573,1.22278 10.18483,3.87512 14.19901,6.47187 4.8954,3.16683 10.65462,9.40333 14.73885,15.96032 8.52237,13.68214 12.03791,24.75307 24.38798,76.80123 10.85784,45.75927 17.97025,71.62236 23.61114,85.85797 6.86333,17.32062 20.03457,32.70653 32.40852,37.85783 4.76294,1.98281 8.38126,2.63033 13.70879,2.45329 4.12731,-0.13716 5.14571,-0.30402 8.23802,-1.34975 1.94068,-0.65629 4.78062,-1.9068 6.31099,-2.77892 1.53036,-0.87212 2.87692,-1.58219 2.99235,-1.57793 0.11542,0.004 0.673,0.66226 1.23906,1.46224 l 1.0292,1.45452 -0.92961,1.21878 c -1.31103,1.71883 -4.75014,3.9144 -8.26912,5.27911 -4.5154,1.75114 -16.35622,5.60982 -19.84878,6.46833 -5.21866,1.28276 -14.85957,1.80349 -20.32399,1.09768 z M 729.50024,712.85667 c 0.49971,-1.20232 0.83536,-45.56346 1.17219,-154.91805 l 0.23085,-74.94696 -1.18922,0.23453 c -3.6233,0.71457 -7.80928,4.07673 -9.66693,7.76445 -2.15347,4.27494 -2.02811,-2.15583 -2.02811,104.03773 0,91.67379 0.0389,97.83753 0.63757,101.00377 0.84006,4.44295 2.36964,8.31708 4.66297,11.8104 2.00601,3.05565 4.62787,6.01037 5.33329,6.01037 0.23834,0 0.61966,-0.4483 0.84739,-0.99624 z M 745.55153,586.0628 c 29.5452,-12.75216 44.05897,-24.45574 49.61881,-40.0115 2.8946,-8.09874 4.25947,-22.99401 2.92075,-31.87511 -3.06639,-20.34243 -15.02696,-38.17583 -32.8062,-48.91456 -2.98708,-1.8042 -7.75761,-4.27313 -8.25667,-4.27313 -0.17334,0 -1.52234,1.07275 -2.99776,2.38389 -2.21037,1.96424 -9.01138,7.23685 -13.51362,10.47669 -0.89086,0.64107 -1.04565,1.05842 -1.34356,3.6227 -0.61675,5.30858 -1.02752,33.64189 -1.03795,71.5936 -0.006,20.64712 0.0924,38.05391 0.21798,38.68175 0.276,1.38001 -0.11163,1.47071 7.19822,-1.68433 z" id="path399" transform="translate(-12.295849,4.0986165)"/>
    <path style="fill:#000000;stroke:#000000;stroke-width:0.108681;fill-opacity:1;stroke-opacity:1" d="m 877.92432,812.35205 c -1.3154,-0.16991 -4.27303,-0.79403 -6.57251,-1.38692 -14.07249,-3.62842 -26.43871,-11.49653 -35.94725,-22.87167 -4.90415,-5.86687 -6.97952,-9.44058 -12.50336,-21.53027 -9.5577,-20.91837 -14.40745,-36.77297 -22.82776,-74.62761 -10.61747,-47.73229 -14.74641,-61.47906 -24.26466,-80.78619 -2.64098,-5.35706 -4.52853,-8.69959 -5.75748,-10.19556 -2.37266,-2.88816 -7.486,-6.98679 -10.88005,-8.72098 -2.40333,-1.22797 -3.01958,-1.38389 -5.92272,-1.49853 -3.11731,-0.1231 -3.33861,-0.0784 -5.83091,1.17646 -5.97908,3.01052 -8.41371,5.58591 -9.29535,9.83274 -0.47878,2.30627 0.18367,102.69795 0.7326,111.02259 0.49378,7.48839 0.82653,8.82086 2.66082,10.65515 1.86176,1.86176 4.20583,2.7693 10.77905,4.17329 8.38313,1.79057 10.82689,3.24871 10.82689,6.46015 0,1.18816 -0.0543,1.24339 -0.99625,1.01392 -1.23975,-0.30201 -46.57218,-0.86637 -72.45398,-0.90202 L 670.38052,734.14 v -11.21637 -11.21637 l 1.99964,-2.93666 c 2.58075,-3.79008 3.8016,-6.23835 5.39844,-10.82596 l 1.2964,-3.72445 -0.0319,-80.47944 c -0.0176,-44.26368 -0.1628,-91.07583 -0.32273,-104.02698 -0.27435,-22.21571 -0.33535,-23.75244 -1.07864,-27.17024 -1.35218,-6.21768 -3.69849,-12.13307 -6.37461,-16.07133 l -0.88656,-1.30468 v -10.05947 -10.05946 h 23.90982 23.90981 l 0.004,16.93612 c 0.004,17.06554 0.11716,19.65523 0.85852,19.65062 0.46462,-0.003 8.01355,-5.48062 26.1266,-18.95825 20.97474,-15.60696 24.12122,-17.99112 27.77107,-21.04273 1.92444,-1.60902 4.44493,-3.49606 5.60109,-4.19343 1.83278,-1.10549 2.40562,-1.26794 4.47096,-1.26794 2.30003,0 2.48822,0.0737 6.47767,2.53589 11.50738,7.10214 16.62761,10.9565 22.87661,17.22085 14.4458,14.4813 23.187,32.31809 23.80708,48.57938 0.29291,7.68154 -0.56737,12.82741 -3.3638,20.12092 -4.74112,12.36556 -19.86472,27.32608 -43.13573,42.6706 -9.13427,6.02299 -9.60341,6.36238 -9.44626,6.83384 0.0746,0.22392 1.95742,0.91736 4.18396,1.54099 4.36573,1.22278 10.18483,3.87512 14.19901,6.47187 4.8954,3.16683 10.65462,9.40333 14.73885,15.96032 8.52237,13.68214 12.03791,24.75307 24.38798,76.80123 10.85784,45.75927 17.97025,71.62236 23.61114,85.85797 6.86333,17.32062 20.03457,32.70653 32.40852,37.85783 4.76294,1.98281 8.38126,2.63033 13.70879,2.45329 4.12731,-0.13716 5.14571,-0.30402 8.23802,-1.34975 1.94068,-0.65629 4.78062,-1.9068 6.31099,-2.77892 1.53036,-0.87212 2.87692,-1.58219 2.99235,-1.57793 0.11542,0.004 0.673,0.66226 1.23906,1.46224 l 1.0292,1.45452 -0.92961,1.21878 c -1.31103,1.71883 -4.75014,3.9144 -8.26912,5.27911 -4.5154,1.75114 -16.35622,5.60982 -19.84878,6.46833 -5.21866,1.28276 -14.85957,1.80349 -20.32399,1.09768 z M 729.50024,712.85667 c 0.49971,-1.20232 0.83536,-45.56346 1.17219,-154.91805 l 0.23085,-74.94696 -1.18922,0.23453 c -3.6233,0.71457 -7.80928,4.07673 -9.66693,7.76445 -2.15347,4.27494 -2.02811,-2.15583 -2.02811,104.03773 0,91.67379 0.0389,97.83753 0.63757,101.00377 0.84006,4.44295 2.36964,8.31708 4.66297,11.8104 2.00601,3.05565 4.62787,6.01037 5.33329,6.01037 0.23834,0 0.61966,-0.4483 0.84739,-0.99624 z M 745.55153,586.0628 c 29.5452,-12.75216 44.05897,-24.45574 49.61881,-40.0115 2.8946,-8.09874 4.25947,-22.99401 2.92075,-31.87511 -3.06639,-20.34243 -15.02696,-38.17583 -32.8062,-48.91456 -2.98708,-1.8042 -7.75761,-4.27313 -8.25667,-4.27313 -0.17334,0 -1.52234,1.07275 -2.99776,2.38389 -2.21037,1.96424 -9.01138,7.23685 -13.51362,10.47669 -0.89086,0.64107 -1.04565,1.05842 -1.34356,3.6227 -0.61675,5.30858 -1.02752,33.64189 -1.03795,71.5936 -0.006,20.64712 0.0924,38.05391 0.21798,38.68175 0.276,1.38001 -0.11163,1.47071 7.19822,-1.68433 z" id="path400" transform="translate(-12.295849,4.0986165)"/>
    <path style="fill:#000000;stroke:#000000;stroke-width:0.108681;fill-opacity:1;stroke-opacity:1" d="m 877.92432,812.35205 c -1.3154,-0.16991 -4.27303,-0.79403 -6.57251,-1.38692 -14.07249,-3.62842 -26.43871,-11.49653 -35.94725,-22.87167 -4.90415,-5.86687 -6.97952,-9.44058 -12.50336,-21.53027 -9.5577,-20.91837 -14.40745,-36.77297 -22.82776,-74.62761 -10.61747,-47.73229 -14.74641,-61.47906 -24.26466,-80.78619 -2.64098,-5.35706 -4.52853,-8.69959 -5.75748,-10.19556 -2.37266,-2.88816 -7.486,-6.98679 -10.88005,-8.72098 -2.40333,-1.22797 -3.01958,-1.38389 -5.92272,-1.49853 -3.11731,-0.1231 -3.33861,-0.0784 -5.83091,1.17646 -5.97908,3.01052 -8.41371,5.58591 -9.29535,9.83274 -0.47878,2.30627 0.18367,102.69795 0.7326,111.02259 0.49378,7.48839 0.82653,8.82086 2.66082,10.65515 1.86176,1.86176 4.20583,2.7693 10.77905,4.17329 8.38313,1.79057 10.82689,3.24871 10.82689,6.46015 0,1.18816 -0.0543,1.24339 -0.99625,1.01392 -1.23975,-0.30201 -46.57218,-0.86637 -72.45398,-0.90202 L 670.38052,734.14 v -11.21637 -11.21637 l 1.99964,-2.93666 c 2.58075,-3.79008 3.8016,-6.23835 5.39844,-10.82596 l 1.2964,-3.72445 -0.0319,-80.47944 c -0.0176,-44.26368 -0.1628,-91.07583 -0.32273,-104.02698 -0.27435,-22.21571 -0.33535,-23.75244 -1.07864,-27.17024 -1.35218,-6.21768 -3.69849,-12.13307 -6.37461,-16.07133 l -0.88656,-1.30468 v -10.05947 -10.05946 h 23.90982 23.90981 l 0.004,16.93612 c 0.004,17.06554 0.11716,19.65523 0.85852,19.65062 0.46462,-0.003 8.01355,-5.48062 26.1266,-18.95825 20.97474,-15.60696 24.12122,-17.99112 27.77107,-21.04273 1.92444,-1.60902 4.44493,-3.49606 5.60109,-4.19343 1.83278,-1.10549 2.40562,-1.26794 4.47096,-1.26794 2.30003,0 2.48822,0.0737 6.47767,2.53589 11.50738,7.10214 16.62761,10.9565 22.87661,17.22085 14.4458,14.4813 23.187,32.31809 23.80708,48.57938 0.29291,7.68154 -0.56737,12.82741 -3.3638,20.12092 -4.74112,12.36556 -19.86472,27.32608 -43.13573,42.6706 -9.13427,6.02299 -9.60341,6.36238 -9.44626,6.83384 0.0746,0.22392 1.95742,0.91736 4.18396,1.54099 4.36573,1.22278 10.18483,3.87512 14.19901,6.47187 4.8954,3.16683 10.65462,9.40333 14.73885,15.96032 8.52237,13.68214 12.03791,24.75307 24.38798,76.80123 10.85784,45.75927 17.97025,71.62236 23.61114,85.85797 6.86333,17.32062 20.03457,32.70653 32.40852,37.85783 4.76294,1.98281 8.38126,2.63033 13.70879,2.45329 4.12731,-0.13716 5.14571,-0.30402 8.23802,-1.34975 1.94068,-0.65629 4.78062,-1.9068 6.31099,-2.77892 1.53036,-0.87212 2.87692,-1.58219 2.99235,-1.57793 0.11542,0.004 0.673,0.66226 1.23906,1.46224 l 1.0292,1.45452 -0.92961,1.21878 c -1.31103,1.71883 -4.75014,3.9144 -8.26912,5.27911 -4.5154,1.75114 -16.35622,5.60982 -19.84878,6.46833 -5.21866,1.28276 -14.85957,1.80349 -20.32399,1.09768 z M 729.50024,712.85667 c 0.49971,-1.20232 0.83536,-45.56346 1.17219,-154.91805 l 0.23085,-74.94696 -1.18922,0.23453 c -3.6233,0.71457 -7.80928,4.07673 -9.66693,7.76445 -2.15347,4.27494 -2.02811,-2.15583 -2.02811,104.03773 0,91.67379 0.0389,97.83753 0.63757,101.00377 0.84006,4.44295 2.36964,8.31708 4.66297,11.8104 2.00601,3.05565 4.62787,6.01037 5.33329,6.01037 0.23834,0 0.61966,-0.4483 0.84739,-0.99624 z M 745.55153,586.0628 c 29.5452,-12.75216 44.05897,-24.45574 49.61881,-40.0115 2.8946,-8.09874 4.25947,-22.99401 2.92075,-31.87511 -3.06639,-20.34243 -15.02696,-38.17583 -32.8062,-48.91456 -2.98708,-1.8042 -7.75761,-4.27313 -8.25667,-4.27313 -0.17334,0 -1.52234,1.07275 -2.99776,2.38389 -2.21037,1.96424 -9.01138,7.23685 -13.51362,10.47669 -0.89086,0.64107 -1.04565,1.05842 -1.34356,3.6227 -0.61675,5.30858 -1.02752,33.64189 -1.03795,71.5936 -0.006,20.64712 0.0924,38.05391 0.21798,38.68175 0.276,1.38001 -0.11163,1.47071 7.19822,-1.68433 z" id="path401" transform="translate(-12.295849,4.0986165)"/>
    <path style="fill:#000000;stroke:#000000;stroke-width:0.108681;fill-opacity:1;stroke-opacity:1" d="" id="path402" transform="translate(-12.295849,4.0986165)"/>
    <path style="fill:#000000;stroke:#000000;stroke-width:0.108681;fill-opacity:1;stroke-opacity:1" d="m 877.92432,812.35205 c -1.3154,-0.16991 -4.27303,-0.79403 -6.57251,-1.38692 -14.07249,-3.62842 -26.43871,-11.49653 -35.94725,-22.87167 -4.90415,-5.86687 -6.97952,-9.44058 -12.50336,-21.53027 -9.5577,-20.91837 -14.40745,-36.77297 -22.82776,-74.62761 -10.61747,-47.73229 -14.74641,-61.47906 -24.26466,-80.78619 -2.64098,-5.35706 -4.52853,-8.69959 -5.75748,-10.19556 -2.37266,-2.88816 -7.486,-6.98679 -10.88005,-8.72098 -2.40333,-1.22797 -3.01958,-1.38389 -5.92272,-1.49853 -3.11731,-0.1231 -3.33861,-0.0784 -5.83091,1.17646 -5.97908,3.01052 -8.41371,5.58591 -9.29535,9.83274 -0.47878,2.30627 0.18367,102.69795 0.7326,111.02259 0.49378,7.48839 0.82653,8.82086 2.66082,10.65515 1.86176,1.86176 4.20583,2.7693 10.77905,4.17329 8.38313,1.79057 10.82689,3.24871 10.82689,6.46015 0,1.18816 -0.0543,1.24339 -0.99625,1.01392 -1.23975,-0.30201 -46.57218,-0.86637 -72.45398,-0.90202 L 670.38052,734.14 v -11.21637 -11.21637 l 1.99964,-2.93666 c 2.58075,-3.79008 3.8016,-6.23835 5.39844,-10.82596 l 1.2964,-3.72445 -0.0319,-80.47944 c -0.0176,-44.26368 -0.1628,-91.07583 -0.32273,-104.02698 -0.27435,-22.21571 -0.33535,-23.75244 -1.07864,-27.17024 -1.35218,-6.21768 -3.69849,-12.13307 -6.37461,-16.07133 l -0.88656,-1.30468 v -10.05947 -10.05946 h 23.90982 23.90981 l 0.004,16.93612 c 0.004,17.06554 0.11716,19.65523 0.85852,19.65062 0.46462,-0.003 8.01355,-5.48062 26.1266,-18.95825 20.97474,-15.60696 24.12122,-17.99112 27.77107,-21.04273 1.92444,-1.60902 4.44493,-3.49606 5.60109,-4.19343 1.83278,-1.10549 2.40562,-1.26794 4.47096,-1.26794 2.30003,0 2.48822,0.0737 6.47767,2.53589 11.50738,7.10214 16.62761,10.9565 22.87661,17.22085 14.4458,14.4813 23.187,32.31809 23.80708,48.57938 0.29291,7.68154 -0.56737,12.82741 -3.3638,20.12092 -4.74112,12.36556 -19.86472,27.32608 -43.13573,42.6706 -9.13427,6.02299 -9.60341,6.36238 -9.44626,6.83384 0.0746,0.22392 1.95742,0.91736 4.18396,1.54099 4.36573,1.22278 10.18483,3.87512 14.19901,6.47187 4.8954,3.16683 10.65462,9.40333 14.73885,15.96032 8.52237,13.68214 12.03791,24.75307 24.38798,76.80123 10.85784,45.75927 17.97025,71.62236 23.61114,85.85797 6.86333,17.32062 20.03457,32.70653 32.40852,37.85783 4.76294,1.98281 8.38126,2.63033 13.70879,2.45329 4.12731,-0.13716 5.14571,-0.30402 8.23802,-1.34975 1.94068,-0.65629 4.78062,-1.9068 6.31099,-2.77892 1.53036,-0.87212 2.87692,-1.58219 2.99235,-1.57793 0.11542,0.004 0.673,0.66226 1.23906,1.46224 l 1.0292,1.45452 -0.92961,1.21878 c -1.31103,1.71883 -4.75014,3.9144 -8.26912,5.27911 -4.5154,1.75114 -16.35622,5.60982 -19.84878,6.46833 -5.21866,1.28276 -14.85957,1.80349 -20.32399,1.09768 z M 729.50024,712.85667 c 0.49971,-1.20232 0.83536,-45.56346 1.17219,-154.91805 l 0.23085,-74.94696 -1.18922,0.23453 c -3.6233,0.71457 -7.80928,4.07673 -9.66693,7.76445 -2.15347,4.27494 -2.02811,-2.15583 -2.02811,104.03773 0,91.67379 0.0389,97.83753 0.63757,101.00377 0.84006,4.44295 2.36964,8.31708 4.66297,11.8104 2.00601,3.05565 4.62787,6.01037 5.33329,6.01037 0.23834,0 0.61966,-0.4483 0.84739,-0.99624 z M 745.55153,586.0628 c 29.5452,-12.75216 44.05897,-24.45574 49.61881,-40.0115 2.8946,-8.09874 4.25947,-22.99401 2.92075,-31.87511 -3.06639,-20.34243 -15.02696,-38.17583 -32.8062,-48.91456 -2.98708,-1.8042 -7.75761,-4.27313 -8.25667,-4.27313 -0.17334,0 -1.52234,1.07275 -2.99776,2.38389 -2.21037,1.96424 -9.01138,7.23685 -13.51362,10.47669 -0.89086,0.64107 -1.04565,1.05842 -1.34356,3.6227 -0.61675,5.30858 -1.02752,33.64189 -1.03795,71.5936 -0.006,20.64712 0.0924,38.05391 0.21798,38.68175 0.276,1.38001 -0.11163,1.47071 7.19822,-1.68433 z" id="path403" transform="translate(-12.295849,4.0986165)"/>
    <path style="fill:#000000;fill-opacity:1;stroke:#000000;stroke-width:0.153698;stroke-opacity:1" d="m 1363.0461,636.30772 c 0,-0.7741 3.654,-7.10113 6.8038,-11.78103 1.7068,-2.53602 4.9667,-7.38558 7.2442,-10.77679 2.2775,-3.39121 4.564,-7.10429 5.0813,-8.25129 l 0.9404,-2.08545 46.193,-0.33789 c 25.4062,-0.18585 47.0971,-0.47952 48.2019,-0.65262 l 2.0087,-0.31473 -1.4342,2.49982 c -0.7888,1.37491 -4.1712,6.6628 -7.5163,11.75087 -3.3451,5.08808 -6.082,9.53529 -6.082,9.88271 0,2.17729 -3.4441,6.42561 -6.4041,7.89939 -2.8923,1.44008 -5.151,1.58604 -25.3602,1.63877 -11.1303,0.029 -31.3608,0.25534 -44.9567,0.50289 -13.5959,0.24755 -24.7198,0.25896 -24.7198,0.0254 z" id="path444" transform="translate(-12.295849,4.0986165)" sodipodi:nodetypes="cccccccccccccccc"/>
    <path style="fill:#000000;fill-opacity:1;stroke:#000000;stroke-width:0.153698;stroke-opacity:1" d="m 1363.0461,636.30772 c 0,-0.7741 3.654,-7.10113 6.8038,-11.78103 1.7068,-2.53602 4.9667,-7.38558 7.2442,-10.77679 2.2775,-3.39121 4.564,-7.10429 5.0813,-8.25129 l 0.9404,-2.08545 46.193,-0.33789 c 25.4062,-0.18585 47.0971,-0.47952 48.2019,-0.65262 l 2.0087,-0.31473 -1.4342,2.49982 c -0.7888,1.37491 -4.1712,6.6628 -7.5163,11.75087 -3.3451,5.08808 -6.082,9.53529 -6.082,9.88271 0,2.17729 -3.4441,6.42561 -6.4041,7.89939 -2.8923,1.44008 -5.151,1.58604 -25.3602,1.63877 -11.1303,0.029 -31.3608,0.25534 -44.9567,0.50289 -13.5959,0.24755 -24.7198,0.25896 -24.7198,0.0254 z" id="path445" transform="translate(-12.295849,4.0986165)" sodipodi:nodetypes="cccccccccccccccc"/>
    <path style="fill:#000000;fill-opacity:1;stroke:#000000;stroke-width:0.153698;stroke-opacity:1" d="m 1363.0461,636.30772 c 0,-0.7741 3.654,-7.10113 6.8038,-11.78103 1.7068,-2.53602 4.9667,-7.38558 7.2442,-10.77679 2.2775,-3.39121 4.564,-7.10429 5.0813,-8.25129 l 0.9404,-2.08545 46.193,-0.33789 c 25.4062,-0.18585 47.0971,-0.47952 48.2019,-0.65262 l 2.0087,-0.31473 -1.4342,2.49982 c -0.7888,1.37491 -4.1712,6.6628 -7.5163,11.75087 -3.3451,5.08808 -6.082,9.53529 -6.082,9.88271 0,2.17729 -3.4441,6.42561 -6.4041,7.89939 -2.8923,1.44008 -5.151,1.58604 -25.3602,1.63877 -11.1303,0.029 -31.3608,0.25534 -44.9567,0.50289 -13.5959,0.24755 -24.7198,0.25896 -24.7198,0.0254 z" id="path446" transform="translate(-12.295849,4.0986165)" sodipodi:nodetypes="cccccccccccccccc"/>
    <path style="fill:#000000;fill-opacity:1;stroke:#000000;stroke-width:0.153698;stroke-opacity:1" d="m 1363.0461,636.30772 c 0,-0.7741 3.654,-7.10113 6.8038,-11.78103 1.7068,-2.53602 4.9667,-7.38558 7.2442,-10.77679 2.2775,-3.39121 4.564,-7.10429 5.0813,-8.25129 l 0.9404,-2.08545 46.193,-0.33789 c 25.4062,-0.18585 47.0971,-0.47952 48.2019,-0.65262 l 2.0087,-0.31473 -1.4342,2.49982 c -0.7888,1.37491 -4.1712,6.6628 -7.5163,11.75087 -3.3451,5.08808 -6.082,9.53529 -6.082,9.88271 0,2.17729 -3.4441,6.42561 -6.4041,7.89939 -2.8923,1.44008 -5.151,1.58604 -25.3602,1.63877 -11.1303,0.029 -31.3608,0.25534 -44.9567,0.50289 -13.5959,0.24755 -24.7198,0.25896 -24.7198,0.0254 z" id="path447" transform="translate(-12.295849,4.0986165)" sodipodi:nodetypes="cccccccccccccccc"/>
    <path style="fill:#000000;fill-opacity:1;stroke:#000000;stroke-width:0.153698;stroke-opacity:1" d="m 1363.0461,636.30772 c 0,-0.7741 3.654,-7.10113 6.8038,-11.78103 1.7068,-2.53602 4.9667,-7.38558 7.2442,-10.77679 2.2775,-3.39121 4.564,-7.10429 5.0813,-8.25129 l 0.9404,-2.08545 46.193,-0.33789 c 25.4062,-0.18585 47.0971,-0.47952 48.2019,-0.65262 l 2.0087,-0.31473 -1.4342,2.49982 c -0.7888,1.37491 -4.1712,6.6628 -7.5163,11.75087 -3.3451,5.08808 -6.082,9.53529 -6.082,9.88271 0,2.17729 -3.4441,6.42561 -6.4041,7.89939 -2.8923,1.44008 -5.151,1.58604 -25.3602,1.63877 -11.1303,0.029 -31.3608,0.25534 -44.9567,0.50289 -13.5959,0.24755 -24.7198,0.25896 -24.7198,0.0254 z" id="path448" transform="translate(-12.295849,4.0986165)" sodipodi:nodetypes="cccccccccccccccc"/>
  </g>
  <g fill="None" fill-opacity="0.0" stroke="#323536" stroke-opacity="1.00" stroke-width="0.3" id="g72" style="stroke:#000000;stroke-opacity:1">
    <path d=" M 1166.00 443.00  C 1153.93 444.71 1140.10 444.59 1128.00 443.00 C 1122.46 461.05 1115.82 478.78 1111.00 497.00 C 1126.64 504.64 1132.12 483.30 1141.75 474.75 C 1149.77 464.15 1160.01 454.63 1166.00 443.00 Z" id="path72" style="stroke:#000000;stroke-opacity:1"/>
  </g>
  <g fill="None" fill-opacity="0.0" stroke="#E4E6D9" stroke-opacity="1.00" stroke-width="0.3" id="g74" style="stroke:#000000;stroke-opacity:1">
    <path d=" M 526.00 460.00  C 513.22 464.99 508.09 476.38 511.00 490.00 C 511.00 563.67 511.00 637.33 511.00 711.00 C 516.09 712.91 521.52 713.63 527.00 714.00 C 526.34 629.41 528.32 544.17 526.00 460.00 Z" id="path74" style="stroke:#000000;stroke-opacity:1"/>
  </g>
  <g fill="None" fill-opacity="0.0" stroke="#E4E6D9" stroke-opacity="1.00" stroke-width="0.3" id="g77" style="stroke:#000000;stroke-opacity:1">
    <path d=" M 739.00 588.00  C 763.35 577.23 795.71 564.39 797.01 533.01 C 802.36 503.66 784.10 473.64 757.00 462.00 C 751.87 466.63 746.26 471.68 740.00 475.00 C 737.81 512.20 739.56 550.39 739.00 588.00 Z" id="path77" style="stroke:#000000;stroke-opacity:1"/>
  </g>
  <g fill="None" fill-opacity="0.0" stroke="#E4E6D9" stroke-opacity="1.00" stroke-width="0.3" id="g82" style="stroke:#000000;stroke-opacity:1">
    <path d=" M 502.00 479.00  C 488.48 483.74 485.83 496.56 488.00 510.00 C 488.00 554.33 488.00 598.67 488.00 643.00 C 479.18 646.30 471.92 653.06 463.75 657.75 C 456.02 662.66 446.03 668.88 457.75 676.25 C 469.17 691.43 485.20 701.82 502.00 709.00 C 502.00 632.33 502.00 555.67 502.00 479.00 Z" id="path82" style="stroke:#000000;stroke-opacity:1"/>
  </g>
  <g fill="None" fill-opacity="0.0" stroke="#E4E6D9" stroke-opacity="1.00" stroke-width="0.3" id="g84" style="stroke:#000000;stroke-opacity:1">
    <path d=" M 730.00 484.00  C 712.89 489.06 720.62 509.13 719.00 523.00 C 719.00 573.00 719.00 623.00 719.00 673.00 C 718.52 687.79 716.83 702.92 729.00 713.00 C 731.33 637.65 729.33 560.17 730.00 484.00 Z" id="path84" style="stroke:#000000;stroke-opacity:1"/>
  </g>
  <g fill="None" fill-opacity="0.0" stroke="#323536" stroke-opacity="1.00" stroke-width="0.3" id="g88" style="stroke:#000000;stroke-opacity:1">
    <path d=" M 991.00 553.00  C 1003.95 562.15 1002.57 577.68 1002.00 592.00 C 1000.82 624.52 1004.35 658.81 1000.23 690.23 C 990.44 696.86 982.54 708.22 971.02 710.98 C 940.51 706.33 930.99 673.54 936.00 646.00 C 934.58 613.59 938.88 579.69 933.77 548.23 C 927.63 538.70 919.30 528.92 909.00 524.00 C 902.03 530.92 893.48 536.59 885.75 542.75 C 880.90 549.60 862.65 553.53 870.00 563.00 C 878.31 558.14 888.68 548.70 894.23 562.77 C 901.27 573.81 896.70 588.29 898.00 601.00 C 901.62 646.96 883.11 707.28 929.92 735.08 C 938.35 741.00 948.54 745.62 956.25 736.25 C 971.89 724.20 987.58 712.46 1003.00 700.00 C 1002.44 718.46 1016.79 732.22 1030.00 743.00 C 1038.73 738.50 1046.17 731.08 1054.25 725.25 C 1058.84 718.53 1076.74 713.55 1070.23 704.79 C 1062.86 706.86 1052.09 719.73 1046.75 705.25 C 1037.74 695.65 1041.97 681.27 1041.00 669.00 C 1041.00 641.33 1041.00 613.67 1041.00 586.00 C 1043.68 562.45 1040.67 537.74 1018.25 525.76 C 1009.93 523.65 1002.26 536.36 994.23 540.23 C 985.98 545.48 978.84 553.02 970.00 557.00 C 969.47 559.68 973.48 560.34 973.00 563.00 C 980.06 562.23 984.55 555.14 991.00 553.00 Z" id="path88" style="stroke:#000000;stroke-opacity:1"/>
  </g>
  <g fill="None" fill-opacity="0.0" stroke="#323536" stroke-opacity="1.00" stroke-width="0.3" id="g89" style="stroke:#000000;stroke-opacity:1">
    <path d=" M 1170.00 704.00  C 1163.45 709.30 1155.36 715.71 1150.92 704.08 C 1144.91 695.07 1147.54 683.56 1147.00 673.00 C 1147.00 638.33 1147.00 603.67 1147.00 569.00 C 1151.88 549.33 1139.03 532.92 1123.00 524.00 C 1109.91 535.35 1096.18 546.86 1082.00 557.00 C 1084.50 568.69 1093.51 557.29 1099.00 554.00 C 1117.47 569.46 1105.67 597.57 1109.00 619.00 C 1109.00 644.00 1109.00 669.00 1109.00 694.00 C 1105.39 714.85 1119.18 731.54 1135.00 743.00 C 1147.35 731.28 1162.14 721.60 1174.00 709.00 C 1171.79 708.24 1170.97 705.85 1170.00 704.00 Z" id="path89" style="stroke:#000000;stroke-opacity:1"/>
  </g>
  <g fill="None" fill-opacity="0.0" stroke="#323536" stroke-opacity="1.00" stroke-width="0.3" id="g90" style="stroke:#000000;stroke-opacity:1">
    <path d=" M 1348.00 524.00  C 1330.60 540.06 1304.40 536.29 1282.22 534.78 C 1260.96 533.75 1237.77 519.34 1217.25 530.25 C 1202.90 543.99 1195.78 562.29 1189.00 580.00 C 1191.70 580.00 1193.17 583.25 1196.00 583.00 C 1198.41 565.43 1215.06 553.78 1232.33 560.67 C 1250.11 563.44 1268.61 568.07 1287.00 565.00 C 1277.06 581.23 1264.84 596.50 1255.00 613.00 C 1266.90 613.80 1278.34 616.34 1290.00 618.00 C 1299.34 615.92 1301.78 602.88 1308.08 596.08 C 1318.60 580.25 1328.92 564.19 1339.23 548.23 C 1341.85 540.33 1355.09 531.99 1348.00 524.00 Z" id="path90" style="stroke:#000000;stroke-opacity:1"/>
  </g>
  <g fill="None" fill-opacity="0.0" stroke="#323536" stroke-opacity="1.00" stroke-width="0.3" id="g105" style="fill:#000000;fill-opacity:1;stroke:#000000;stroke-opacity:1">
    <path d="m 1480,602 c -32.17,1.03 -64.53,1.2 -97,1 -5.8,11.81 -15.56,21.99 -21,34 25.61,0.78 45.0906,-1.19384 70.6206,-0.74384 10.95,0.25 26.7554,2.14768 34.4225,-11.00616 4.89,-7.78 8.7669,-15.03 12.9569,-23.25 z" id="path105" style="fill:#000000;fill-opacity:1;stroke:#000000;stroke-opacity:1" sodipodi:nodetypes="cccccc"/>
  </g>
  <g fill="None" fill-opacity="0.0" stroke="#323536" stroke-opacity="1.00" stroke-width="0.3" id="g107" style="stroke:#000000;stroke-opacity:1">
    <path d=" M 1311.00 621.00  C 1284.18 638.32 1252.88 611.58 1224.77 622.77 C 1223.10 629.05 1208.50 635.88 1217.00 641.00 C 1242.27 625.67 1274.06 650.13 1300.92 638.92 C 1304.18 633.89 1314.39 627.14 1311.00 621.00 Z" id="path107" style="stroke:#000000;stroke-opacity:1"/>
  </g>
  <g fill="None" fill-opacity="0.0" stroke="#323536" stroke-opacity="1.00" stroke-width="0.3" id="g109" style="stroke:#000000;stroke-opacity:1">
    <path d=" M 1270.00 649.00  C 1258.13 648.49 1246.76 645.98 1235.03 645.03 C 1212.15 672.85 1193.12 706.47 1173.00 737.00 C 1175.57 737.61 1177.08 740.61 1180.00 740.00 C 1195.85 721.57 1226.75 724.84 1248.99 729.01 C 1271.41 730.60 1296.07 747.90 1317.25 734.25 C 1333.33 720.26 1340.84 699.31 1348.00 680.00 C 1345.41 680.07 1343.72 677.37 1341.00 678.00 C 1338.51 697.63 1319.98 713.21 1300.00 704.00 C 1279.50 701.51 1259.34 692.79 1238.00 697.00 C 1247.32 680.44 1261.16 665.83 1270.00 649.00 Z" id="path109" style="stroke:#000000;stroke-opacity:1"/>
  </g>
  <g fill="#323536" fill-opacity="1.00" stroke="None" id="g255" style="stroke:#000000;stroke-opacity:1;fill:#000000;fill-opacity:1">
    <path style="fill:#000000;stroke:#000000;stroke-width:0.512327;stroke-opacity:1;fill-opacity:1" d="m 877.62658,812.78413 c -19.54258,-3.07556 -36.80717,-14.35297 -47.61655,-31.10362 -2.3417,-3.62878 -2.99343,-4.93161 -8.49304,-16.97771 -8.38631,-18.36901 -14.04904,-36.88383 -21.01379,-68.70649 -11.01183,-50.31425 -15.12771,-64.24103 -25.05864,-84.79013 -3.39905,-7.03331 -4.4286,-8.67849 -7.2509,-11.58669 -3.73063,-3.84417 -8.86133,-7.36201 -11.9506,-8.19386 -1.14927,-0.30947 -3.26553,-0.46515 -4.7028,-0.34596 -2.48945,0.20644 -3.18677,0.53389 -9.0386,4.24437 -0.88879,0.56356 -2.20602,2.17033 -2.92718,3.57061 -1.19902,2.32814 -1.30568,3.0513 -1.24687,8.45339 0.0354,3.2491 0.0766,24.4665 0.0916,47.14978 0.0281,42.4551 0.64774,64.19958 1.89809,66.60252 1.7343,3.33299 4.22817,4.55186 12.54735,6.13245 8.25862,1.56909 10.75886,3.20374 10.75886,7.03408 v 1.33479 l -6.53217,-0.43796 c -3.59269,-0.24088 -32.51606,-0.45015 -64.27415,-0.46505 -40.44985,-0.019 -57.90685,-0.19196 -58.29253,-0.57763 -0.3925,-0.39251 -0.36231,-1.11401 0.10519,-2.51344 0.89344,-2.67446 2.92455,-3.59959 10.03547,-4.57095 6.5044,-0.88852 8.31723,-1.6181 14.18731,-5.70969 9.53486,-6.64603 15.71895,-14.60574 18.68488,-24.04981 l 1.12628,-3.58629 -0.0604,-100.67227 c -0.0408,-67.94134 -0.23866,-102.17064 -0.60874,-105.28091 -0.76092,-6.39505 -2.11514,-11.35123 -4.44998,-16.28599 -2.48949,-5.26164 -5.37191,-8.87165 -9.46314,-11.85183 -1.74878,-1.27387 -3.82323,-2.89988 -4.60989,-3.61335 -2.35527,-2.13615 -4.93096,-3.17191 -10.86557,-4.36935 -3.09958,-0.62541 -6.25561,-1.4565 -7.0134,-1.84687 -1.7253,-0.88876 -2.97698,-2.63773 -2.97698,-4.15972 v -1.16682 h 39.96151 39.96151 v 18.48646 c 0,12.00748 0.17826,18.42662 0.50862,18.3157 0.58475,-0.19634 15.07532,-10.86478 32.93814,-24.25015 6.76865,-5.07204 13.2513,-9.88909 14.40589,-10.70456 1.15458,-0.81547 3.94362,-3.06864 6.19786,-5.00704 7.36599,-6.33396 10.7026,-7.23565 15.24105,-4.11879 1.19794,0.8227 3.79209,2.42725 5.76478,3.56565 15.58408,8.99327 29.15553,23.48927 36.57184,39.06329 8.11248,17.03597 8.82887,32.65076 2.17158,47.3331 -5.59503,12.33957 -22.55819,28.18615 -45.94396,42.91975 -3.22532,2.03203 -5.86422,3.82649 -5.86422,3.9877 0,0.16121 1.87087,0.71361 4.1575,1.22756 5.32472,1.1968 12.9128,5.06084 17.64964,8.98761 6.54985,5.42976 13.0162,14.65193 17.64367,25.16303 4.89892,11.12772 8.91499,25.74305 19.77151,71.9528 8.80001,37.45638 16.30895,64.55187 21.80212,78.67135 7.30751,18.78303 21.13045,34.41286 34.51452,39.02615 9.38024,3.23323 17.99355,2.19615 27.06157,-3.25833 l 1.96676,-1.18302 1.23529,1.43611 c 0.6794,0.78986 1.23528,1.76105 1.23528,2.1582 0,1.38794 -3.03611,4.16265 -6.29175,5.75004 -3.85207,1.87819 -19.1313,6.98134 -24.23348,8.09379 -4.40603,0.96067 -15.32535,1.36783 -19.41633,0.724 z M 729.51864,709.95722 c 0.16967,-1.90201 0.43902,-53.64414 0.59855,-114.98252 l 0.29007,-111.52431 -1.72037,0.528 c -4.64414,1.42533 -8.59936,5.95132 -9.6676,11.06274 -0.33803,1.61742 -0.63139,4.78515 -0.6519,7.03939 -0.11403,12.53218 -0.0468,181.25138 0.0741,185.97472 0.18392,7.18555 1.15643,11.86637 3.42158,16.46862 1.66849,3.38998 5.95389,8.89157 6.92597,8.89157 0.23163,0 0.55996,-1.55619 0.72964,-3.45821 z m 16.78803,-124.70451 c 26.26092,-11.54409 39.55068,-21.3934 46.23378,-34.26476 3.02692,-5.82973 4.1417,-10.12613 5.18775,-19.99382 0.73162,-6.90164 0.77957,-9.18775 0.29302,-13.97178 -2.33358,-22.94478 -16.66232,-43.42203 -37.83074,-54.06404 l -3.17685,-1.5971 -3.90841,3.45286 c -3.31848,2.93168 -9.746,7.77986 -12.72834,9.60079 -0.71821,0.43851 -0.91149,2.35759 -1.34163,13.3205 -0.53823,13.71794 -0.72017,100.67227 -0.21064,100.67227 0.16783,0 3.53476,-1.41971 7.48206,-3.15492 z" id="path373"/>
  </g>
  <path style="fill:#000000;stroke:#000000;stroke-width:0.72454;stroke-opacity:1" d="M 499.2357,739.0188 C 480.773,736.00569 458.04162,725.9887 441.01034,713.36078 384.78935,671.67546 365.9941,583.56576 398.53067,514.22163 c 14.40091,-30.69218 39.59563,-55.25367 69.19006,-67.45106 3.76909,-1.55344 9.46123,-3.99883 12.64921,-5.43421 6.5943,-2.96906 10.06857,-3.34921 11.20488,-1.22602 1.43342,2.67838 0.76173,3.5627 -5.06368,6.66661 -23.14785,12.33369 -42.56041,36.32728 -52.73009,65.17349 -5.87055,16.65176 -8.76714,33.49785 -9.348,54.36636 -0.86241,30.98386 3.99676,57.68834 15.04457,82.68024 4.01689,9.08684 5.20383,10.70108 7.85691,10.68543 4.23031,-0.025 3.9451,4.73863 4.25828,-71.12268 l 0.28812,-69.78924 -3.46426,-1.46978 -3.46427,-1.4698 7.87977,-7.11516 c 11.52537,-10.40701 23.48473,-20.23976 47.08935,-38.71591 11.55037,-9.04086 26.16685,-20.67649 32.48106,-25.85695 6.31422,-5.18047 12.51398,-10.00878 13.77725,-10.72958 3.96923,-2.2648 8.14297,-1.26751 20.41035,4.87694 5.97746,2.99397 14.45457,6.65388 18.83804,8.13315 6.88618,2.32385 8.90591,2.6965 14.85307,2.74042 10.77938,0.0796 17.34488,-3.03603 20.87885,-9.90805 l 1.39544,-2.71349 1.90457,1.49813 c 3.18709,2.50697 2.59741,4.94934 -3.48506,14.43468 -1.66098,2.59023 -3.58281,6.126 -4.27074,7.85725 -5.92769,14.91791 -21.57631,25.73461 -35.52634,24.55666 -6.07032,-0.51258 -9.0818,-1.68837 -19.44139,-7.59066 -4.90198,-2.79286 -12.7437,-7.1042 -17.42604,-9.58076 l -8.51334,-4.50283 V 588.9867 714.75859 l 2.35475,-0.006 c 10.08942,-0.0255 25.29259,-3.42245 35.52414,-7.93747 18.98219,-8.37653 38.47292,-27.13893 46.61155,-44.86977 l 1.96629,-4.28377 2.40149,1.55937 c 2.87442,1.86645 2.91534,1.63927 -2.25403,12.51364 -15.93373,33.51844 -47.98258,58.32997 -85.51738,66.20574 -9.68107,2.03134 -28.50537,2.57055 -37.64835,1.07841 z m 28.43982,-115.00963 c 0.19573,-84.38789 -0.57087,-163.07916 -1.5987,-164.10699 -0.79746,-0.79746 -5.50487,1.94323 -9.07745,5.28496 -4.88442,4.56881 -6.82217,9.25399 -6.8788,16.63188 -0.0245,3.18797 0.037,56.20276 0.13664,117.81064 l 0.18113,112.01433 5.25292,1.1851 c 2.8891,0.6518 6.39406,1.30041 7.7888,1.44135 1.39474,0.14093 2.86193,0.30806 3.26043,0.3714 0.47884,0.0761 0.79592,-30.65821 0.93503,-90.63267 z M 502.46841,594.1227 c 0,-63.56026 -0.1735,-115.56411 -0.38555,-115.56411 -0.21204,0 -1.45842,0.44828 -2.76972,0.99617 -5.09722,2.12976 -9.58147,7.54432 -11.45896,13.83627 -0.37275,1.24916 -0.63329,33.88918 -0.6049,75.78154 l 0.0499,73.58729 -3.4646,1.62406 c -6.29656,2.95157 -28.69207,18.42752 -30.43571,21.03197 -2.58581,3.86236 -2.1732,5.40964 2.88016,10.80082 14.5142,15.48446 21.94958,21.39798 36.25434,28.83386 4.86654,2.52971 9.0928,4.60775 9.39167,4.61786 0.29887,0.0101 0.54341,-51.98547 0.54341,-115.54573 z" id="path372"/>
  <path style="fill:#000000;stroke:#000000;stroke-width:0.36227;stroke-opacity:1" d="m 1114.0486,497.80637 c -0.9586,-0.26954 -1.9294,-0.67658 -2.1573,-0.90452 -0.6591,-0.65908 2.4785,-11.10985 12.2023,-40.64428 l 4.2412,-12.88201 2.2416,0.27407 c 8.4909,1.03813 23.137,1.07455 32.4696,0.0807 l 2.333,-0.24845 -1.0276,1.77959 c -1.6857,2.91931 -5.3783,8.06023 -8.5923,11.96249 -6.9919,8.48915 -13.3169,16.01001 -15.5699,18.51354 -1.3255,1.47303 -3.6745,4.50361 -5.2199,6.73462 -4.5851,6.61916 -7.7186,10.6537 -9.5166,12.25329 -3.3403,2.97152 -7.6513,4.13618 -11.4041,3.08092 z" id="path414" sodipodi:nodetypes="cccccccccccccc"/>
  <path style="fill:#000000;stroke:#000000;stroke-width:0.36227;stroke-opacity:1" d="m 1132.0524,740.26419 c -15.972,-12.57233 -24.3274,-27.68946 -23.1075,-41.80775 0.3995,-4.62342 0.3908,-78.15368 -0.01,-85.85797 -0.2299,-4.41752 -0.1502,-7.95071 0.3349,-14.85307 1.4117,-20.08606 0.5366,-28.81523 -3.637,-36.27841 -1.4682,-2.62534 -4.4606,-6.36207 -5.7948,-7.23631 -1.0625,-0.69618 -1.3344,-0.55572 -5.5256,2.8545 -6.9086,5.62137 -9.9236,6.01942 -11.4722,1.51466 l -0.4666,-1.35705 6.3843,-4.7822 c 9.3118,-6.97505 17.5304,-13.67181 33.001,-26.89023 l 1.3695,-1.17013 3.9393,2.59417 c 5.0703,3.339 11.5275,9.6697 14.4285,14.14578 4.2733,6.59358 6.0516,12.24537 6.0699,19.29142 0.01,2.39098 -0.1655,5.09257 -0.3816,6.00354 -0.2737,1.15367 -0.4045,20.61241 -0.431,64.12178 -0.043,71.18457 -0.3012,65.24956 3.1475,72.4279 2.4855,5.1735 3.4143,6.41407 5.4891,7.33183 3.0325,1.34143 6.5631,0.25952 11.6561,-3.57183 1.4246,-1.07176 2.6455,-1.94865 2.7131,-1.94865 0.068,0 0.5483,0.72608 1.0684,1.61351 0.5201,0.88743 1.3051,1.8653 1.7444,2.17305 0.7971,0.5583 0.7941,0.56441 -1.364,2.76328 -3.1292,3.18847 -10.7299,9.76575 -20.2763,17.54631 -7.2384,5.89949 -11.377,9.40272 -15.0753,12.76101 l -0.9469,0.85975 z" id="path415"/>
  <path style="fill:#000000;stroke:#000000;stroke-width:0.36227;stroke-opacity:1" d="m 1025.7582,738.90185 c -14.5443,-12.49188 -21.4559,-23.64184 -22.3859,-36.11339 l -0.2468,-3.31099 -8.69452,6.84422 c -4.78196,3.76431 -15.21533,11.83523 -23.18527,17.93535 -7.96994,6.10013 -15.39469,11.94007 -16.49944,12.97763 -6.43742,6.04594 -12.67702,5.35258 -25.16161,-2.796 -8.89418,-5.80515 -14.46374,-11.08744 -19.22289,-18.23141 -10.00642,-15.02065 -13.54482,-33.97821 -12.49049,-66.91987 0.21858,-6.82926 0.55876,-17.30748 0.75596,-23.28494 0.2528,-7.66267 0.23869,-13.37901 -0.0478,-19.38144 -0.24122,-5.05352 -0.31238,-12.93014 -0.17512,-19.38144 0.31395,-14.75565 -0.14215,-17.6459 -3.9567,-25.07304 -2.72778,-5.31112 -4.80104,-6.98785 -8.64043,-6.98785 -2.96752,0 -6.42506,1.42606 -11.78475,4.86062 -4.23437,2.71344 -3.9461,2.66921 -4.80098,0.7366 -1.58214,-3.57669 0.0878,-5.79766 8.48127,-11.28013 3.14544,-2.05453 6.40587,-4.43967 7.2454,-5.3003 0.83953,-0.86063 4.70534,-3.98184 8.59068,-6.93601 7.66022,-5.82436 9.85301,-7.60267 13.29459,-10.78165 l 2.24535,-2.07403 2.28302,1.28483 c 6.67521,3.75663 14.08165,11.07014 20.28811,20.03355 l 1.85535,2.67952 0.65152,5.10928 c 1.3714,10.75465 1.56826,15.00913 1.57745,34.09088 0.0152,31.5909 -0.38541,60.8766 -0.88459,64.66519 -0.57453,4.36052 -0.2913,15.25759 0.51318,19.74371 1.9031,10.61259 5.2594,18.47128 10.82407,25.34433 4.87564,6.02199 11.66453,10.50268 19.26254,12.71334 4.35121,1.266 6.31072,1.28732 9.15774,0.0997 4.68137,-1.95287 7.80414,-4.19034 15.84,-11.34937 3.13113,-2.78948 6.64792,-5.78214 7.81508,-6.65035 1.16716,-0.86822 2.20098,-1.84635 2.29738,-2.17362 0.3478,-1.18108 1.284,-12.34232 1.63,-19.43308 0.2054,-4.21075 0.3001,-26.28785 0.226,-52.71028 -0.1144,-40.8073 -0.1896,-45.75946 -0.7337,-48.34044 -0.7205,-3.41695 -1.94941,-6.80018 -3.31934,-9.13778 -1.0917,-1.86285 -4.71293,-5.88547 -6.34322,-7.04635 l -1.03314,-0.73565 -1.9003,0.87582 c -1.04517,0.48171 -3.61203,2.15517 -5.70414,3.71882 -5.79077,4.32803 -10.14356,6.33921 -10.14356,4.68678 0,-0.30332 -0.65208,-1.25893 -1.44908,-2.12356 -0.79699,-0.86464 -1.44908,-1.80775 -1.44908,-2.09581 0,-0.28806 0.67832,-0.82301 1.50736,-1.18879 2.16719,-0.95616 8.07656,-5.00788 13.52684,-9.27458 2.59023,-2.02774 6.63548,-4.95686 8.98945,-6.50916 2.35396,-1.55229 6.47821,-4.75329 9.16511,-7.11333 8.0403,-7.06234 11.7942,-8.83635 15.1017,-7.13677 6.57,3.37608 12.8338,9.74395 16.5219,16.7963 4.6818,8.95262 6.4285,17.99745 6.0168,31.15658 -0.1277,4.08214 -0.3032,32.0383 -0.3899,62.12482 -0.1396,48.3955 -0.093,55.05286 0.4057,57.73918 0.7161,3.85895 1.9642,6.97387 3.7271,9.30128 0.7631,1.00753 1.9301,2.8499 2.5932,4.09415 1.3832,2.59512 2.6984,3.83945 4.688,4.43557 2.8036,0.83996 4.4533,0.23827 14.8728,-5.42435 1.4944,-0.81214 2.8258,-1.4809 2.9588,-1.48614 0.1329,-0.005 0.5219,0.72406 0.8643,1.62068 0.5887,1.54149 0.5887,1.71906 -8e-4,3.26263 -0.8636,2.26112 -3.0509,4.31579 -8.8286,8.29325 -2.7258,1.87654 -5.944,4.36421 -7.1514,5.52816 -1.9517,1.88148 -9.409,7.89681 -16.0852,12.97487 -2.3924,1.81974 -8.2658,5.62468 -8.6824,5.62468 -0.1241,0 -2.0962,-1.60667 -4.3826,-3.57039 z" id="path416"/>
  <path style="fill:#000000;stroke:#000000;stroke-width:0.36227;stroke-opacity:1" d="m 1277.3638,615.66829 c -5.7782,-0.96317 -12.9511,-2.02653 -15.9399,-2.36303 -2.9887,-0.3365 -5.497,-0.66898 -5.574,-0.73886 -0.2718,-0.2468 6.3304,-10.27161 15.4668,-23.48489 9.5442,-13.80293 16.0095,-23.57746 16.0095,-24.2038 0,-0.19721 -0.3668,-0.26648 -0.8152,-0.15395 -4.4625,1.12003 -16.9949,1.14796 -26.1739,0.0583 -6.7685,-0.80348 -27.3167,-4.37848 -31.1552,-5.42042 -14.628,-3.9707 -28.9407,4.84192 -32.8337,20.21647 -0.9115,3.59973 -0.9288,3.6059 -4.0595,1.45236 -0.9734,-0.66961 -1.9961,-1.21747 -2.2726,-1.21747 -0.2765,0 -0.5028,-0.0579 -0.5028,-0.12858 0,-0.50095 6.2771,-15.74716 8.1447,-19.78232 5.4069,-11.68239 12.0692,-21.75933 18.3501,-27.7549 1.9494,-1.86077 2.8012,-2.37965 5.5119,-3.3573 4.9535,-1.78655 8.9328,-2.35118 14.9073,-2.1152 6.1403,0.24253 10.1858,0.96395 22.4662,4.00626 15.2942,3.78895 16.3595,3.96309 30.0629,4.9138 19.0792,1.32367 26.7168,1.28436 35.2549,-0.18144 7.6664,-1.31614 15.7382,-4.6397 21.0163,-8.65347 1.4603,-1.11053 2.8219,-1.9161 3.0257,-1.79016 0.6644,0.41063 1.3834,2.61759 1.3834,4.24634 0,2.21021 -1.7966,5.60708 -5.7525,10.87643 -1.7735,2.3624 -3.6575,5.17951 -4.1867,6.26025 -1.4817,3.02602 -27.1663,42.53511 -34.2343,52.66059 -0.765,1.09587 -2.3302,3.70421 -3.4782,5.79632 -5.0624,9.22555 -8.6145,12.74958 -12.7452,12.64464 -0.7536,-0.0191 -6.0978,-0.82284 -11.876,-1.78601 z" id="path417"/>
  <path style="fill:#000000;stroke:#000000;stroke-width:0.36227;stroke-opacity:1" d="m 1278.6317,641.37979 c -4.4993,-0.42525 -8.5193,-1.07252 -18.9617,-3.05306 -11.454,-2.17236 -15.9357,-2.72412 -22.127,-2.72412 -7.5046,0 -13.0866,1.1493 -18.2209,3.75163 -1.0394,0.52683 -2.128,0.95788 -2.419,0.95788 -0.8104,0 -2.0309,-1.78193 -2.0309,-2.96501 0,-1.67101 0.8722,-2.9657 4.8996,-7.27323 2.0729,-2.21721 4.1417,-4.73814 4.5971,-5.60205 0.7486,-1.42004 1.0524,-1.64027 3.1661,-2.29528 5.9232,-1.8355 13.9241,-2.2883 21.9179,-1.2404 2.3029,0.30189 9.3535,1.60917 15.6679,2.90506 14.494,2.9746 19.277,3.5811 26.1904,3.32106 6.4624,-0.24306 10.9087,-1.29597 16.0172,-3.79287 3.7813,-1.84816 3.911,-1.83492 3.9041,0.3985 -0.01,2.51692 -1.7549,5.10403 -7.958,11.78385 -2.7154,2.92414 -3.324,3.39114 -5.2581,4.03475 -5.0778,1.68979 -12.8613,2.40985 -19.3847,1.79329 z" id="path418"/>
  <path style="fill:#000000;stroke:#000000;stroke-width:0.36227;stroke-opacity:1" d="m 1176.7075,738.68219 c -0.7228,-0.49055 -1.7338,-1.11173 -2.2466,-1.38042 l -0.9324,-0.48851 2.4884,-3.78194 c 1.3686,-2.08006 5.0722,-7.85747 8.2301,-12.83868 16.3684,-25.81914 20.6935,-32.56449 25.6676,-40.03083 8.5279,-12.8008 14.8514,-21.59434 22.0875,-30.71548 l 3.2437,-4.08863 2.221,0.22941 c 1.2215,0.12618 5.2368,0.62967 8.9229,1.11887 13.0391,1.73049 14.712,1.93443 18.597,2.26721 2.1588,0.18492 4.0119,0.42303 4.118,0.52914 0.2893,0.2893 -4.549,8.22875 -8.3499,13.70186 -1.8416,2.65187 -6.124,8.65258 -9.5163,13.33492 -8.092,11.16933 -13.5433,19.4329 -13.5433,20.5304 0,0.20659 1.1379,0.13567 2.8076,-0.17501 1.8034,-0.33553 5.2696,-0.52534 9.6908,-0.53065 8.4049,-0.0101 12.7387,0.59121 28.4381,3.94576 6.0771,1.29851 13.352,2.75204 16.1664,3.23007 2.8144,0.47803 5.9301,1.18959 6.9238,1.58124 0.9936,0.39166 3.0448,0.96788 4.5583,1.28049 15.3392,3.16839 30.006,-7.25533 34.2305,-24.3276 1.0508,-4.24629 1.1284,-4.30026 4.0542,-2.81767 0.983,0.49812 2.0372,0.90567 2.3427,0.90567 0.3055,0 0.5554,0.067 0.5554,0.14883 0,0.0819 -1.1618,3.22002 -2.5818,6.9737 -5.3917,14.25223 -9.8934,23.73978 -14.8094,31.21117 -3.732,5.67202 -5.5288,7.92104 -9.7004,12.14203 -3.0085,3.04409 -3.9941,3.79271 -6.7806,5.15067 -4.8623,2.36951 -8.6784,3.18861 -14.8531,3.18807 -7.1808,-6.3e-4 -12.4431,-1.03719 -27.3513,-5.38772 -8.6737,-2.53114 -14.5965,-3.95931 -18.657,-4.49875 -1.7932,-0.23823 -5.7057,-0.82831 -8.6944,-1.31127 -10.7181,-1.732 -15.1525,-2.11411 -24.6344,-2.12273 -7.8965,-0.007 -9.6592,0.0992 -13.7594,0.83066 -10.3765,1.85103 -18.2467,5.52679 -23.7231,11.0798 -2.2744,2.30617 -3.173,2.49862 -5.2106,1.11592 z" id="path419"/>
</svg>