<?xml version="1.0" encoding="UTF-8" standalone="no"?>
<svg
   viewBox="0 0 1628 1572"
   width="1628"
   height="1572"
   version="1.1"
   id="svg40"
   sodipodi:docname="Screenshot 2025-05-23 063436_upscayl_5x_digital-art-4x.svg"
   inkscape:version="1.4 (86a8ad7, 2024-10-11)"
   xmlns:inkscape="http://www.inkscape.org/namespaces/inkscape"
   xmlns:sodipodi="http://sodipodi.sourceforge.net/DTD/sodipodi-0.dtd"
   xmlns="http://www.w3.org/2000/svg"
   xmlns:svg="http://www.w3.org/2000/svg">
  <defs
     id="defs40" />
  <sodipodi:namedview
     id="namedview40"
     pagecolor="#ffffff"
     bordercolor="#000000"
     borderopacity="0.25"
     inkscape:showpageshadow="2"
     inkscape:pageopacity="0.0"
     inkscape:pagecheckerboard="0"
     inkscape:deskcolor="#d1d1d1"
     inkscape:zoom="0.51844784"
     inkscape:cx="751.28098"
     inkscape:cy="1040.6061"
     inkscape:window-width="1920"
     inkscape:window-height="1017"
     inkscape:window-x="-8"
     inkscape:window-y="-8"
     inkscape:window-maximized="1"
     inkscape:current-layer="g23" />
  <g
     fill="None"
     fill-opacity="0"
     stroke="#77c6e1"
     stroke-opacity="1"
     stroke-width="0.3"
     id="g2"
     transform="translate(0,-8)">
    <path
       d="m 14,51 c -3.69,-7.23 -6.94,3.44 0,0 z"
       id="path2" />
  </g>
  <g
     fill="None"
     fill-opacity="0"
     stroke="#77c6e1"
     stroke-opacity="1"
     stroke-width="0.3"
     id="g4"
     transform="translate(0,-8)">
    <path
       d="m 1225,172 c -9.53,34.65 -13.43,72.67 -23,108 -34.4,6.51 -69.3,13.23 -103,21 23.5,5.23 47.22,9.61 70.93,14.07 10.24,4.75 24.99,2.12 33.09,8.91 7.2,34.9 13.68,70.5 20.98,105.02 7.67,-35.35 13.8,-72.15 21,-108 35.97,-5.55 71.61,-12.33 107,-20 -35.21,-7.34 -71.6,-14 -107,-22 -6.28,-35.78 -15.15,-70.88 -20,-107 z"
       id="path4" />
  </g>
  <g
     fill="None"
     fill-opacity="0"
     stroke="#77c6e1"
     stroke-opacity="1"
     stroke-width="0.3"
     id="g5"
     transform="translate(0,-8)">
    <path
       d="m 374,180 c -7.55,39.25 -15.57,77.95 -23,117 -25.82,4.45 -51.43,9.68 -77,15 -12.15,2.26 -27.1,3.14 -37,8 38.37,6.34 76.03,15.29 114,23 6.98,39.42 16.59,77.5 22,117 10.48,-38.11 15.55,-78.91 24,-118 38.19,-6.41 76.66,-13.72 114,-22 -18.78,-4.36 -38.79,-7.88 -57.99,-12.01 C 434.6,303.16 414.03,302.06 397,295 389.33,256.66 381.96,218.23 374,180 Z"
       id="path5" />
  </g>
  <g
     fill="None"
     fill-opacity="0"
     stroke="#77c6e1"
     stroke-opacity="1"
     stroke-width="0.3"
     id="g6"
     transform="translate(0,-8)">
    <path
       d="m 35,301 c -4.11,-1.19 -5.91,2.49 -5,6 4.14,1.23 4.9,-2.96 5,-6 z"
       id="path6" />
  </g>
  <g
     fill="None"
     fill-opacity="0"
     stroke="#77c6e1"
     stroke-opacity="1"
     stroke-width="0.3"
     id="g7"
     transform="translate(0,-8)">
    <path
       d="M 639,649 C 581.98,588.63 519.74,531.27 459.25,471.75 c -10.59,-6.98 -20.07,-27.68 -33.5,-21 -9.99,12.61 13.21,21.81 19.5,32 59.33,59.06 121.34,117.19 180.75,176.25 5.53,-1.49 8.28,-7.31 13,-10 z"
       id="path7" />
  </g>
  <g
     fill="None"
     fill-opacity="0"
     stroke="#77c6e1"
     stroke-opacity="1"
     stroke-width="0.3"
     id="g8"
     transform="translate(0,-8)">
    <path
       d="m 967,659 c 60.34,-57.69 123.52,-118.16 182.25,-175.75 6.84,-10.73 29.52,-19.56 20.45,-32.95 -14.61,-7.02 -22.76,14.71 -34.4,21 -57.4,59.66 -122.83,116.11 -180.3,176.7 4.43,2.98 7.53,7.97 12,11 z"
       id="path8" />
  </g>
  <g
     fill="None"
     fill-opacity="0"
     stroke="#77c6e1"
     stroke-opacity="1"
     stroke-width="0.3"
     id="g9"
     transform="translate(0,-8)">
    <path
       d="m 556,467 c -20.28,2.31 0.41,20.86 5.25,29.75 24.05,31.19 45.38,63.23 70.07,93.91 19.5,-2.99 0.04,-20.96 -5.55,-29.43 C 602.35,529.9 580.36,497.8 556,467 Z"
       id="path9" />
  </g>
  <g
     fill="None"
     fill-opacity="0"
     stroke="#77c6e1"
     stroke-opacity="1"
     stroke-width="0.3"
     id="g10"
     transform="translate(0,-8)">
    <path
       d="m 1049,473 c -10.48,-15.58 -21.23,7.48 -27.25,15.75 -24,31.21 -48.2,62.65 -69.67,95.17 10.61,15.72 20.52,-7.81 27.17,-15.67 23.67,-31.79 47.45,-62.85 69.75,-95.25 z"
       id="path10" />
  </g>
  <g
     fill="None"
     fill-opacity="0"
     stroke="#f7fdfd"
     stroke-opacity="1"
     stroke-width="0.3"
     id="g11"
     transform="translate(0,-8)">
    <path
       d="m 835,784 c -8.97,-57.76 -16.18,-115.96 -24,-174 -5.15,-28 -6.45,-58.08 -13,-85 -11.17,86.52 -23.85,172.72 -36,259 -41.39,5.84 -82.68,12.01 -124,18 -41.02,5.59 -83.19,9.46 -123,18 65.73,8.4 133.04,17.79 199,28 15.62,3.19 35.17,1.54 48,9 12.19,82.64 23.13,166.18 37,248 12.79,-82.65 22.82,-167.06 36,-250 82.57,-12.19 165.53,-24.84 248,-36 -82.29,-13.19 -165.32,-23.45 -248,-35 z"
       id="path11" />
  </g>
  <g
     fill="None"
     fill-opacity="0"
     stroke="#77c6e1"
     stroke-opacity="1"
     stroke-width="0.3"
     id="g12"
     transform="translate(0,-8)">
    <path
       d="m 460,580 c -15.47,10.09 4.89,18.67 13.31,24.7 32.03,19.12 62.58,41.9 94.68,60.29 17.16,-7.71 -5.69,-19.04 -13.76,-24.22 C 522.97,620.22 492.26,598.88 460,580 Z"
       id="path12" />
  </g>
  <g
     fill="None"
     fill-opacity="0"
     stroke="#77c6e1"
     stroke-opacity="1"
     stroke-width="0.3"
     id="g13"
     transform="translate(0,-8)">
    <path
       d="m 1136,580 c -33.06,17.78 -64.08,40.59 -95.92,61.08 -7.41,6.35 -30.49,13.05 -16.76,24.58 11.94,-3.06 22.24,-12.74 32.99,-19.35 21.32,-13.13 41.82,-27.62 62.99,-41.01 7.53,-6.28 30.31,-14.14 16.7,-25.3 z"
       id="path13" />
  </g>
  <g
     fill="None"
     fill-opacity="0"
     stroke="#77c6e1"
     stroke-opacity="1"
     stroke-width="0.3"
     id="g14"
     transform="translate(0,-8)">
    <path
       d="m 569,948 c -32.1,19.27 -62.81,41.47 -94.77,61.23 -7.49,6.11 -30.51,14.54 -14.92,24.42 32.9,-16.68 63.58,-40.3 95.44,-59.9 8.28,-6.62 29.53,-14.73 14.25,-25.75 z"
       id="path14" />
  </g>
  <g
     fill="None"
     fill-opacity="0"
     stroke="#77c6e1"
     stroke-opacity="1"
     stroke-width="0.3"
     id="g15"
     transform="translate(0,-8)">
    <path
       d="m 1028,949 c -13.26,1.48 -8.36,15.63 1.92,18.08 30.37,19.51 60.41,39.74 90.85,59.15 5.32,6.91 20.95,11.71 19.15,-2.15 C 1104.07,997.1 1064.99,974.15 1028,949 Z"
       id="path15" />
  </g>
  <g
     fill="None"
     fill-opacity="0"
     stroke="#77c6e1"
     stroke-opacity="1"
     stroke-width="0.3"
     id="g16"
     transform="translate(0,-8)">
    <path
       d="m 638,968 c -3.22,-9.76 -13.28,-15.7 -19.75,-4.75 -65.8,64.04 -131.53,125.12 -195.32,191.68 -2.76,11.28 14.45,14.22 18.82,3.82 C 507.19,1095.86 573.21,1032.29 638,968 Z"
       id="path16" />
  </g>
  <g
     fill="None"
     fill-opacity="0"
     stroke="#77c6e1"
     stroke-opacity="1"
     stroke-width="0.3"
     id="g17"
     transform="translate(0,-8)">
    <path
       d="M 1173,1159 C 1112.38,1089.54 1040.85,1028.69 975.75,963.25 969.7,951.39 960.01,959.83 956,968 c 59.61,58.95 118.59,115.39 179.25,174.75 11.04,8.47 25.27,35.69 37.75,16.25 z"
       id="path17" />
  </g>
  <g
     fill="None"
     fill-opacity="0"
     stroke="#77c6e1"
     stroke-opacity="1"
     stroke-width="0.3"
     id="g18"
     transform="translate(0,-8)">
    <path
       d="m 554,1147 c 26.82,-28.4 48.08,-62.76 72.25,-93.75 5.87,-8.94 24.68,-24.09 6.75,-30.25 -24.52,29.55 -47.01,61.82 -70.1,92.9 -4.82,8.83 -24.74,23.44 -8.9,31.1 z"
       id="path18" />
  </g>
  <g
     fill="None"
     fill-opacity="0"
     stroke="#77c6e1"
     stroke-opacity="1"
     stroke-width="0.3"
     id="g19"
     transform="translate(0,-8)">
    <path
       d="m 962,1023 c -15.84,2.23 -5.93,16.24 1.08,22.92 24.82,33.4 48.66,68.18 74.84,100.15 15.9,0.23 3.94,-16.03 -1.17,-22.82 C 1012.04,1089.69 988.16,1055.72 962,1023 Z"
       id="path19" />
  </g>
  <g
     fill="None"
     fill-opacity="0"
     stroke="#77c6e1"
     stroke-opacity="1"
     stroke-width="0.3"
     id="g20"
     transform="translate(0,-8)">
    <path
       d="m 1199,1132 c -5.77,17.97 -7.12,38.87 -12.22,57.78 -3.73,19.4 -7.88,38.83 -11.78,58.22 -38.13,6.64 -76.35,14.87 -114,22 37.62,8.93 77.18,14.38 115,24 6.23,37.13 14.71,76.35 22,114 8.7,-37.6 15.74,-76.65 23,-115 37.67,-8.69 77.12,-13.08 114,-23 -38.13,-5.59 -75.11,-15.64 -113,-22 -8.82,-38.35 -15.91,-77.2 -23,-116 z"
       id="path20" />
  </g>
  <g
     fill="#77c6e1"
     fill-opacity="1"
     stroke="None"
     id="g22"
     transform="translate(0,-8)">
    <path
       d="m 14,51 c -3.69,-7.23 -6.94,3.44 0,0 z"
       id="path22" />
  </g>
  <g
     fill="#77C6E1"
     fill-opacity="1.00"
     stroke="None"
     id="g23">
    <path
       d="m 904.22,942.22 c 0,0 6.43196,-26.19675 11.77,-28.23 C 1129.06,878.99 1344.4,845.24 1561,809 1348.41,773.6 1134.33,740.08 921.02,705.98 904.5,707.85 908.39,691.76 905,681 869.09,470.06 836.35,257.28 798,48 761.15,266.71 723.65,484.2 688,703 471.73,738.37 254.37,771.62 39,809 c 218.71,34.35 430.09,72.19 648,105 35.03,207.07 111.66215,649.6974 111.66215,649.6974 z"
       id="path23"
       sodipodi:nodetypes="ccccccccccc" />
  </g>
  <g
     fill="#77c6e1"
     fill-opacity="1"
     stroke="None"
     id="g24"
     transform="translate(0,-8)">
    <path
       d="m 1225,172 c -9.53,34.65 -13.43,72.67 -23,108 -34.4,6.51 -69.3,13.23 -103,21 23.5,5.23 47.22,9.61 70.93,14.07 10.24,4.75 24.99,2.12 33.09,8.91 7.2,34.9 13.68,70.5 20.98,105.02 7.67,-35.35 13.8,-72.15 21,-108 35.97,-5.55 71.61,-12.33 107,-20 -35.21,-7.34 -71.6,-14 -107,-22 -6.28,-35.78 -15.15,-70.88 -20,-107 z"
       id="path24" />
  </g>
  <g
     fill="#77c6e1"
     fill-opacity="1"
     stroke="None"
     id="g25"
     transform="translate(0,-8)">
    <path
       d="m 374,180 c -7.55,39.25 -15.57,77.95 -23,117 -25.82,4.45 -51.43,9.68 -77,15 -12.15,2.26 -27.1,3.14 -37,8 38.37,6.34 76.03,15.29 114,23 6.98,39.42 16.59,77.5 22,117 10.48,-38.11 15.55,-78.91 24,-118 38.19,-6.41 76.66,-13.72 114,-22 -18.78,-4.36 -38.79,-7.88 -57.99,-12.01 C 434.6,303.16 414.03,302.06 397,295 389.33,256.66 381.96,218.23 374,180 Z"
       id="path25" />
  </g>
  <g
     fill="#77c6e1"
     fill-opacity="1"
     stroke="None"
     id="g26"
     transform="translate(0,-8)">
    <path
       d="m 35,301 c -4.11,-1.19 -5.91,2.49 -5,6 4.14,1.23 4.9,-2.96 5,-6 z"
       id="path26" />
  </g>
  <g
     fill="#77c6e1"
     fill-opacity="1"
     stroke="None"
     id="g27"
     transform="translate(0,-8)">
    <path
       d="M 639,649 C 581.98,588.63 519.74,531.27 459.25,471.75 c -10.59,-6.98 -20.07,-27.68 -33.5,-21 -9.99,12.61 13.21,21.81 19.5,32 59.33,59.06 121.34,117.19 180.75,176.25 5.53,-1.49 8.28,-7.31 13,-10 z"
       id="path27" />
  </g>
  <g
     fill="#77c6e1"
     fill-opacity="1"
     stroke="None"
     id="g28"
     transform="translate(0,-8)">
    <path
       d="m 967,659 c 60.34,-57.69 123.52,-118.16 182.25,-175.75 6.84,-10.73 29.52,-19.56 20.45,-32.95 -14.61,-7.02 -22.76,14.71 -34.4,21 -57.4,59.66 -122.83,116.11 -180.3,176.7 4.43,2.98 7.53,7.97 12,11 z"
       id="path28" />
  </g>
  <g
     fill="#77c6e1"
     fill-opacity="1"
     stroke="None"
     id="g29"
     transform="translate(0,-8)">
    <path
       d="m 556,467 c -20.28,2.31 0.41,20.86 5.25,29.75 24.05,31.19 45.38,63.23 70.07,93.91 19.5,-2.99 0.04,-20.96 -5.55,-29.43 C 602.35,529.9 580.36,497.8 556,467 Z"
       id="path29" />
  </g>
  <g
     fill="#77c6e1"
     fill-opacity="1"
     stroke="None"
     id="g30"
     transform="translate(0,-8)">
    <path
       d="m 1049,473 c -10.48,-15.58 -21.23,7.48 -27.25,15.75 -24,31.21 -48.2,62.65 -69.67,95.17 10.61,15.72 20.52,-7.81 27.17,-15.67 23.67,-31.79 47.45,-62.85 69.75,-95.25 z"
       id="path30" />
  </g>
  <g
     fill="#f7fdfd"
     fill-opacity="1"
     stroke="None"
     id="g31"
     transform="translate(0,-8)">
    <path
       d="m 835,784 c -8.97,-57.76 -16.18,-115.96 -24,-174 -5.15,-28 -6.45,-58.08 -13,-85 -11.17,86.52 -23.85,172.72 -36,259 -41.39,5.84 -82.68,12.01 -124,18 -41.02,5.59 -83.19,9.46 -123,18 65.73,8.4 133.04,17.79 199,28 15.62,3.19 35.17,1.54 48,9 12.19,82.64 23.13,166.18 37,248 12.79,-82.65 22.82,-167.06 36,-250 82.57,-12.19 165.53,-24.84 248,-36 -82.29,-13.19 -165.32,-23.45 -248,-35 z"
       id="path31" />
  </g>
  <g
     fill="#77c6e1"
     fill-opacity="1"
     stroke="None"
     id="g32"
     transform="translate(0,-8)">
    <path
       d="m 460,580 c -15.47,10.09 4.89,18.67 13.31,24.7 32.03,19.12 62.58,41.9 94.68,60.29 17.16,-7.71 -5.69,-19.04 -13.76,-24.22 C 522.97,620.22 492.26,598.88 460,580 Z"
       id="path32" />
  </g>
  <g
     fill="#77c6e1"
     fill-opacity="1"
     stroke="None"
     id="g33"
     transform="translate(0,-8)">
    <path
       d="m 1136,580 c -33.06,17.78 -64.08,40.59 -95.92,61.08 -7.41,6.35 -30.49,13.05 -16.76,24.58 11.94,-3.06 22.24,-12.74 32.99,-19.35 21.32,-13.13 41.82,-27.62 62.99,-41.01 7.53,-6.28 30.31,-14.14 16.7,-25.3 z"
       id="path33" />
  </g>
  <g
     fill="#77c6e1"
     fill-opacity="1"
     stroke="None"
     id="g34"
     transform="translate(0,-8)">
    <path
       d="m 569,948 c -32.1,19.27 -62.81,41.47 -94.77,61.23 -7.49,6.11 -30.51,14.54 -14.92,24.42 32.9,-16.68 63.58,-40.3 95.44,-59.9 8.28,-6.62 29.53,-14.73 14.25,-25.75 z"
       id="path34" />
  </g>
  <g
     fill="#77c6e1"
     fill-opacity="1"
     stroke="None"
     id="g35"
     transform="translate(0,-8)">
    <path
       d="m 1028,949 c -13.26,1.48 -8.36,15.63 1.92,18.08 30.37,19.51 60.41,39.74 90.85,59.15 5.32,6.91 20.95,11.71 19.15,-2.15 C 1104.07,997.1 1064.99,974.15 1028,949 Z"
       id="path35" />
  </g>
  <g
     fill="#77c6e1"
     fill-opacity="1"
     stroke="None"
     id="g36"
     transform="translate(0,-8)">
    <path
       d="m 638,968 c -3.22,-9.76 -13.28,-15.7 -19.75,-4.75 -65.8,64.04 -131.53,125.12 -195.32,191.68 -2.76,11.28 14.45,14.22 18.82,3.82 C 507.19,1095.86 573.21,1032.29 638,968 Z"
       id="path36" />
  </g>
  <g
     fill="#77c6e1"
     fill-opacity="1"
     stroke="None"
     id="g37"
     transform="translate(0,-8)">
    <path
       d="M 1173,1159 C 1112.38,1089.54 1040.85,1028.69 975.75,963.25 969.7,951.39 960.01,959.83 956,968 c 59.61,58.95 118.59,115.39 179.25,174.75 11.04,8.47 25.27,35.69 37.75,16.25 z"
       id="path37" />
  </g>
  <g
     fill="#77c6e1"
     fill-opacity="1"
     stroke="None"
     id="g38"
     transform="translate(0,-8)">
    <path
       d="m 554,1147 c 26.82,-28.4 48.08,-62.76 72.25,-93.75 5.87,-8.94 24.68,-24.09 6.75,-30.25 -24.52,29.55 -47.01,61.82 -70.1,92.9 -4.82,8.83 -24.74,23.44 -8.9,31.1 z"
       id="path38" />
  </g>
  <g
     fill="#77c6e1"
     fill-opacity="1"
     stroke="None"
     id="g39"
     transform="translate(0,-8)">
    <path
       d="m 962,1023 c -15.84,2.23 -5.93,16.24 1.08,22.92 24.82,33.4 48.66,68.18 74.84,100.15 15.9,0.23 3.94,-16.03 -1.17,-22.82 C 1012.04,1089.69 988.16,1055.72 962,1023 Z"
       id="path39" />
  </g>
  <g
     fill="#77c6e1"
     fill-opacity="1"
     stroke="None"
     id="g40"
     transform="translate(0,-8)">
    <path
       d="m 1199,1132 c -5.77,17.97 -7.12,38.87 -12.22,57.78 -3.73,19.4 -7.88,38.83 -11.78,58.22 -38.13,6.64 -76.35,14.87 -114,22 37.62,8.93 77.18,14.38 115,24 6.23,37.13 14.71,76.35 22,114 8.7,-37.6 15.74,-76.65 23,-115 37.67,-8.69 77.12,-13.08 114,-23 -38.13,-5.59 -75.11,-15.64 -113,-22 -8.82,-38.35 -15.91,-77.2 -23,-116 z"
       id="path40" />
  </g>
</svg>
