<svg xmlns:inkscape="http://www.inkscape.org/namespaces/inkscape" xmlns:sodipodi="http://sodipodi.sourceforge.net/DTD/sodipodi-0.dtd" xmlns="http://www.w3.org/2000/svg" xmlns:svg="http://www.w3.org/2000/svg" version="1.1" id="svg202" sodipodi:docname="Screenshot 2025-05-23 062513_upscayl_5x_digital-art-4x (1).svg" inkscape:version="1.4 (86a8ad7, 2024-10-11)" viewBox="92.85 50.85 1315.3 1553.55">
  <defs id="defs202"/>
  <sodipodi:namedview id="namedview202" pagecolor="#ffffff" bordercolor="#000000" borderopacity="0.25" inkscape:showpageshadow="2" inkscape:pageopacity="0.0" inkscape:pagecheckerboard="0" inkscape:deskcolor="#d1d1d1" inkscape:zoom="0.45709478" inkscape:cx="729.60798" inkscape:cy="736.17117" inkscape:window-width="1920" inkscape:window-height="1017" inkscape:window-x="-8" inkscape:window-y="-8" inkscape:window-maximized="1" inkscape:current-layer="svg202"/>
  <g fill="None" fill-opacity="0.0" stroke="#A3E6DC" stroke-opacity="1.00" stroke-width="0.3" id="g6">
    <path d=" M 589.00 333.00  C 590.68 334.13 591.78 334.83 595.00 337.00 C 592.63 334.20 595.82 330.63 598.00 329.00 C 610.54 321.05 614.02 304.67 623.70 294.70 C 636.01 286.00 651.42 280.46 658.25 265.25 C 675.47 243.35 661.01 211.96 674.25 189.25 C 692.24 164.06 707.59 137.27 724.30 111.30 C 729.56 105.60 730.89 96.95 738.08 95.08 C 747.51 86.24 754.67 94.88 752.00 106.00 C 753.75 105.17 752.66 102.56 753.00 101.00 C 753.00 95.33 753.00 89.67 753.00 84.00 C 750.73 78.91 752.62 71.84 752.00 66.00 C 751.52 62.41 750.13 55.53 756.00 56.00 C 755.78 54.05 754.92 51.85 753.00 51.00 C 730.74 92.74 708.38 134.40 681.31 173.30 C 673.68 187.66 656.22 198.38 662.07 216.93 C 666.77 234.19 660.75 252.40 652.30 267.30 C 646.59 285.35 625.07 282.34 615.75 295.75 C 606.14 307.81 600.75 322.22 589.00 333.00 Z" id="path6"/>
  </g>
  <g fill="None" fill-opacity="0.0" stroke="#8AC9C4" stroke-opacity="1.00" stroke-width="0.3" id="g7">
    <path d=" M 752.00 66.00  C 757.28 61.27 760.46 68.69 765.00 70.00 C 761.63 65.59 759.74 59.90 756.00 56.00 C 750.13 55.53 751.52 62.41 752.00 66.00 Z" id="path7"/>
  </g>
  <g fill="None" fill-opacity="0.0" stroke="#72BAB4" stroke-opacity="1.00" stroke-width="0.3" id="g13">
    <path d=" M 752.00 66.00  C 752.62 71.84 750.73 78.91 753.00 84.00 C 753.00 80.33 753.00 76.67 753.00 73.00 C 770.26 72.77 773.16 93.29 781.31 104.70 C 796.36 130.18 810.76 156.08 827.30 180.70 C 837.78 194.04 845.99 204.50 841.00 222.00 C 840.66 239.52 843.81 256.49 852.77 271.23 C 859.25 286.84 879.24 283.68 888.75 296.25 C 894.47 308.99 910.72 321.59 904.00 336.00 C 898.65 334.21 892.92 333.62 887.00 334.00 C 894.20 355.14 903.79 375.42 909.93 397.07 C 914.93 420.40 925.31 445.81 917.03 470.02 C 897.63 506.50 868.24 537.46 847.00 573.00 C 875.94 582.38 905.98 587.98 935.07 596.93 C 964.67 603.08 991.63 620.93 1022.00 621.00 C 1022.63 632.28 1039.61 632.74 1047.25 639.75 C 1075.52 655.29 1110.97 662.96 1132.32 688.68 C 1138.85 700.42 1129.64 713.49 1130.00 726.00 C 1121.51 774.49 1119.29 832.89 1139.31 879.69 C 1155.48 916.12 1128.43 950.21 1122.22 985.22 C 1121.47 996.96 1118.08 1011.84 1128.70 1019.30 C 1180.50 1035.14 1219.10 1078.19 1260.75 1111.25 C 1278.84 1121.73 1304.91 1128.56 1308.00 1153.00 C 1309.05 1164.21 1321.14 1170.73 1324.77 1181.23 C 1332.98 1213.90 1355.77 1240.30 1368.77 1271.23 C 1373.90 1280.92 1378.97 1290.68 1385.25 1299.75 C 1393.98 1309.85 1390.28 1324.15 1393.93 1336.07 C 1393.95 1347.12 1403.41 1364.54 1389.32 1370.32 C 1365.89 1379.28 1344.31 1360.04 1322.92 1353.08 C 1291.19 1339.93 1258.60 1328.47 1226.78 1315.22 C 1182.70 1307.19 1144.91 1277.31 1101.92 1265.08 C 1069.67 1252.38 1037.87 1237.55 1006.00 1226.00 C 921.15 1193.82 838.44 1154.66 754.00 1122.00 C 754.94 1120.71 755.89 1117.84 754.00 1117.00 C 754.00 1118.33 754.00 1119.67 754.00 1121.00 C 611.32 1175.43 472.10 1235.90 330.31 1292.31 C 261.68 1320.20 187.83 1350.90 123.00 1377.00 C 122.13 1377.95 120.32 1377.54 120.00 1379.00 C 121.33 1379.00 122.67 1379.00 124.00 1379.00 C 136.98 1379.59 148.02 1377.57 161.00 1378.00 C 160.96 1378.00 161.00 1377.00 161.00 1377.00 C 158.14 1375.07 171.54 1376.38 175.00 1376.00 C 186.89 1373.29 199.74 1374.29 212.00 1373.00 C 277.74 1371.00 342.45 1364.83 408.00 1362.00 C 419.72 1363.52 436.75 1357.75 445.00 1363.00 C 446.39 1364.38 448.27 1365.69 450.00 1367.00 C 452.50 1367.78 458.07 1372.74 459.00 1377.00 C 457.75 1376.70 457.29 1375.17 456.00 1375.00 C 457.52 1376.86 458.39 1379.39 460.00 1381.00 C 463.92 1381.36 469.59 1386.49 474.00 1388.00 C 515.95 1408.83 557.60 1430.49 598.00 1454.00 C 653.74 1448.63 708.04 1437.44 763.02 1429.02 C 817.46 1417.97 870.28 1440.26 922.00 1452.00 C 923.25 1452.30 923.71 1453.83 925.00 1454.00 C 927.86 1447.88 940.89 1445.69 947.23 1440.23 C 981.74 1424.03 1014.06 1402.36 1048.00 1386.00 C 1049.07 1388.52 1049.78 1395.47 1052.00 1395.00 C 1043.92 1383.92 1056.50 1375.86 1062.25 1367.25 C 1073.37 1360.47 1089.41 1364.96 1102.00 1365.00 C 1104.02 1363.13 1117.51 1363.67 1114.00 1365.00 C 1114.50 1366.76 1116.72 1365.72 1118.00 1366.00 C 1127.71 1363.66 1138.06 1366.17 1148.00 1366.00 C 1173.93 1367.28 1200.69 1367.84 1226.00 1370.00 C 1232.42 1371.21 1239.24 1371.09 1246.00 1371.00 C 1250.50 1371.64 1256.33 1369.70 1260.00 1372.00 C 1260.50 1372.00 1261.50 1372.00 1262.00 1372.00 C 1268.33 1372.51 1275.29 1370.98 1281.22 1372.78 C 1286.45 1373.90 1296.80 1371.59 1299.00 1374.00 C 1310.68 1374.19 1323.54 1375.06 1336.00 1376.00 C 1358.60 1377.55 1380.86 1380.53 1404.00 1380.00 C 1404.47 1378.12 1402.94 1375.07 1405.00 1374.00 C 1399.31 1352.87 1394.62 1331.45 1393.99 1309.01 C 1374.33 1278.49 1358.61 1244.50 1340.31 1212.70 C 1326.62 1195.00 1328.33 1172.35 1331.00 1151.00 C 1326.91 1127.81 1309.29 1106.18 1305.00 1084.00 C 1305.00 1084.00 1305.18 1083.43 1305.00 1083.00 C 1294.98 1066.16 1288.03 1044.02 1287.00 1023.00 C 1287.00 1022.50 1287.00 1022.00 1287.00 1022.00 C 1287.10 1007.62 1283.65 992.87 1269.25 985.75 C 1249.97 968.20 1229.66 952.24 1207.30 939.70 C 1197.84 932.79 1183.49 925.66 1179.00 916.00 C 1178.75 914.47 1176.45 913.82 1177.00 912.00 C 1175.37 909.56 1175.36 900.14 1177.00 900.00 C 1177.95 899.91 1178.18 898.74 1178.00 898.00 C 1175.92 889.95 1180.43 880.55 1180.98 871.98 C 1182.67 863.55 1182.17 852.07 1187.00 846.00 C 1187.00 846.00 1186.92 845.49 1187.00 845.00 C 1182.69 830.92 1201.42 815.59 1187.70 803.30 C 1180.95 792.16 1169.64 780.54 1167.00 769.00 C 1153.32 746.52 1142.91 722.18 1139.00 696.00 C 1142.29 680.55 1127.98 674.05 1117.00 668.00 C 1098.67 664.78 1092.75 639.79 1090.00 625.00 C 1087.05 615.18 1082.69 605.82 1080.00 596.00 C 1077.00 595.53 1074.90 589.19 1077.00 587.00 C 1074.43 582.32 1074.90 576.24 1072.00 572.00 C 1068.94 566.87 1067.41 558.29 1068.00 553.00 C 1067.93 552.65 1067.20 552.27 1067.00 552.00 C 1063.28 542.32 1049.61 541.67 1044.00 535.00 C 1042.82 535.15 1041.94 534.57 1041.00 534.00 C 1023.36 529.41 1015.31 506.27 1000.25 494.75 C 988.11 479.56 974.96 462.17 969.00 445.00 C 968.81 444.34 969.10 443.03 968.00 443.00 C 956.45 425.55 949.52 399.31 949.01 375.99 C 954.60 348.57 922.62 343.84 910.00 326.00 C 901.93 314.25 896.35 300.74 887.03 289.97 C 875.82 283.43 858.89 282.65 853.31 267.69 C 845.54 253.00 842.65 236.48 844.00 219.00 C 850.85 202.05 838.40 191.92 829.75 179.25 C 804.28 144.82 787.10 106.29 765.00 70.00 C 760.46 68.69 757.28 61.27 752.00 66.00 Z" id="path13"/>
  </g>
  <g fill="None" fill-opacity="0.0" stroke="#5BAAA7" stroke-opacity="1.00" stroke-width="0.3" id="g14">
    <path d=" M 753.00 84.00  C 753.00 89.67 753.00 95.33 753.00 101.00 C 755.32 111.76 753.34 124.49 754.00 136.00 C 755.67 157.60 755.67 182.47 754.00 204.00 C 754.00 234.67 754.00 265.33 754.00 296.00 C 755.67 324.27 755.67 355.81 754.00 384.00 C 754.00 420.33 754.00 456.67 754.00 493.00 C 755.61 497.26 755.70 504.81 754.00 509.00 C 754.00 533.33 754.00 557.67 754.00 582.00 C 754.00 604.00 754.00 626.00 754.00 648.00 C 753.33 662.50 755.33 678.32 753.00 692.00 C 753.00 718.00 753.00 744.00 753.00 770.00 C 755.25 774.42 753.39 780.83 754.00 786.00 C 754.00 796.33 754.00 806.67 754.00 817.00 C 754.00 891.67 754.00 966.33 754.00 1041.00 C 754.00 1054.00 754.00 1067.00 754.00 1080.00 C 754.00 1092.33 754.00 1104.67 754.00 1117.00 C 755.89 1117.84 754.94 1120.71 754.00 1122.00 C 838.44 1154.66 921.15 1193.82 1006.00 1226.00 C 1037.87 1237.55 1069.67 1252.38 1101.92 1265.08 C 1144.91 1277.31 1182.70 1307.19 1226.78 1315.22 C 1258.60 1328.47 1291.19 1339.93 1322.92 1353.08 C 1344.31 1360.04 1365.89 1379.28 1389.32 1370.32 C 1403.41 1364.54 1393.95 1347.12 1393.93 1336.07 C 1390.28 1324.15 1393.98 1309.85 1385.25 1299.75 C 1378.97 1290.68 1373.90 1280.92 1368.77 1271.23 C 1355.77 1240.30 1332.98 1213.90 1324.77 1181.23 C 1321.14 1170.73 1309.05 1164.21 1308.00 1153.00 C 1304.91 1128.56 1278.84 1121.73 1260.75 1111.25 C 1219.10 1078.19 1180.50 1035.14 1128.70 1019.30 C 1118.08 1011.84 1121.47 996.96 1122.22 985.22 C 1128.43 950.21 1155.48 916.12 1139.31 879.69 C 1119.29 832.89 1121.51 774.49 1130.00 726.00 C 1129.64 713.49 1138.85 700.42 1132.32 688.68 C 1110.97 662.96 1075.52 655.29 1047.25 639.75 C 1039.61 632.74 1022.63 632.28 1022.00 621.00 C 991.63 620.93 964.67 603.08 935.07 596.93 C 905.98 587.98 875.94 582.38 847.00 573.00 C 868.24 537.46 897.63 506.50 917.03 470.02 C 925.31 445.81 914.93 420.40 909.93 397.07 C 903.79 375.42 894.20 355.14 887.00 334.00 C 892.92 333.62 898.65 334.21 904.00 336.00 C 910.72 321.59 894.47 308.99 888.75 296.25 C 879.24 283.68 859.25 286.84 852.77 271.23 C 843.81 256.49 840.66 239.52 841.00 222.00 C 845.99 204.50 837.78 194.04 827.30 180.70 C 810.76 156.08 796.36 130.18 781.31 104.70 C 773.16 93.29 770.26 72.77 753.00 73.00 C 753.00 76.67 753.00 80.33 753.00 84.00 Z" id="path14"/>
  </g>
  <g fill="None" fill-opacity="0.0" stroke="#9CD7CD" stroke-opacity="1.00" stroke-width="0.3" id="g15">
    <path d=" M 598.00 329.00  C 593.85 343.75 621.18 336.58 610.02 352.02 C 601.70 387.73 587.40 423.29 589.93 461.07 C 605.99 499.97 636.65 531.97 657.00 569.00 C 612.50 583.93 567.50 597.33 523.92 614.92 C 481.20 631.03 440.35 653.03 397.00 668.00 C 366.00 678.99 368.24 714.50 356.08 739.08 C 347.08 765.35 327.83 786.63 315.08 811.08 C 321.41 842.94 328.37 874.85 330.00 908.00 C 322.36 935.80 287.28 940.59 268.77 959.77 C 248.91 978.07 215.60 991.95 220.00 1024.00 C 212.98 1062.43 196.63 1098.09 178.75 1132.75 C 172.74 1154.53 182.61 1180.89 172.69 1201.69 C 152.26 1232.46 136.25 1265.86 119.23 1298.23 C 112.43 1317.85 109.29 1338.62 105.01 1359.01 C 104.20 1370.67 113.02 1377.69 123.00 1377.00 C 187.83 1350.90 261.68 1320.20 330.31 1292.31 C 472.10 1235.90 611.32 1175.43 754.00 1121.00 C 754.00 1119.67 754.00 1118.33 754.00 1117.00 C 754.00 1104.67 754.00 1092.33 754.00 1080.00 C 752.34 1068.07 752.33 1052.86 754.00 1041.00 C 754.00 966.33 754.00 891.67 754.00 817.00 C 751.69 807.58 753.65 796.18 753.00 786.00 C 753.00 780.67 753.00 775.33 753.00 770.00 C 753.00 744.00 753.00 718.00 753.00 692.00 C 753.00 677.33 753.00 662.67 753.00 648.00 C 753.67 626.16 751.67 603.01 754.00 582.00 C 754.00 557.67 754.00 533.33 754.00 509.00 C 754.00 503.67 754.00 498.33 754.00 493.00 C 754.00 456.67 754.00 420.33 754.00 384.00 C 754.00 354.67 754.00 325.33 754.00 296.00 C 754.00 265.33 754.00 234.67 754.00 204.00 C 754.00 181.33 754.00 158.67 754.00 136.00 C 753.34 124.49 755.32 111.76 753.00 101.00 C 752.66 102.56 753.75 105.17 752.00 106.00 C 754.67 94.88 747.51 86.24 738.08 95.08 C 730.89 96.95 729.56 105.60 724.30 111.30 C 707.59 137.27 692.24 164.06 674.25 189.25 C 661.01 211.96 675.47 243.35 658.25 265.25 C 651.42 280.46 636.01 286.00 623.70 294.70 C 614.02 304.67 610.54 321.05 598.00 329.00 Z" id="path15"/>
  </g>
  <g fill="None" fill-opacity="0.0" stroke="#72BAB4" stroke-opacity="1.00" stroke-width="0.3" id="g16">
    <path d=" M 754.00 204.00  C 755.67 182.47 755.67 157.60 754.00 136.00 C 754.00 158.67 754.00 181.33 754.00 204.00 Z" id="path16"/>
  </g>
  <g fill="None" fill-opacity="0.0" stroke="#60A6A6" stroke-opacity="1.00" stroke-width="0.3" id="g19">
    <path d=" M 754.00 384.00  C 755.67 355.81 755.67 324.27 754.00 296.00 C 754.00 325.33 754.00 354.67 754.00 384.00 Z" id="path19"/>
  </g>
  <g fill="None" fill-opacity="0.0" stroke="#8AC9C4" stroke-opacity="1.00" stroke-width="0.3" id="g21">
    <path d=" M 968.00 443.00  C 958.99 422.51 950.25 401.59 952.00 378.00 C 949.75 373.58 951.61 367.18 951.00 362.00 C 953.03 350.48 939.71 346.76 932.25 341.75 C 924.77 336.54 917.00 332.05 910.00 326.00 C 922.62 343.84 954.60 348.57 949.01 375.99 C 949.52 399.31 956.45 425.55 968.00 443.00 Z" id="path21"/>
  </g>
  <g fill="None" fill-opacity="0.0" stroke="#B9E5E1" stroke-opacity="1.00" stroke-width="0.3" id="g22">
    <path d=" M 589.00 333.00  C 577.84 339.55 565.55 345.09 555.33 353.33 C 560.67 411.32 535.40 467.02 492.75 503.75 C 483.55 512.99 482.26 527.72 468.75 532.75 C 458.41 540.63 443.28 542.48 435.98 553.98 C 433.14 568.20 429.72 582.31 424.92 595.92 C 412.65 619.05 411.81 650.15 390.00 667.00 C 391.23 668.39 395.69 665.31 397.00 668.00 C 440.35 653.03 481.20 631.03 523.92 614.92 C 567.50 597.33 612.50 583.93 657.00 569.00 C 636.65 531.97 605.99 499.97 589.93 461.07 C 587.40 423.29 601.70 387.73 610.02 352.02 C 621.18 336.58 593.85 343.75 598.00 329.00 C 595.82 330.63 592.63 334.20 595.00 337.00 C 591.78 334.83 590.68 334.13 589.00 333.00 Z" id="path22"/>
  </g>
  <g fill="None" fill-opacity="0.0" stroke="#60A6A6" stroke-opacity="1.00" stroke-width="0.3" id="g23">
    <path d=" M 952.00 378.00  C 951.39 372.82 953.25 366.42 951.00 362.00 C 951.61 367.18 949.75 373.58 952.00 378.00 Z" id="path23"/>
  </g>
  <g fill="None" fill-opacity="0.0" stroke="#8AC9C4" stroke-opacity="1.00" stroke-width="0.3" id="g25">
    <path d=" M 1041.00 534.00  C 1022.00 520.83 1009.14 499.13 993.00 482.00 C 992.17 481.48 989.09 479.75 991.00 479.00 C 982.75 468.25 975.92 456.36 969.00 445.00 C 974.96 462.17 988.11 479.56 1000.25 494.75 C 1015.31 506.27 1023.36 529.41 1041.00 534.00 Z" id="path25"/>
  </g>
  <g fill="None" fill-opacity="0.0" stroke="#60A6A6" stroke-opacity="1.00" stroke-width="0.3" id="g26">
    <path d=" M 993.00 482.00  C 992.83 480.71 991.30 480.25 991.00 479.00 C 989.09 479.75 992.17 481.48 993.00 482.00 Z" id="path26"/>
  </g>
  <g fill="None" fill-opacity="0.0" stroke="#60A6A6" stroke-opacity="1.00" stroke-width="0.3" id="g29">
    <path d=" M 754.00 509.00  C 755.70 504.81 755.61 497.26 754.00 493.00 C 754.00 498.33 754.00 503.67 754.00 509.00 Z" id="path29"/>
  </g>
  <g fill="None" fill-opacity="0.0" stroke="#8AC9C4" stroke-opacity="1.00" stroke-width="0.3" id="g32">
    <path d=" M 1062.00 536.00  C 1062.86 523.98 1048.18 538.24 1062.00 536.00 Z" id="path32"/>
  </g>
  <g fill="None" fill-opacity="0.0" stroke="#8AC9C4" stroke-opacity="1.00" stroke-width="0.3" id="g33">
    <path d=" M 1067.00 552.00  C 1065.86 541.60 1051.87 539.53 1044.00 535.00 C 1049.61 541.67 1063.28 542.32 1067.00 552.00 Z" id="path33"/>
  </g>
  <g fill="None" fill-opacity="0.0" stroke="#8AC9C4" stroke-opacity="1.00" stroke-width="0.3" id="g34">
    <path d=" M 1072.00 572.00  C 1070.51 565.69 1069.49 559.28 1068.00 553.00 C 1067.41 558.29 1068.94 566.87 1072.00 572.00 Z" id="path34"/>
  </g>
  <g fill="None" fill-opacity="0.0" stroke="#8AC9C4" stroke-opacity="1.00" stroke-width="0.3" id="g35">
    <path d=" M 753.00 648.00  C 753.00 647.96 754.00 648.00 754.00 648.00 C 754.00 626.00 754.00 604.00 754.00 582.00 C 751.67 603.01 753.67 626.16 753.00 648.00 Z" id="path35"/>
  </g>
  <g fill="None" fill-opacity="0.0" stroke="#8AC9C4" stroke-opacity="1.00" stroke-width="0.3" id="g36">
    <path d=" M 1080.00 596.00  C 1079.45 592.85 1077.31 590.21 1077.00 587.00 C 1074.90 589.19 1077.00 595.53 1080.00 596.00 Z" id="path36"/>
  </g>
  <g fill="None" fill-opacity="0.0" stroke="#8AC9C4" stroke-opacity="1.00" stroke-width="0.3" id="g39">
    <path d=" M 1117.00 668.00  C 1099.26 660.90 1095.92 640.79 1090.00 625.00 C 1092.75 639.79 1098.67 664.78 1117.00 668.00 Z" id="path39"/>
  </g>
  <g fill="None" fill-opacity="0.0" stroke="#72BAB4" stroke-opacity="1.00" stroke-width="0.3" id="g40">
    <path d=" M 753.00 692.00  C 755.33 678.32 753.33 662.50 754.00 648.00 C 754.00 648.00 753.00 647.96 753.00 648.00 C 753.00 662.67 753.00 677.33 753.00 692.00 Z" id="path40"/>
  </g>
  <g fill="None" fill-opacity="0.0" stroke="#A3E6DC" stroke-opacity="1.00" stroke-width="0.3" id="g41">
    <path d=" M 124.00 1379.00  C 122.67 1379.00 121.33 1379.00 120.00 1379.00 C 120.32 1377.54 122.13 1377.95 123.00 1377.00 C 113.02 1377.69 104.20 1370.67 105.01 1359.01 C 109.29 1338.62 112.43 1317.85 119.23 1298.23 C 136.25 1265.86 152.26 1232.46 172.69 1201.69 C 182.61 1180.89 172.74 1154.53 178.75 1132.75 C 196.63 1098.09 212.98 1062.43 220.00 1024.00 C 215.60 991.95 248.91 978.07 268.77 959.77 C 287.28 940.59 322.36 935.80 330.00 908.00 C 328.37 874.85 321.41 842.94 315.08 811.08 C 327.83 786.63 347.08 765.35 356.08 739.08 C 368.24 714.50 366.00 678.99 397.00 668.00 C 395.69 665.31 391.23 668.39 390.00 667.00 C 380.85 673.46 363.57 674.82 365.33 689.33 C 363.51 726.09 346.73 759.31 325.77 788.77 C 322.34 798.38 307.32 806.49 312.08 816.92 C 318.18 828.53 318.01 841.97 320.22 854.78 C 321.28 877.68 339.59 911.16 314.25 926.25 C 295.64 938.64 275.75 948.75 258.70 963.70 C 244.06 979.64 215.21 988.84 217.00 1014.00 C 214.98 1051.61 197.21 1084.88 182.31 1118.30 C 164.28 1140.99 180.90 1171.50 172.30 1197.30 C 154.59 1226.29 136.83 1255.26 121.75 1285.75 C 104.22 1316.56 108.14 1350.91 93.00 1383.00 C 103.25 1381.52 114.07 1380.37 124.00 1379.00 Z" id="path41"/>
  </g>
  <g fill="None" fill-opacity="0.0" stroke="#8AC9C4" stroke-opacity="1.00" stroke-width="0.3" id="g49">
    <path d=" M 1187.00 845.00  C 1185.83 830.30 1203.17 815.20 1189.75 803.25 C 1181.71 792.08 1173.71 780.97 1167.00 769.00 C 1169.64 780.54 1180.95 792.16 1187.70 803.30 C 1201.42 815.59 1182.69 830.92 1187.00 845.00 Z" id="path49"/>
  </g>
  <g fill="None" fill-opacity="0.0" stroke="#72BAB4" stroke-opacity="1.00" stroke-width="0.3" id="g50">
    <path d=" M 753.00 786.00  C 753.00 785.96 754.00 786.00 754.00 786.00 C 753.39 780.83 755.25 774.42 753.00 770.00 C 753.00 775.33 753.00 780.67 753.00 786.00 Z" id="path50"/>
  </g>
  <g fill="None" fill-opacity="0.0" stroke="#8AC9C4" stroke-opacity="1.00" stroke-width="0.3" id="g51">
    <path d=" M 754.00 817.00  C 754.00 806.67 754.00 796.33 754.00 786.00 C 754.00 786.00 753.00 785.96 753.00 786.00 C 753.65 796.18 751.69 807.58 754.00 817.00 Z" id="path51"/>
  </g>
  <g fill="None" fill-opacity="0.0" stroke="#8AC9C4" stroke-opacity="1.00" stroke-width="0.3" id="g52">
    <path d=" M 1178.00 898.00  C 1180.73 880.59 1183.68 863.23 1187.00 846.00 C 1182.17 852.07 1182.67 863.55 1180.98 871.98 C 1180.43 880.55 1175.92 889.95 1178.00 898.00 Z" id="path52"/>
  </g>
  <g fill="None" fill-opacity="0.0" stroke="#8AC9C4" stroke-opacity="1.00" stroke-width="0.3" id="g53">
    <path d=" M 1177.00 912.00  C 1177.00 908.00 1177.00 904.00 1177.00 900.00 C 1175.36 900.14 1175.37 909.56 1177.00 912.00 Z" id="path53"/>
  </g>
  <g fill="None" fill-opacity="0.0" stroke="#8AC9C4" stroke-opacity="1.00" stroke-width="0.3" id="g54">
    <path d=" M 1287.00 1022.00  C 1287.65 1017.17 1285.69 1011.01 1288.00 1007.00 C 1288.20 1005.13 1286.38 1003.94 1287.00 1002.00 C 1284.80 996.62 1279.85 993.24 1276.00 989.00 C 1247.55 958.82 1209.69 942.52 1179.00 916.00 C 1183.49 925.66 1197.84 932.79 1207.30 939.70 C 1229.66 952.24 1249.97 968.20 1269.25 985.75 C 1283.65 992.87 1287.10 1007.62 1287.00 1022.00 Z" id="path54"/>
  </g>
  <g fill="None" fill-opacity="0.0" stroke="#9CD7CD" stroke-opacity="1.00" stroke-width="0.3" id="g55">
    <path d=" M 1287.00 1002.00  C 1286.84 995.88 1280.48 992.14 1276.00 989.00 C 1279.85 993.24 1284.80 996.62 1287.00 1002.00 Z" id="path55"/>
  </g>
  <g fill="None" fill-opacity="0.0" stroke="#9CD7CD" stroke-opacity="1.00" stroke-width="0.3" id="g58">
    <path d=" M 1287.00 1022.00  C 1287.00 1022.00 1287.00 1022.50 1287.00 1023.00 C 1288.39 1022.74 1287.78 1020.95 1288.00 1020.00 C 1288.00 1015.67 1288.00 1011.33 1288.00 1007.00 C 1285.69 1011.01 1287.65 1017.17 1287.00 1022.00 Z" id="path58"/>
  </g>
  <g fill="None" fill-opacity="0.0" stroke="#8AC9C4" stroke-opacity="1.00" stroke-width="0.3" id="g59">
    <path d=" M 1287.00 1023.00  C 1288.03 1044.02 1294.98 1066.16 1305.00 1083.00 C 1304.09 1081.06 1303.39 1079.07 1303.00 1077.00 C 1302.89 1076.74 1302.11 1076.35 1302.00 1076.00 C 1296.10 1057.72 1288.48 1039.44 1288.00 1020.00 C 1287.78 1020.95 1288.39 1022.74 1287.00 1023.00 Z" id="path59"/>
  </g>
  <g fill="None" fill-opacity="0.0" stroke="#8AC9C4" stroke-opacity="1.00" stroke-width="0.3" id="g60">
    <path d=" M 754.00 1080.00  C 754.00 1067.00 754.00 1054.00 754.00 1041.00 C 752.33 1052.86 752.34 1068.07 754.00 1080.00 Z" id="path60"/>
  </g>
  <g fill="None" fill-opacity="0.0" stroke="#60A6A6" stroke-opacity="1.00" stroke-width="0.3" id="g61">
    <path d=" M 1303.00 1077.00  C 1302.89 1076.65 1302.11 1076.26 1302.00 1076.00 C 1302.11 1076.35 1302.89 1076.74 1303.00 1077.00 Z" id="path61"/>
  </g>
  <g fill="None" fill-opacity="0.0" stroke="#8AC9C4" stroke-opacity="1.00" stroke-width="0.3" id="g62">
    <path d=" M 1331.00 1151.00  C 1329.50 1126.50 1311.80 1106.76 1305.00 1084.00 C 1309.29 1106.18 1326.91 1127.81 1331.00 1151.00 Z" id="path62"/>
  </g>
  <g fill="None" fill-opacity="0.0" stroke="#9CD7CD" stroke-opacity="1.00" stroke-width="0.3" id="g63">
    <path d=" M 212.00 1373.00  C 203.92 1377.04 191.49 1372.27 184.00 1377.00 C 271.18 1373.68 358.19 1364.39 445.00 1363.00 C 436.75 1357.75 419.72 1363.52 408.00 1362.00 C 342.45 1364.83 277.74 1371.00 212.00 1373.00 Z" id="path63"/>
  </g>
  <g fill="None" fill-opacity="0.0" stroke="#9CD7CD" stroke-opacity="1.00" stroke-width="0.3" id="g64">
    <path d=" M 1102.00 1365.00  C 1106.00 1365.00 1110.00 1365.00 1114.00 1365.00 C 1117.51 1363.67 1104.02 1363.13 1102.00 1365.00 Z" id="path64"/>
  </g>
  <g fill="None" fill-opacity="0.0" stroke="#9CD7CD" stroke-opacity="1.00" stroke-width="0.3" id="g65">
    <path d=" M 1118.00 1366.00  C 1129.25 1365.68 1139.95 1367.58 1151.00 1368.00 C 1150.76 1366.33 1148.15 1367.83 1148.00 1366.00 C 1138.06 1366.17 1127.71 1363.66 1118.00 1366.00 Z" id="path65"/>
  </g>
  <g fill="None" fill-opacity="0.0" stroke="#8AC9C4" stroke-opacity="1.00" stroke-width="0.3" id="g66">
    <path d=" M 450.00 1367.00  C 451.57 1369.96 453.97 1372.27 456.00 1375.00 C 457.29 1375.17 457.75 1376.70 459.00 1377.00 C 458.07 1372.74 452.50 1367.78 450.00 1367.00 Z" id="path66"/>
  </g>
  <g fill="None" fill-opacity="0.0" stroke="#8AC9C4" stroke-opacity="1.00" stroke-width="0.3" id="g67">
    <path d=" M 1151.00 1368.00  C 1170.56 1368.12 1189.83 1369.36 1209.00 1371.00 C 1213.75 1368.74 1220.49 1370.62 1226.00 1370.00 C 1200.69 1367.84 1173.93 1367.28 1148.00 1366.00 C 1148.15 1367.83 1150.76 1366.33 1151.00 1368.00 Z" id="path67"/>
  </g>
  <g fill="None" fill-opacity="0.0" stroke="#9CD7CD" stroke-opacity="1.00" stroke-width="0.3" id="g68">
    <path d=" M 1209.00 1371.00  C 1251.97 1373.48 1295.06 1375.44 1338.00 1378.00 C 1337.92 1376.74 1335.94 1377.44 1336.00 1376.00 C 1323.54 1375.06 1310.68 1374.19 1299.00 1374.00 C 1286.60 1373.95 1273.62 1373.60 1262.00 1372.00 C 1261.50 1372.00 1260.50 1372.00 1260.00 1372.00 C 1255.50 1371.36 1249.67 1373.30 1246.00 1371.00 C 1239.24 1371.09 1232.42 1371.21 1226.00 1370.00 C 1220.49 1370.62 1213.75 1368.74 1209.00 1371.00 Z" id="path68"/>
  </g>
  <g fill="None" fill-opacity="0.0" stroke="#8AC9C4" stroke-opacity="1.00" stroke-width="0.3" id="g69">
    <path d=" M 1260.00 1372.00  C 1256.33 1369.70 1250.50 1371.64 1246.00 1371.00 C 1249.67 1373.30 1255.50 1371.36 1260.00 1372.00 Z" id="path69"/>
  </g>
  <g fill="None" fill-opacity="0.0" stroke="#8AC9C4" stroke-opacity="1.00" stroke-width="0.3" id="g70">
    <path d=" M 1299.00 1374.00  C 1296.80 1371.59 1286.45 1373.90 1281.22 1372.78 C 1275.29 1370.98 1268.33 1372.51 1262.00 1372.00 C 1273.62 1373.60 1286.60 1373.95 1299.00 1374.00 Z" id="path70"/>
  </g>
  <g fill="None" fill-opacity="0.0" stroke="#8AC9C4" stroke-opacity="1.00" stroke-width="0.3" id="g71">
    <path d=" M 161.00 1377.00  C 166.00 1377.00 171.00 1377.00 176.00 1377.00 C 178.67 1377.00 181.33 1377.00 184.00 1377.00 C 191.49 1372.27 203.92 1377.04 212.00 1373.00 C 199.74 1374.29 186.89 1373.29 175.00 1376.00 C 171.54 1376.38 158.14 1375.07 161.00 1377.00 Z" id="path71"/>
  </g>
  <g fill="None" fill-opacity="0.0" stroke="#8AC9C4" stroke-opacity="1.00" stroke-width="0.3" id="g72">
    <path d=" M 1336.00 1376.00  C 1335.94 1377.44 1337.92 1376.74 1338.00 1378.00 C 1354.19 1378.29 1369.76 1380.96 1386.00 1381.00 C 1390.50 1381.64 1396.33 1379.70 1400.00 1382.00 C 1402.67 1382.00 1405.33 1382.00 1408.00 1382.00 C 1406.64 1379.45 1405.52 1376.80 1405.00 1374.00 C 1402.94 1375.07 1404.47 1378.12 1404.00 1380.00 C 1380.86 1380.53 1358.60 1377.55 1336.00 1376.00 Z" id="path72"/>
  </g>
  <g fill="None" fill-opacity="0.0" stroke="#60A6A6" stroke-opacity="1.00" stroke-width="0.3" id="g73">
    <path d=" M 161.00 1378.00  C 165.84 1377.40 171.91 1379.24 176.00 1377.00 C 171.00 1377.00 166.00 1377.00 161.00 1377.00 C 161.00 1377.00 160.96 1378.00 161.00 1378.00 Z" id="path73"/>
  </g>
  <g fill="None" fill-opacity="0.0" stroke="#A3E6DC" stroke-opacity="1.00" stroke-width="0.3" id="g74">
    <path d=" M 460.00 1381.00  C 448.78 1419.51 431.27 1455.99 417.78 1493.78 C 403.82 1530.74 388.47 1567.30 374.00 1604.00 C 378.60 1604.71 382.56 1602.85 387.00 1603.00 C 391.33 1603.00 395.67 1603.00 400.00 1603.00 C 415.00 1603.00 430.00 1603.00 445.00 1603.00 C 455.00 1603.00 465.00 1603.00 475.00 1603.00 C 483.67 1603.00 492.33 1603.00 501.00 1603.00 C 507.67 1603.00 514.33 1603.00 521.00 1603.00 C 529.33 1603.00 537.67 1603.00 546.00 1603.00 C 563.00 1603.00 580.00 1603.00 597.00 1603.00 C 608.67 1603.00 620.33 1603.00 632.00 1603.00 C 638.33 1603.00 644.67 1603.00 651.00 1603.00 C 658.00 1603.00 665.00 1603.00 672.00 1603.00 C 695.00 1603.00 718.00 1603.00 741.00 1603.00 C 756.33 1603.00 771.67 1603.00 787.00 1603.00 C 796.00 1603.00 805.00 1603.00 814.00 1603.00 C 816.67 1603.00 819.33 1603.00 822.00 1603.00 C 833.67 1603.00 845.33 1603.00 857.00 1603.00 C 941.00 1603.00 1025.00 1603.00 1109.00 1603.00 C 869.83 1597.24 626.20 1601.46 385.00 1601.00 C 385.97 1593.73 395.42 1592.65 400.00 1588.00 C 400.36 1587.78 401.00 1588.00 401.00 1588.00 C 401.30 1586.75 402.83 1586.29 403.00 1585.00 C 387.46 1579.37 402.83 1557.75 405.31 1546.31 C 421.60 1507.21 436.96 1467.61 451.92 1427.92 C 454.88 1414.32 461.52 1401.10 469.00 1390.00 C 470.75 1389.65 476.14 1391.20 474.00 1388.00 C 469.59 1386.49 463.92 1381.36 460.00 1381.00 Z" id="path74"/>
  </g>
  <g fill="None" fill-opacity="0.0" stroke="#5BAAA7" stroke-opacity="1.00" stroke-width="0.3" id="g75">
    <path d=" M 1400.00 1382.00  C 1396.33 1379.70 1390.50 1381.64 1386.00 1381.00 C 1389.67 1383.30 1395.50 1381.36 1400.00 1382.00 Z" id="path75"/>
  </g>
  <g fill="None" fill-opacity="0.0" stroke="#5BAAA7" stroke-opacity="1.00" stroke-width="0.3" id="g76">
    <path d=" M 925.00 1454.00  C 932.00 1457.77 938.14 1463.69 945.00 1468.00 C 965.68 1478.36 985.92 1495.64 1007.00 1509.00 C 1007.98 1506.81 1001.68 1504.23 1006.00 1504.00 C 1010.89 1504.63 1016.69 1501.21 1022.00 1500.00 C 1021.14 1504.59 1022.50 1506.83 1027.00 1505.00 C 1032.50 1511.81 1030.19 1518.76 1032.00 1526.00 C 1043.15 1522.67 1054.34 1532.78 1064.89 1536.11 C 1080.02 1549.75 1111.01 1559.61 1109.00 1584.00 C 1110.90 1586.34 1114.97 1589.36 1114.00 1592.00 C 1117.35 1593.83 1120.31 1595.95 1124.00 1597.00 C 1125.33 1597.00 1126.67 1597.00 1128.00 1597.00 C 1128.94 1591.85 1124.33 1586.17 1126.00 1582.00 C 1113.24 1549.11 1100.88 1515.70 1088.00 1483.00 C 1087.06 1486.54 1082.78 1474.71 1084.00 1473.00 C 1073.66 1446.30 1063.60 1421.39 1052.00 1395.00 C 1049.78 1395.47 1049.07 1388.52 1048.00 1386.00 C 1014.06 1402.36 981.74 1424.03 947.23 1440.23 C 940.89 1445.69 927.86 1447.88 925.00 1454.00 Z" id="path76"/>
  </g>
  <g fill="None" fill-opacity="0.0" stroke="#9CD7CD" stroke-opacity="1.00" stroke-width="0.3" id="g77">
    <path d=" M 401.00 1588.00  C 460.28 1546.10 520.84 1506.77 580.08 1465.08 C 585.35 1460.87 595.93 1458.23 598.00 1454.00 C 557.60 1430.49 515.95 1408.83 474.00 1388.00 C 476.14 1391.20 470.75 1389.65 469.00 1390.00 C 461.52 1401.10 454.88 1414.32 451.92 1427.92 C 436.96 1467.61 421.60 1507.21 405.31 1546.31 C 402.83 1557.75 387.46 1579.37 403.00 1585.00 C 402.83 1586.29 401.30 1586.75 401.00 1588.00 Z" id="path77"/>
  </g>
  <g fill="None" fill-opacity="0.0" stroke="#8AC9C4" stroke-opacity="1.00" stroke-width="0.3" id="g78">
    <path d=" M 598.00 1454.00  C 595.93 1458.23 585.35 1460.87 580.08 1465.08 C 520.84 1506.77 460.28 1546.10 401.00 1588.00 C 401.00 1588.00 400.36 1587.78 400.00 1588.00 C 414.64 1600.74 437.57 1586.61 455.67 1588.67 C 515.74 1580.97 578.10 1584.76 638.00 1582.00 C 697.30 1579.92 751.74 1582.84 813.00 1582.00 C 889.20 1585.05 966.85 1583.03 1043.00 1594.00 C 1062.39 1597.15 1079.57 1597.26 1099.00 1599.00 C 1097.36 1596.41 1092.57 1599.66 1091.00 1597.00 C 1104.38 1595.73 1106.93 1583.49 1094.25 1577.75 C 1087.98 1570.30 1076.01 1566.04 1072.00 1559.00 C 1071.97 1557.90 1070.66 1558.19 1070.00 1558.00 C 1040.74 1541.19 1010.59 1518.55 983.00 1497.00 C 978.28 1492.54 972.62 1488.09 967.00 1485.00 C 952.59 1476.54 934.24 1464.74 922.00 1452.00 C 870.28 1440.26 817.46 1417.97 763.02 1429.02 C 708.04 1437.44 653.74 1448.63 598.00 1454.00 Z" id="path78"/>
  </g>
  <g fill="None" fill-opacity="0.0" stroke="#8AC9C4" stroke-opacity="1.00" stroke-width="0.3" id="g79">
    <path d=" M 967.00 1485.00  C 960.51 1478.50 951.72 1474.61 945.00 1468.00 C 938.14 1463.69 932.00 1457.77 925.00 1454.00 C 923.71 1453.83 923.25 1452.30 922.00 1452.00 C 934.24 1464.74 952.59 1476.54 967.00 1485.00 Z" id="path79"/>
  </g>
  <g fill="None" fill-opacity="0.0" stroke="#60A6A6" stroke-opacity="1.00" stroke-width="0.3" id="g82">
    <path d=" M 945.00 1468.00  C 951.72 1474.61 960.51 1478.50 967.00 1485.00 C 972.62 1488.09 978.28 1492.54 983.00 1497.00 C 1012.02 1516.95 1041.23 1538.07 1070.00 1558.00 C 1070.66 1558.19 1071.97 1557.90 1072.00 1559.00 C 1087.02 1569.06 1100.16 1580.36 1114.00 1592.00 C 1114.97 1589.36 1110.90 1586.34 1109.00 1584.00 C 1111.01 1559.61 1080.02 1549.75 1064.89 1536.11 C 1054.34 1532.78 1043.15 1522.67 1032.00 1526.00 C 1030.19 1518.76 1032.50 1511.81 1027.00 1505.00 C 1022.50 1506.83 1021.14 1504.59 1022.00 1500.00 C 1016.69 1501.21 1010.89 1504.63 1006.00 1504.00 C 1001.68 1504.23 1007.98 1506.81 1007.00 1509.00 C 985.92 1495.64 965.68 1478.36 945.00 1468.00 Z" id="path82"/>
  </g>
  <g fill="None" fill-opacity="0.0" stroke="#72BAB4" stroke-opacity="1.00" stroke-width="0.3" id="g83">
    <path d=" M 1088.00 1483.00  C 1087.21 1479.47 1085.02 1476.47 1084.00 1473.00 C 1082.78 1474.71 1087.06 1486.54 1088.00 1483.00 Z" id="path83"/>
  </g>
  <g fill="None" fill-opacity="0.0" stroke="#9CD7CD" stroke-opacity="1.00" stroke-width="0.3" id="g84">
    <path d=" M 1070.00 1558.00  C 1041.23 1538.07 1012.02 1516.95 983.00 1497.00 C 1010.59 1518.55 1040.74 1541.19 1070.00 1558.00 Z" id="path84"/>
  </g>
  <g fill="None" fill-opacity="0.0" stroke="#9CD7CD" stroke-opacity="1.00" stroke-width="0.3" id="g87">
    <path d=" M 400.00 1588.00  C 395.42 1592.65 385.97 1593.73 385.00 1601.00 C 626.20 1601.46 869.83 1597.24 1109.00 1603.00 C 1117.55 1602.54 1125.39 1604.77 1134.00 1604.00 C 1133.59 1601.90 1132.97 1599.91 1132.00 1598.00 C 1129.48 1597.44 1125.70 1599.19 1124.00 1597.00 C 1120.31 1595.95 1117.35 1593.83 1114.00 1592.00 C 1100.16 1580.36 1087.02 1569.06 1072.00 1559.00 C 1076.01 1566.04 1087.98 1570.30 1094.25 1577.75 C 1106.93 1583.49 1104.38 1595.73 1091.00 1597.00 C 1092.57 1599.66 1097.36 1596.41 1099.00 1599.00 C 1079.57 1597.26 1062.39 1597.15 1043.00 1594.00 C 966.85 1583.03 889.20 1585.05 813.00 1582.00 C 751.74 1582.84 697.30 1579.92 638.00 1582.00 C 578.10 1584.76 515.74 1580.97 455.67 1588.67 C 437.57 1586.61 414.64 1600.74 400.00 1588.00 Z" id="path87"/>
  </g>
  <g fill="None" fill-opacity="0.0" stroke="#72BAB4" stroke-opacity="1.00" stroke-width="0.3" id="g88">
    <path d=" M 1124.00 1597.00  C 1125.70 1599.19 1129.48 1597.44 1132.00 1598.00 C 1129.77 1592.71 1127.59 1587.46 1126.00 1582.00 C 1124.33 1586.17 1128.94 1591.85 1128.00 1597.00 C 1126.67 1597.00 1125.33 1597.00 1124.00 1597.00 Z" id="path88"/>
  </g>
  <g fill="None" fill-opacity="0.0" stroke="#72BAB4" stroke-opacity="1.00" stroke-width="0.3" id="g89">
    <path d=" M 400.00 1604.00  C 399.96 1604.00 400.00 1603.00 400.00 1603.00 C 395.67 1603.00 391.33 1603.00 387.00 1603.00 C 390.34 1605.29 395.83 1603.36 400.00 1604.00 Z" id="path89"/>
  </g>
  <g fill="None" fill-opacity="0.0" stroke="#8AC9C4" stroke-opacity="1.00" stroke-width="0.3" id="g90">
    <path d=" M 400.00 1604.00  C 415.00 1604.00 430.00 1604.00 445.00 1604.00 C 444.96 1604.00 445.00 1603.00 445.00 1603.00 C 430.00 1603.00 415.00 1603.00 400.00 1603.00 C 400.00 1603.00 399.96 1604.00 400.00 1604.00 Z" id="path90"/>
  </g>
  <g fill="None" fill-opacity="0.0" stroke="#72BAB4" stroke-opacity="1.00" stroke-width="0.3" id="g91">
    <path d=" M 445.00 1604.00  C 455.00 1604.00 465.00 1604.00 475.00 1604.00 C 474.96 1604.00 475.00 1603.00 475.00 1603.00 C 465.00 1603.00 455.00 1603.00 445.00 1603.00 C 445.00 1603.00 444.96 1604.00 445.00 1604.00 Z" id="path91"/>
  </g>
  <g fill="None" fill-opacity="0.0" stroke="#5BAAA7" stroke-opacity="1.00" stroke-width="0.3" id="g92">
    <path d=" M 475.00 1604.00  C 483.67 1604.00 492.33 1604.00 501.00 1604.00 C 500.96 1604.00 501.00 1603.00 501.00 1603.00 C 492.33 1603.00 483.67 1603.00 475.00 1603.00 C 475.00 1603.00 474.96 1604.00 475.00 1604.00 Z" id="path92"/>
  </g>
  <g fill="None" fill-opacity="0.0" stroke="#72BAB4" stroke-opacity="1.00" stroke-width="0.3" id="g93">
    <path d=" M 501.00 1604.00  C 507.67 1604.00 514.33 1604.00 521.00 1604.00 C 520.96 1604.00 521.00 1603.00 521.00 1603.00 C 514.33 1603.00 507.67 1603.00 501.00 1603.00 C 501.00 1603.00 500.96 1604.00 501.00 1604.00 Z" id="path93"/>
  </g>
  <g fill="None" fill-opacity="0.0" stroke="#8AC9C4" stroke-opacity="1.00" stroke-width="0.3" id="g94">
    <path d=" M 521.00 1604.00  C 529.33 1604.00 537.67 1604.00 546.00 1604.00 C 545.96 1604.00 546.00 1603.00 546.00 1603.00 C 537.67 1603.00 529.33 1603.00 521.00 1603.00 C 521.00 1603.00 520.96 1604.00 521.00 1604.00 Z" id="path94"/>
  </g>
  <g fill="None" fill-opacity="0.0" stroke="#72BAB4" stroke-opacity="1.00" stroke-width="0.3" id="g95">
    <path d=" M 546.00 1604.00  C 562.85 1603.34 580.91 1605.33 597.00 1603.00 C 580.00 1603.00 563.00 1603.00 546.00 1603.00 C 546.00 1603.00 545.96 1604.00 546.00 1604.00 Z" id="path95"/>
  </g>
  <g fill="None" fill-opacity="0.0" stroke="#72BAB4" stroke-opacity="1.00" stroke-width="0.3" id="g96">
    <path d=" M 651.00 1604.00  C 650.96 1604.00 651.00 1603.00 651.00 1603.00 C 644.67 1603.00 638.33 1603.00 632.00 1603.00 C 637.34 1605.32 644.84 1603.34 651.00 1604.00 Z" id="path96"/>
  </g>
  <g fill="None" fill-opacity="0.0" stroke="#8AC9C4" stroke-opacity="1.00" stroke-width="0.3" id="g97">
    <path d=" M 651.00 1604.00  C 658.00 1604.00 665.00 1604.00 672.00 1604.00 C 671.96 1604.00 672.00 1603.00 672.00 1603.00 C 665.00 1603.00 658.00 1603.00 651.00 1603.00 C 651.00 1603.00 650.96 1604.00 651.00 1604.00 Z" id="path97"/>
  </g>
  <g fill="None" fill-opacity="0.0" stroke="#9CD7CD" stroke-opacity="1.00" stroke-width="0.3" id="g98">
    <path d=" M 672.00 1604.00  C 695.00 1604.00 718.00 1604.00 741.00 1604.00 C 740.96 1604.00 741.00 1603.00 741.00 1603.00 C 718.00 1603.00 695.00 1603.00 672.00 1603.00 C 672.00 1603.00 671.96 1604.00 672.00 1604.00 Z" id="path98"/>
  </g>
  <g fill="None" fill-opacity="0.0" stroke="#8AC9C4" stroke-opacity="1.00" stroke-width="0.3" id="g99">
    <path d=" M 741.00 1604.00  C 756.33 1604.00 771.67 1604.00 787.00 1604.00 C 786.96 1604.00 787.00 1603.00 787.00 1603.00 C 771.67 1603.00 756.33 1603.00 741.00 1603.00 C 741.00 1603.00 740.96 1604.00 741.00 1604.00 Z" id="path99"/>
  </g>
  <g fill="None" fill-opacity="0.0" stroke="#72BAB4" stroke-opacity="1.00" stroke-width="0.3" id="g100">
    <path d=" M 787.00 1604.00  C 795.84 1603.35 805.91 1605.31 814.00 1603.00 C 805.00 1603.00 796.00 1603.00 787.00 1603.00 C 787.00 1603.00 786.96 1604.00 787.00 1604.00 Z" id="path100"/>
  </g>
  <g fill="None" fill-opacity="0.0" stroke="#60A6A6" stroke-opacity="1.00" stroke-width="0.3" id="g101">
    <path d=" M 857.00 1603.00  C 845.33 1603.00 833.67 1603.00 822.00 1603.00 C 832.52 1604.67 846.41 1604.66 857.00 1603.00 Z" id="path101"/>
  </g>
  <g fill="#A3E6DC" fill-opacity="1.00" stroke="None" id="g107">
    <path d=" M 589.00 333.00  C 590.68 334.13 591.78 334.83 595.00 337.00 C 592.63 334.20 595.82 330.63 598.00 329.00 C 610.54 321.05 614.02 304.67 623.70 294.70 C 636.01 286.00 651.42 280.46 658.25 265.25 C 675.47 243.35 661.01 211.96 674.25 189.25 C 692.24 164.06 707.59 137.27 724.30 111.30 C 729.56 105.60 730.89 96.95 738.08 95.08 C 747.51 86.24 754.67 94.88 752.00 106.00 C 753.75 105.17 752.66 102.56 753.00 101.00 C 753.00 95.33 753.00 89.67 753.00 84.00 C 750.73 78.91 752.62 71.84 752.00 66.00 C 751.52 62.41 750.13 55.53 756.00 56.00 C 755.78 54.05 754.92 51.85 753.00 51.00 C 730.74 92.74 708.38 134.40 681.31 173.30 C 673.68 187.66 656.22 198.38 662.07 216.93 C 666.77 234.19 660.75 252.40 652.30 267.30 C 646.59 285.35 625.07 282.34 615.75 295.75 C 606.14 307.81 600.75 322.22 589.00 333.00 Z" id="path107"/>
  </g>
  <g fill="#8AC9C4" fill-opacity="1.00" stroke="None" id="g108">
    <path d=" M 752.00 66.00  C 757.28 61.27 760.46 68.69 765.00 70.00 C 761.63 65.59 759.74 59.90 756.00 56.00 C 750.13 55.53 751.52 62.41 752.00 66.00 Z" id="path108"/>
  </g>
  <g fill="#72BAB4" fill-opacity="1.00" stroke="None" id="g114">
    <path d=" M 752.00 66.00  C 752.62 71.84 750.73 78.91 753.00 84.00 C 753.00 80.33 753.00 76.67 753.00 73.00 C 770.26 72.77 773.16 93.29 781.31 104.70 C 796.36 130.18 810.76 156.08 827.30 180.70 C 837.78 194.04 845.99 204.50 841.00 222.00 C 840.66 239.52 843.81 256.49 852.77 271.23 C 859.25 286.84 879.24 283.68 888.75 296.25 C 894.47 308.99 910.72 321.59 904.00 336.00 C 898.65 334.21 892.92 333.62 887.00 334.00 C 894.20 355.14 903.79 375.42 909.93 397.07 C 914.93 420.40 925.31 445.81 917.03 470.02 C 897.63 506.50 868.24 537.46 847.00 573.00 C 875.94 582.38 905.98 587.98 935.07 596.93 C 964.67 603.08 991.63 620.93 1022.00 621.00 C 1022.63 632.28 1039.61 632.74 1047.25 639.75 C 1075.52 655.29 1110.97 662.96 1132.32 688.68 C 1138.85 700.42 1129.64 713.49 1130.00 726.00 C 1121.51 774.49 1119.29 832.89 1139.31 879.69 C 1155.48 916.12 1128.43 950.21 1122.22 985.22 C 1121.47 996.96 1118.08 1011.84 1128.70 1019.30 C 1180.50 1035.14 1219.10 1078.19 1260.75 1111.25 C 1278.84 1121.73 1304.91 1128.56 1308.00 1153.00 C 1309.05 1164.21 1321.14 1170.73 1324.77 1181.23 C 1332.98 1213.90 1355.77 1240.30 1368.77 1271.23 C 1373.90 1280.92 1378.97 1290.68 1385.25 1299.75 C 1393.98 1309.85 1390.28 1324.15 1393.93 1336.07 C 1393.95 1347.12 1403.41 1364.54 1389.32 1370.32 C 1365.89 1379.28 1344.31 1360.04 1322.92 1353.08 C 1291.19 1339.93 1258.60 1328.47 1226.78 1315.22 C 1182.70 1307.19 1144.91 1277.31 1101.92 1265.08 C 1069.67 1252.38 1037.87 1237.55 1006.00 1226.00 C 921.15 1193.82 838.44 1154.66 754.00 1122.00 C 754.94 1120.71 755.89 1117.84 754.00 1117.00 C 754.00 1118.33 754.00 1119.67 754.00 1121.00 C 611.32 1175.43 472.10 1235.90 330.31 1292.31 C 261.68 1320.20 187.83 1350.90 123.00 1377.00 C 122.13 1377.95 120.32 1377.54 120.00 1379.00 C 121.33 1379.00 122.67 1379.00 124.00 1379.00 C 136.98 1379.59 148.02 1377.57 161.00 1378.00 C 160.96 1378.00 161.00 1377.00 161.00 1377.00 C 158.14 1375.07 171.54 1376.38 175.00 1376.00 C 186.89 1373.29 199.74 1374.29 212.00 1373.00 C 277.74 1371.00 342.45 1364.83 408.00 1362.00 C 419.72 1363.52 436.75 1357.75 445.00 1363.00 C 446.39 1364.38 448.27 1365.69 450.00 1367.00 C 452.50 1367.78 458.07 1372.74 459.00 1377.00 C 457.75 1376.70 457.29 1375.17 456.00 1375.00 C 457.52 1376.86 458.39 1379.39 460.00 1381.00 C 463.92 1381.36 469.59 1386.49 474.00 1388.00 C 515.95 1408.83 557.60 1430.49 598.00 1454.00 C 653.74 1448.63 708.04 1437.44 763.02 1429.02 C 817.46 1417.97 870.28 1440.26 922.00 1452.00 C 923.25 1452.30 923.71 1453.83 925.00 1454.00 C 927.86 1447.88 940.89 1445.69 947.23 1440.23 C 981.74 1424.03 1014.06 1402.36 1048.00 1386.00 C 1049.07 1388.52 1049.78 1395.47 1052.00 1395.00 C 1043.92 1383.92 1056.50 1375.86 1062.25 1367.25 C 1073.37 1360.47 1089.41 1364.96 1102.00 1365.00 C 1104.02 1363.13 1117.51 1363.67 1114.00 1365.00 C 1114.50 1366.76 1116.72 1365.72 1118.00 1366.00 C 1127.71 1363.66 1138.06 1366.17 1148.00 1366.00 C 1173.93 1367.28 1200.69 1367.84 1226.00 1370.00 C 1232.42 1371.21 1239.24 1371.09 1246.00 1371.00 C 1250.50 1371.64 1256.33 1369.70 1260.00 1372.00 C 1260.50 1372.00 1261.50 1372.00 1262.00 1372.00 C 1268.33 1372.51 1275.29 1370.98 1281.22 1372.78 C 1286.45 1373.90 1296.80 1371.59 1299.00 1374.00 C 1310.68 1374.19 1323.54 1375.06 1336.00 1376.00 C 1358.60 1377.55 1380.86 1380.53 1404.00 1380.00 C 1404.47 1378.12 1402.94 1375.07 1405.00 1374.00 C 1399.31 1352.87 1394.62 1331.45 1393.99 1309.01 C 1374.33 1278.49 1358.61 1244.50 1340.31 1212.70 C 1326.62 1195.00 1328.33 1172.35 1331.00 1151.00 C 1326.91 1127.81 1309.29 1106.18 1305.00 1084.00 C 1305.00 1084.00 1305.18 1083.43 1305.00 1083.00 C 1294.98 1066.16 1288.03 1044.02 1287.00 1023.00 C 1287.00 1022.50 1287.00 1022.00 1287.00 1022.00 C 1287.10 1007.62 1283.65 992.87 1269.25 985.75 C 1249.97 968.20 1229.66 952.24 1207.30 939.70 C 1197.84 932.79 1183.49 925.66 1179.00 916.00 C 1178.75 914.47 1176.45 913.82 1177.00 912.00 C 1175.37 909.56 1175.36 900.14 1177.00 900.00 C 1177.95 899.91 1178.18 898.74 1178.00 898.00 C 1175.92 889.95 1180.43 880.55 1180.98 871.98 C 1182.67 863.55 1182.17 852.07 1187.00 846.00 C 1187.00 846.00 1186.92 845.49 1187.00 845.00 C 1182.69 830.92 1201.42 815.59 1187.70 803.30 C 1180.95 792.16 1169.64 780.54 1167.00 769.00 C 1153.32 746.52 1142.91 722.18 1139.00 696.00 C 1142.29 680.55 1127.98 674.05 1117.00 668.00 C 1098.67 664.78 1092.75 639.79 1090.00 625.00 C 1087.05 615.18 1082.69 605.82 1080.00 596.00 C 1077.00 595.53 1074.90 589.19 1077.00 587.00 C 1074.43 582.32 1074.90 576.24 1072.00 572.00 C 1068.94 566.87 1067.41 558.29 1068.00 553.00 C 1067.93 552.65 1067.20 552.27 1067.00 552.00 C 1063.28 542.32 1049.61 541.67 1044.00 535.00 C 1042.82 535.15 1041.94 534.57 1041.00 534.00 C 1023.36 529.41 1015.31 506.27 1000.25 494.75 C 988.11 479.56 974.96 462.17 969.00 445.00 C 968.81 444.34 969.10 443.03 968.00 443.00 C 956.45 425.55 949.52 399.31 949.01 375.99 C 954.60 348.57 922.62 343.84 910.00 326.00 C 901.93 314.25 896.35 300.74 887.03 289.97 C 875.82 283.43 858.89 282.65 853.31 267.69 C 845.54 253.00 842.65 236.48 844.00 219.00 C 850.85 202.05 838.40 191.92 829.75 179.25 C 804.28 144.82 787.10 106.29 765.00 70.00 C 760.46 68.69 757.28 61.27 752.00 66.00 Z" id="path114"/>
  </g>
  <g fill="#5BAAA7" fill-opacity="1.00" stroke="None" id="g115">
    <path d=" M 753.00 84.00  C 753.00 89.67 753.00 95.33 753.00 101.00 C 755.32 111.76 753.34 124.49 754.00 136.00 C 755.67 157.60 755.67 182.47 754.00 204.00 C 754.00 234.67 754.00 265.33 754.00 296.00 C 755.67 324.27 755.67 355.81 754.00 384.00 C 754.00 420.33 754.00 456.67 754.00 493.00 C 755.61 497.26 755.70 504.81 754.00 509.00 C 754.00 533.33 754.00 557.67 754.00 582.00 C 754.00 604.00 754.00 626.00 754.00 648.00 C 753.33 662.50 755.33 678.32 753.00 692.00 C 753.00 718.00 753.00 744.00 753.00 770.00 C 755.25 774.42 753.39 780.83 754.00 786.00 C 754.00 796.33 754.00 806.67 754.00 817.00 C 754.00 891.67 754.00 966.33 754.00 1041.00 C 754.00 1054.00 754.00 1067.00 754.00 1080.00 C 754.00 1092.33 754.00 1104.67 754.00 1117.00 C 755.89 1117.84 754.94 1120.71 754.00 1122.00 C 838.44 1154.66 921.15 1193.82 1006.00 1226.00 C 1037.87 1237.55 1069.67 1252.38 1101.92 1265.08 C 1144.91 1277.31 1182.70 1307.19 1226.78 1315.22 C 1258.60 1328.47 1291.19 1339.93 1322.92 1353.08 C 1344.31 1360.04 1365.89 1379.28 1389.32 1370.32 C 1403.41 1364.54 1393.95 1347.12 1393.93 1336.07 C 1390.28 1324.15 1393.98 1309.85 1385.25 1299.75 C 1378.97 1290.68 1373.90 1280.92 1368.77 1271.23 C 1355.77 1240.30 1332.98 1213.90 1324.77 1181.23 C 1321.14 1170.73 1309.05 1164.21 1308.00 1153.00 C 1304.91 1128.56 1278.84 1121.73 1260.75 1111.25 C 1219.10 1078.19 1180.50 1035.14 1128.70 1019.30 C 1118.08 1011.84 1121.47 996.96 1122.22 985.22 C 1128.43 950.21 1155.48 916.12 1139.31 879.69 C 1119.29 832.89 1121.51 774.49 1130.00 726.00 C 1129.64 713.49 1138.85 700.42 1132.32 688.68 C 1110.97 662.96 1075.52 655.29 1047.25 639.75 C 1039.61 632.74 1022.63 632.28 1022.00 621.00 C 991.63 620.93 964.67 603.08 935.07 596.93 C 905.98 587.98 875.94 582.38 847.00 573.00 C 868.24 537.46 897.63 506.50 917.03 470.02 C 925.31 445.81 914.93 420.40 909.93 397.07 C 903.79 375.42 894.20 355.14 887.00 334.00 C 892.92 333.62 898.65 334.21 904.00 336.00 C 910.72 321.59 894.47 308.99 888.75 296.25 C 879.24 283.68 859.25 286.84 852.77 271.23 C 843.81 256.49 840.66 239.52 841.00 222.00 C 845.99 204.50 837.78 194.04 827.30 180.70 C 810.76 156.08 796.36 130.18 781.31 104.70 C 773.16 93.29 770.26 72.77 753.00 73.00 C 753.00 76.67 753.00 80.33 753.00 84.00 Z" id="path115"/>
  </g>
  <g fill="#9CD7CD" fill-opacity="1.00" stroke="None" id="g116">
    <path d=" M 598.00 329.00  C 593.85 343.75 621.18 336.58 610.02 352.02 C 601.70 387.73 587.40 423.29 589.93 461.07 C 605.99 499.97 636.65 531.97 657.00 569.00 C 612.50 583.93 567.50 597.33 523.92 614.92 C 481.20 631.03 440.35 653.03 397.00 668.00 C 366.00 678.99 368.24 714.50 356.08 739.08 C 347.08 765.35 327.83 786.63 315.08 811.08 C 321.41 842.94 328.37 874.85 330.00 908.00 C 322.36 935.80 287.28 940.59 268.77 959.77 C 248.91 978.07 215.60 991.95 220.00 1024.00 C 212.98 1062.43 196.63 1098.09 178.75 1132.75 C 172.74 1154.53 182.61 1180.89 172.69 1201.69 C 152.26 1232.46 136.25 1265.86 119.23 1298.23 C 112.43 1317.85 109.29 1338.62 105.01 1359.01 C 104.20 1370.67 113.02 1377.69 123.00 1377.00 C 187.83 1350.90 261.68 1320.20 330.31 1292.31 C 472.10 1235.90 611.32 1175.43 754.00 1121.00 C 754.00 1119.67 754.00 1118.33 754.00 1117.00 C 754.00 1104.67 754.00 1092.33 754.00 1080.00 C 752.34 1068.07 752.33 1052.86 754.00 1041.00 C 754.00 966.33 754.00 891.67 754.00 817.00 C 751.69 807.58 753.65 796.18 753.00 786.00 C 753.00 780.67 753.00 775.33 753.00 770.00 C 753.00 744.00 753.00 718.00 753.00 692.00 C 753.00 677.33 753.00 662.67 753.00 648.00 C 753.67 626.16 751.67 603.01 754.00 582.00 C 754.00 557.67 754.00 533.33 754.00 509.00 C 754.00 503.67 754.00 498.33 754.00 493.00 C 754.00 456.67 754.00 420.33 754.00 384.00 C 754.00 354.67 754.00 325.33 754.00 296.00 C 754.00 265.33 754.00 234.67 754.00 204.00 C 754.00 181.33 754.00 158.67 754.00 136.00 C 753.34 124.49 755.32 111.76 753.00 101.00 C 752.66 102.56 753.75 105.17 752.00 106.00 C 754.67 94.88 747.51 86.24 738.08 95.08 C 730.89 96.95 729.56 105.60 724.30 111.30 C 707.59 137.27 692.24 164.06 674.25 189.25 C 661.01 211.96 675.47 243.35 658.25 265.25 C 651.42 280.46 636.01 286.00 623.70 294.70 C 614.02 304.67 610.54 321.05 598.00 329.00 Z" id="path116"/>
  </g>
  <g fill="#72BAB4" fill-opacity="1.00" stroke="None" id="g117">
    <path d=" M 754.00 204.00  C 755.67 182.47 755.67 157.60 754.00 136.00 C 754.00 158.67 754.00 181.33 754.00 204.00 Z" id="path117"/>
  </g>
  <g fill="#60A6A6" fill-opacity="1.00" stroke="None" id="g120">
    <path d=" M 754.00 384.00  C 755.67 355.81 755.67 324.27 754.00 296.00 C 754.00 325.33 754.00 354.67 754.00 384.00 Z" id="path120"/>
  </g>
  <g fill="#8AC9C4" fill-opacity="1.00" stroke="None" id="g122">
    <path d=" M 968.00 443.00  C 958.99 422.51 950.25 401.59 952.00 378.00 C 949.75 373.58 951.61 367.18 951.00 362.00 C 953.03 350.48 939.71 346.76 932.25 341.75 C 924.77 336.54 917.00 332.05 910.00 326.00 C 922.62 343.84 954.60 348.57 949.01 375.99 C 949.52 399.31 956.45 425.55 968.00 443.00 Z" id="path122"/>
  </g>
  <g fill="#B9E5E1" fill-opacity="1.00" stroke="None" id="g123">
    <path d=" M 589.00 333.00  C 577.84 339.55 565.55 345.09 555.33 353.33 C 560.67 411.32 535.40 467.02 492.75 503.75 C 483.55 512.99 482.26 527.72 468.75 532.75 C 458.41 540.63 443.28 542.48 435.98 553.98 C 433.14 568.20 429.72 582.31 424.92 595.92 C 412.65 619.05 411.81 650.15 390.00 667.00 C 391.23 668.39 395.69 665.31 397.00 668.00 C 440.35 653.03 481.20 631.03 523.92 614.92 C 567.50 597.33 612.50 583.93 657.00 569.00 C 636.65 531.97 605.99 499.97 589.93 461.07 C 587.40 423.29 601.70 387.73 610.02 352.02 C 621.18 336.58 593.85 343.75 598.00 329.00 C 595.82 330.63 592.63 334.20 595.00 337.00 C 591.78 334.83 590.68 334.13 589.00 333.00 Z" id="path123"/>
  </g>
  <g fill="#60A6A6" fill-opacity="1.00" stroke="None" id="g124">
    <path d=" M 952.00 378.00  C 951.39 372.82 953.25 366.42 951.00 362.00 C 951.61 367.18 949.75 373.58 952.00 378.00 Z" id="path124"/>
  </g>
  <g fill="#8AC9C4" fill-opacity="1.00" stroke="None" id="g126">
    <path d=" M 1041.00 534.00  C 1022.00 520.83 1009.14 499.13 993.00 482.00 C 992.17 481.48 989.09 479.75 991.00 479.00 C 982.75 468.25 975.92 456.36 969.00 445.00 C 974.96 462.17 988.11 479.56 1000.25 494.75 C 1015.31 506.27 1023.36 529.41 1041.00 534.00 Z" id="path126"/>
  </g>
  <g fill="#60A6A6" fill-opacity="1.00" stroke="None" id="g127">
    <path d=" M 993.00 482.00  C 992.83 480.71 991.30 480.25 991.00 479.00 C 989.09 479.75 992.17 481.48 993.00 482.00 Z" id="path127"/>
  </g>
  <g fill="#60A6A6" fill-opacity="1.00" stroke="None" id="g130">
    <path d=" M 754.00 509.00  C 755.70 504.81 755.61 497.26 754.00 493.00 C 754.00 498.33 754.00 503.67 754.00 509.00 Z" id="path130"/>
  </g>
  <g fill="#8AC9C4" fill-opacity="1.00" stroke="None" id="g135">
    <path d=" M 1072.00 572.00  C 1070.51 565.69 1069.49 559.28 1068.00 553.00 C 1067.41 558.29 1068.94 566.87 1072.00 572.00 Z" id="path135"/>
  </g>
  <g fill="#8AC9C4" fill-opacity="1.00" stroke="None" id="g136">
    <path d=" M 753.00 648.00  C 753.00 647.96 754.00 648.00 754.00 648.00 C 754.00 626.00 754.00 604.00 754.00 582.00 C 751.67 603.01 753.67 626.16 753.00 648.00 Z" id="path136"/>
  </g>
  <g fill="#8AC9C4" fill-opacity="1.00" stroke="None" id="g137">
    <path d=" M 1080.00 596.00  C 1079.45 592.85 1077.31 590.21 1077.00 587.00 C 1074.90 589.19 1077.00 595.53 1080.00 596.00 Z" id="path137"/>
  </g>
  <g fill="#8AC9C4" fill-opacity="1.00" stroke="None" id="g140">
    <path d=" M 1117.00 668.00  C 1099.26 660.90 1095.92 640.79 1090.00 625.00 C 1092.75 639.79 1098.67 664.78 1117.00 668.00 Z" id="path140"/>
  </g>
  <g fill="#72BAB4" fill-opacity="1.00" stroke="None" id="g141">
    <path d=" M 753.00 692.00  C 755.33 678.32 753.33 662.50 754.00 648.00 C 754.00 648.00 753.00 647.96 753.00 648.00 C 753.00 662.67 753.00 677.33 753.00 692.00 Z" id="path141"/>
  </g>
  <g fill="#A3E6DC" fill-opacity="1.00" stroke="None" id="g142">
    <path d=" M 124.00 1379.00  C 122.67 1379.00 121.33 1379.00 120.00 1379.00 C 120.32 1377.54 122.13 1377.95 123.00 1377.00 C 113.02 1377.69 104.20 1370.67 105.01 1359.01 C 109.29 1338.62 112.43 1317.85 119.23 1298.23 C 136.25 1265.86 152.26 1232.46 172.69 1201.69 C 182.61 1180.89 172.74 1154.53 178.75 1132.75 C 196.63 1098.09 212.98 1062.43 220.00 1024.00 C 215.60 991.95 248.91 978.07 268.77 959.77 C 287.28 940.59 322.36 935.80 330.00 908.00 C 328.37 874.85 321.41 842.94 315.08 811.08 C 327.83 786.63 347.08 765.35 356.08 739.08 C 368.24 714.50 366.00 678.99 397.00 668.00 C 395.69 665.31 391.23 668.39 390.00 667.00 C 380.85 673.46 363.57 674.82 365.33 689.33 C 363.51 726.09 346.73 759.31 325.77 788.77 C 322.34 798.38 307.32 806.49 312.08 816.92 C 318.18 828.53 318.01 841.97 320.22 854.78 C 321.28 877.68 339.59 911.16 314.25 926.25 C 295.64 938.64 275.75 948.75 258.70 963.70 C 244.06 979.64 215.21 988.84 217.00 1014.00 C 214.98 1051.61 197.21 1084.88 182.31 1118.30 C 164.28 1140.99 180.90 1171.50 172.30 1197.30 C 154.59 1226.29 136.83 1255.26 121.75 1285.75 C 104.22 1316.56 108.14 1350.91 93.00 1383.00 C 103.25 1381.52 114.07 1380.37 124.00 1379.00 Z" id="path142"/>
  </g>
  <g fill="#8AC9C4" fill-opacity="1.00" stroke="None" id="g150">
    <path d=" M 1187.00 845.00  C 1185.83 830.30 1203.17 815.20 1189.75 803.25 C 1181.71 792.08 1173.71 780.97 1167.00 769.00 C 1169.64 780.54 1180.95 792.16 1187.70 803.30 C 1201.42 815.59 1182.69 830.92 1187.00 845.00 Z" id="path150"/>
  </g>
  <g fill="#72BAB4" fill-opacity="1.00" stroke="None" id="g151">
    <path d=" M 753.00 786.00  C 753.00 785.96 754.00 786.00 754.00 786.00 C 753.39 780.83 755.25 774.42 753.00 770.00 C 753.00 775.33 753.00 780.67 753.00 786.00 Z" id="path151"/>
  </g>
  <g fill="#8AC9C4" fill-opacity="1.00" stroke="None" id="g152">
    <path d=" M 754.00 817.00  C 754.00 806.67 754.00 796.33 754.00 786.00 C 754.00 786.00 753.00 785.96 753.00 786.00 C 753.65 796.18 751.69 807.58 754.00 817.00 Z" id="path152"/>
  </g>
  <g fill="#8AC9C4" fill-opacity="1.00" stroke="None" id="g153">
    <path d=" M 1178.00 898.00  C 1180.73 880.59 1183.68 863.23 1187.00 846.00 C 1182.17 852.07 1182.67 863.55 1180.98 871.98 C 1180.43 880.55 1175.92 889.95 1178.00 898.00 Z" id="path153"/>
  </g>
  <g fill="#8AC9C4" fill-opacity="1.00" stroke="None" id="g154">
    <path d=" M 1177.00 912.00  C 1177.00 908.00 1177.00 904.00 1177.00 900.00 C 1175.36 900.14 1175.37 909.56 1177.00 912.00 Z" id="path154"/>
  </g>
  <g fill="#8AC9C4" fill-opacity="1.00" stroke="None" id="g155">
    <path d=" M 1287.00 1022.00  C 1287.65 1017.17 1285.69 1011.01 1288.00 1007.00 C 1288.20 1005.13 1286.38 1003.94 1287.00 1002.00 C 1284.80 996.62 1279.85 993.24 1276.00 989.00 C 1247.55 958.82 1209.69 942.52 1179.00 916.00 C 1183.49 925.66 1197.84 932.79 1207.30 939.70 C 1229.66 952.24 1249.97 968.20 1269.25 985.75 C 1283.65 992.87 1287.10 1007.62 1287.00 1022.00 Z" id="path155"/>
  </g>
  <g fill="#9CD7CD" fill-opacity="1.00" stroke="None" id="g156">
    <path d=" M 1287.00 1002.00  C 1286.84 995.88 1280.48 992.14 1276.00 989.00 C 1279.85 993.24 1284.80 996.62 1287.00 1002.00 Z" id="path156"/>
  </g>
  <g fill="#9CD7CD" fill-opacity="1.00" stroke="None" id="g159">
    <path d=" M 1287.00 1022.00  C 1287.00 1022.00 1287.00 1022.50 1287.00 1023.00 C 1288.39 1022.74 1287.78 1020.95 1288.00 1020.00 C 1288.00 1015.67 1288.00 1011.33 1288.00 1007.00 C 1285.69 1011.01 1287.65 1017.17 1287.00 1022.00 Z" id="path159"/>
  </g>
  <g fill="#8AC9C4" fill-opacity="1.00" stroke="None" id="g160">
    <path d=" M 1287.00 1023.00  C 1288.03 1044.02 1294.98 1066.16 1305.00 1083.00 C 1304.09 1081.06 1303.39 1079.07 1303.00 1077.00 C 1302.89 1076.74 1302.11 1076.35 1302.00 1076.00 C 1296.10 1057.72 1288.48 1039.44 1288.00 1020.00 C 1287.78 1020.95 1288.39 1022.74 1287.00 1023.00 Z" id="path160"/>
  </g>
  <g fill="#8AC9C4" fill-opacity="1.00" stroke="None" id="g161">
    <path d=" M 754.00 1080.00  C 754.00 1067.00 754.00 1054.00 754.00 1041.00 C 752.33 1052.86 752.34 1068.07 754.00 1080.00 Z" id="path161"/>
  </g>
  <g fill="#60A6A6" fill-opacity="1.00" stroke="None" id="g162">
    <path d=" M 1303.00 1077.00  C 1302.89 1076.65 1302.11 1076.26 1302.00 1076.00 C 1302.11 1076.35 1302.89 1076.74 1303.00 1077.00 Z" id="path162"/>
  </g>
  <g fill="#8AC9C4" fill-opacity="1.00" stroke="None" id="g163">
    <path d=" M 1331.00 1151.00  C 1329.50 1126.50 1311.80 1106.76 1305.00 1084.00 C 1309.29 1106.18 1326.91 1127.81 1331.00 1151.00 Z" id="path163"/>
  </g>
  <g fill="#9CD7CD" fill-opacity="1.00" stroke="None" id="g164">
    <path d=" M 212.00 1373.00  C 203.92 1377.04 191.49 1372.27 184.00 1377.00 C 271.18 1373.68 358.19 1364.39 445.00 1363.00 C 436.75 1357.75 419.72 1363.52 408.00 1362.00 C 342.45 1364.83 277.74 1371.00 212.00 1373.00 Z" id="path164"/>
  </g>
  <g fill="#9CD7CD" fill-opacity="1.00" stroke="None" id="g165">
    <path d=" M 1102.00 1365.00  C 1106.00 1365.00 1110.00 1365.00 1114.00 1365.00 C 1117.51 1363.67 1104.02 1363.13 1102.00 1365.00 Z" id="path165"/>
  </g>
  <g fill="#9CD7CD" fill-opacity="1.00" stroke="None" id="g166">
    <path d=" M 1118.00 1366.00  C 1129.25 1365.68 1139.95 1367.58 1151.00 1368.00 C 1150.76 1366.33 1148.15 1367.83 1148.00 1366.00 C 1138.06 1366.17 1127.71 1363.66 1118.00 1366.00 Z" id="path166"/>
  </g>
  <g fill="#8AC9C4" fill-opacity="1.00" stroke="None" id="g167">
    <path d=" M 450.00 1367.00  C 451.57 1369.96 453.97 1372.27 456.00 1375.00 C 457.29 1375.17 457.75 1376.70 459.00 1377.00 C 458.07 1372.74 452.50 1367.78 450.00 1367.00 Z" id="path167"/>
  </g>
  <g fill="#8AC9C4" fill-opacity="1.00" stroke="None" id="g168">
    <path d=" M 1151.00 1368.00  C 1170.56 1368.12 1189.83 1369.36 1209.00 1371.00 C 1213.75 1368.74 1220.49 1370.62 1226.00 1370.00 C 1200.69 1367.84 1173.93 1367.28 1148.00 1366.00 C 1148.15 1367.83 1150.76 1366.33 1151.00 1368.00 Z" id="path168"/>
  </g>
  <g fill="#9CD7CD" fill-opacity="1.00" stroke="None" id="g169">
    <path d=" M 1209.00 1371.00  C 1251.97 1373.48 1295.06 1375.44 1338.00 1378.00 C 1337.92 1376.74 1335.94 1377.44 1336.00 1376.00 C 1323.54 1375.06 1310.68 1374.19 1299.00 1374.00 C 1286.60 1373.95 1273.62 1373.60 1262.00 1372.00 C 1261.50 1372.00 1260.50 1372.00 1260.00 1372.00 C 1255.50 1371.36 1249.67 1373.30 1246.00 1371.00 C 1239.24 1371.09 1232.42 1371.21 1226.00 1370.00 C 1220.49 1370.62 1213.75 1368.74 1209.00 1371.00 Z" id="path169"/>
  </g>
  <g fill="#8AC9C4" fill-opacity="1.00" stroke="None" id="g170">
    <path d=" M 1260.00 1372.00  C 1256.33 1369.70 1250.50 1371.64 1246.00 1371.00 C 1249.67 1373.30 1255.50 1371.36 1260.00 1372.00 Z" id="path170"/>
  </g>
  <g fill="#8AC9C4" fill-opacity="1.00" stroke="None" id="g171">
    <path d=" M 1299.00 1374.00  C 1296.80 1371.59 1286.45 1373.90 1281.22 1372.78 C 1275.29 1370.98 1268.33 1372.51 1262.00 1372.00 C 1273.62 1373.60 1286.60 1373.95 1299.00 1374.00 Z" id="path171"/>
  </g>
  <g fill="#8AC9C4" fill-opacity="1.00" stroke="None" id="g172">
    <path d=" M 161.00 1377.00  C 166.00 1377.00 171.00 1377.00 176.00 1377.00 C 178.67 1377.00 181.33 1377.00 184.00 1377.00 C 191.49 1372.27 203.92 1377.04 212.00 1373.00 C 199.74 1374.29 186.89 1373.29 175.00 1376.00 C 171.54 1376.38 158.14 1375.07 161.00 1377.00 Z" id="path172"/>
  </g>
  <g fill="#8AC9C4" fill-opacity="1.00" stroke="None" id="g173">
    <path d=" M 1336.00 1376.00  C 1335.94 1377.44 1337.92 1376.74 1338.00 1378.00 C 1354.19 1378.29 1369.76 1380.96 1386.00 1381.00 C 1390.50 1381.64 1396.33 1379.70 1400.00 1382.00 C 1402.67 1382.00 1405.33 1382.00 1408.00 1382.00 C 1406.64 1379.45 1405.52 1376.80 1405.00 1374.00 C 1402.94 1375.07 1404.47 1378.12 1404.00 1380.00 C 1380.86 1380.53 1358.60 1377.55 1336.00 1376.00 Z" id="path173"/>
  </g>
  <g fill="#60A6A6" fill-opacity="1.00" stroke="None" id="g174">
    <path d=" M 161.00 1378.00  C 165.84 1377.40 171.91 1379.24 176.00 1377.00 C 171.00 1377.00 166.00 1377.00 161.00 1377.00 C 161.00 1377.00 160.96 1378.00 161.00 1378.00 Z" id="path174"/>
  </g>
  <g fill="#A3E6DC" fill-opacity="1.00" stroke="None" id="g175">
    <path d=" M 460.00 1381.00  C 448.78 1419.51 431.27 1455.99 417.78 1493.78 C 403.82 1530.74 388.47 1567.30 374.00 1604.00 C 378.60 1604.71 382.56 1602.85 387.00 1603.00 C 391.33 1603.00 395.67 1603.00 400.00 1603.00 C 415.00 1603.00 430.00 1603.00 445.00 1603.00 C 455.00 1603.00 465.00 1603.00 475.00 1603.00 C 483.67 1603.00 492.33 1603.00 501.00 1603.00 C 507.67 1603.00 514.33 1603.00 521.00 1603.00 C 529.33 1603.00 537.67 1603.00 546.00 1603.00 C 563.00 1603.00 580.00 1603.00 597.00 1603.00 C 608.67 1603.00 620.33 1603.00 632.00 1603.00 C 638.33 1603.00 644.67 1603.00 651.00 1603.00 C 658.00 1603.00 665.00 1603.00 672.00 1603.00 C 695.00 1603.00 718.00 1603.00 741.00 1603.00 C 756.33 1603.00 771.67 1603.00 787.00 1603.00 C 796.00 1603.00 805.00 1603.00 814.00 1603.00 C 816.67 1603.00 819.33 1603.00 822.00 1603.00 C 833.67 1603.00 845.33 1603.00 857.00 1603.00 C 941.00 1603.00 1025.00 1603.00 1109.00 1603.00 C 869.83 1597.24 626.20 1601.46 385.00 1601.00 C 385.97 1593.73 395.42 1592.65 400.00 1588.00 C 400.36 1587.78 401.00 1588.00 401.00 1588.00 C 401.30 1586.75 402.83 1586.29 403.00 1585.00 C 387.46 1579.37 402.83 1557.75 405.31 1546.31 C 421.60 1507.21 436.96 1467.61 451.92 1427.92 C 454.88 1414.32 461.52 1401.10 469.00 1390.00 C 470.75 1389.65 476.14 1391.20 474.00 1388.00 C 469.59 1386.49 463.92 1381.36 460.00 1381.00 Z" id="path175"/>
  </g>
  <g fill="#5BAAA7" fill-opacity="1.00" stroke="None" id="g176">
    <path d=" M 1400.00 1382.00  C 1396.33 1379.70 1390.50 1381.64 1386.00 1381.00 C 1389.67 1383.30 1395.50 1381.36 1400.00 1382.00 Z" id="path176"/>
  </g>
  <g fill="#5BAAA7" fill-opacity="1.00" stroke="None" id="g177">
    <path d=" M 925.00 1454.00  C 932.00 1457.77 938.14 1463.69 945.00 1468.00 C 965.68 1478.36 985.92 1495.64 1007.00 1509.00 C 1007.98 1506.81 1001.68 1504.23 1006.00 1504.00 C 1010.89 1504.63 1016.69 1501.21 1022.00 1500.00 C 1021.14 1504.59 1022.50 1506.83 1027.00 1505.00 C 1032.50 1511.81 1030.19 1518.76 1032.00 1526.00 C 1043.15 1522.67 1054.34 1532.78 1064.89 1536.11 C 1080.02 1549.75 1111.01 1559.61 1109.00 1584.00 C 1110.90 1586.34 1114.97 1589.36 1114.00 1592.00 C 1117.35 1593.83 1120.31 1595.95 1124.00 1597.00 C 1125.33 1597.00 1126.67 1597.00 1128.00 1597.00 C 1128.94 1591.85 1124.33 1586.17 1126.00 1582.00 C 1113.24 1549.11 1100.88 1515.70 1088.00 1483.00 C 1087.06 1486.54 1082.78 1474.71 1084.00 1473.00 C 1073.66 1446.30 1063.60 1421.39 1052.00 1395.00 C 1049.78 1395.47 1049.07 1388.52 1048.00 1386.00 C 1014.06 1402.36 981.74 1424.03 947.23 1440.23 C 940.89 1445.69 927.86 1447.88 925.00 1454.00 Z" id="path177"/>
  </g>
  <g fill="#9CD7CD" fill-opacity="1.00" stroke="None" id="g178">
    <path d=" M 401.00 1588.00  C 460.28 1546.10 520.84 1506.77 580.08 1465.08 C 585.35 1460.87 595.93 1458.23 598.00 1454.00 C 557.60 1430.49 515.95 1408.83 474.00 1388.00 C 476.14 1391.20 470.75 1389.65 469.00 1390.00 C 461.52 1401.10 454.88 1414.32 451.92 1427.92 C 436.96 1467.61 421.60 1507.21 405.31 1546.31 C 402.83 1557.75 387.46 1579.37 403.00 1585.00 C 402.83 1586.29 401.30 1586.75 401.00 1588.00 Z" id="path178"/>
  </g>
  <g fill="#8AC9C4" fill-opacity="1.00" stroke="None" id="g179">
    <path d=" M 598.00 1454.00  C 595.93 1458.23 585.35 1460.87 580.08 1465.08 C 520.84 1506.77 460.28 1546.10 401.00 1588.00 C 401.00 1588.00 400.36 1587.78 400.00 1588.00 C 414.64 1600.74 437.57 1586.61 455.67 1588.67 C 515.74 1580.97 578.10 1584.76 638.00 1582.00 C 697.30 1579.92 751.74 1582.84 813.00 1582.00 C 889.20 1585.05 966.85 1583.03 1043.00 1594.00 C 1062.39 1597.15 1079.57 1597.26 1099.00 1599.00 C 1097.36 1596.41 1092.57 1599.66 1091.00 1597.00 C 1104.38 1595.73 1106.93 1583.49 1094.25 1577.75 C 1087.98 1570.30 1076.01 1566.04 1072.00 1559.00 C 1071.97 1557.90 1070.66 1558.19 1070.00 1558.00 C 1040.74 1541.19 1010.59 1518.55 983.00 1497.00 C 978.28 1492.54 972.62 1488.09 967.00 1485.00 C 952.59 1476.54 934.24 1464.74 922.00 1452.00 C 870.28 1440.26 817.46 1417.97 763.02 1429.02 C 708.04 1437.44 653.74 1448.63 598.00 1454.00 Z" id="path179"/>
  </g>
  <g fill="#8AC9C4" fill-opacity="1.00" stroke="None" id="g180">
    <path d=" M 967.00 1485.00  C 960.51 1478.50 951.72 1474.61 945.00 1468.00 C 938.14 1463.69 932.00 1457.77 925.00 1454.00 C 923.71 1453.83 923.25 1452.30 922.00 1452.00 C 934.24 1464.74 952.59 1476.54 967.00 1485.00 Z" id="path180"/>
  </g>
  <g fill="#60A6A6" fill-opacity="1.00" stroke="None" id="g183">
    <path d=" M 945.00 1468.00  C 951.72 1474.61 960.51 1478.50 967.00 1485.00 C 972.62 1488.09 978.28 1492.54 983.00 1497.00 C 1012.02 1516.95 1041.23 1538.07 1070.00 1558.00 C 1070.66 1558.19 1071.97 1557.90 1072.00 1559.00 C 1087.02 1569.06 1100.16 1580.36 1114.00 1592.00 C 1114.97 1589.36 1110.90 1586.34 1109.00 1584.00 C 1111.01 1559.61 1080.02 1549.75 1064.89 1536.11 C 1054.34 1532.78 1043.15 1522.67 1032.00 1526.00 C 1030.19 1518.76 1032.50 1511.81 1027.00 1505.00 C 1022.50 1506.83 1021.14 1504.59 1022.00 1500.00 C 1016.69 1501.21 1010.89 1504.63 1006.00 1504.00 C 1001.68 1504.23 1007.98 1506.81 1007.00 1509.00 C 985.92 1495.64 965.68 1478.36 945.00 1468.00 Z" id="path183"/>
  </g>
  <g fill="#72BAB4" fill-opacity="1.00" stroke="None" id="g184">
    <path d=" M 1088.00 1483.00  C 1087.21 1479.47 1085.02 1476.47 1084.00 1473.00 C 1082.78 1474.71 1087.06 1486.54 1088.00 1483.00 Z" id="path184"/>
  </g>
  <g fill="#9CD7CD" fill-opacity="1.00" stroke="None" id="g185">
    <path d=" M 1070.00 1558.00  C 1041.23 1538.07 1012.02 1516.95 983.00 1497.00 C 1010.59 1518.55 1040.74 1541.19 1070.00 1558.00 Z" id="path185"/>
  </g>
  <g fill="#9CD7CD" fill-opacity="1.00" stroke="None" id="g188">
    <path d=" M 400.00 1588.00  C 395.42 1592.65 385.97 1593.73 385.00 1601.00 C 626.20 1601.46 869.83 1597.24 1109.00 1603.00 C 1117.55 1602.54 1125.39 1604.77 1134.00 1604.00 C 1133.59 1601.90 1132.97 1599.91 1132.00 1598.00 C 1129.48 1597.44 1125.70 1599.19 1124.00 1597.00 C 1120.31 1595.95 1117.35 1593.83 1114.00 1592.00 C 1100.16 1580.36 1087.02 1569.06 1072.00 1559.00 C 1076.01 1566.04 1087.98 1570.30 1094.25 1577.75 C 1106.93 1583.49 1104.38 1595.73 1091.00 1597.00 C 1092.57 1599.66 1097.36 1596.41 1099.00 1599.00 C 1079.57 1597.26 1062.39 1597.15 1043.00 1594.00 C 966.85 1583.03 889.20 1585.05 813.00 1582.00 C 751.74 1582.84 697.30 1579.92 638.00 1582.00 C 578.10 1584.76 515.74 1580.97 455.67 1588.67 C 437.57 1586.61 414.64 1600.74 400.00 1588.00 Z" id="path188"/>
  </g>
  <g fill="#72BAB4" fill-opacity="1.00" stroke="None" id="g189">
    <path d=" M 1124.00 1597.00  C 1125.70 1599.19 1129.48 1597.44 1132.00 1598.00 C 1129.77 1592.71 1127.59 1587.46 1126.00 1582.00 C 1124.33 1586.17 1128.94 1591.85 1128.00 1597.00 C 1126.67 1597.00 1125.33 1597.00 1124.00 1597.00 Z" id="path189"/>
  </g>
  <g fill="#72BAB4" fill-opacity="1.00" stroke="None" id="g190">
    <path d=" M 400.00 1604.00  C 399.96 1604.00 400.00 1603.00 400.00 1603.00 C 395.67 1603.00 391.33 1603.00 387.00 1603.00 C 390.34 1605.29 395.83 1603.36 400.00 1604.00 Z" id="path190"/>
  </g>
  <g fill="#8AC9C4" fill-opacity="1.00" stroke="None" id="g191">
    <path d=" M 400.00 1604.00  C 415.00 1604.00 430.00 1604.00 445.00 1604.00 C 444.96 1604.00 445.00 1603.00 445.00 1603.00 C 430.00 1603.00 415.00 1603.00 400.00 1603.00 C 400.00 1603.00 399.96 1604.00 400.00 1604.00 Z" id="path191"/>
  </g>
  <g fill="#72BAB4" fill-opacity="1.00" stroke="None" id="g192">
    <path d=" M 445.00 1604.00  C 455.00 1604.00 465.00 1604.00 475.00 1604.00 C 474.96 1604.00 475.00 1603.00 475.00 1603.00 C 465.00 1603.00 455.00 1603.00 445.00 1603.00 C 445.00 1603.00 444.96 1604.00 445.00 1604.00 Z" id="path192"/>
  </g>
  <g fill="#5BAAA7" fill-opacity="1.00" stroke="None" id="g193">
    <path d=" M 475.00 1604.00  C 483.67 1604.00 492.33 1604.00 501.00 1604.00 C 500.96 1604.00 501.00 1603.00 501.00 1603.00 C 492.33 1603.00 483.67 1603.00 475.00 1603.00 C 475.00 1603.00 474.96 1604.00 475.00 1604.00 Z" id="path193"/>
  </g>
  <g fill="#72BAB4" fill-opacity="1.00" stroke="None" id="g194">
    <path d=" M 501.00 1604.00  C 507.67 1604.00 514.33 1604.00 521.00 1604.00 C 520.96 1604.00 521.00 1603.00 521.00 1603.00 C 514.33 1603.00 507.67 1603.00 501.00 1603.00 C 501.00 1603.00 500.96 1604.00 501.00 1604.00 Z" id="path194"/>
  </g>
  <g fill="#8AC9C4" fill-opacity="1.00" stroke="None" id="g195">
    <path d=" M 521.00 1604.00  C 529.33 1604.00 537.67 1604.00 546.00 1604.00 C 545.96 1604.00 546.00 1603.00 546.00 1603.00 C 537.67 1603.00 529.33 1603.00 521.00 1603.00 C 521.00 1603.00 520.96 1604.00 521.00 1604.00 Z" id="path195"/>
  </g>
  <g fill="#72BAB4" fill-opacity="1.00" stroke="None" id="g196">
    <path d=" M 546.00 1604.00  C 562.85 1603.34 580.91 1605.33 597.00 1603.00 C 580.00 1603.00 563.00 1603.00 546.00 1603.00 C 546.00 1603.00 545.96 1604.00 546.00 1604.00 Z" id="path196"/>
  </g>
  <g fill="#72BAB4" fill-opacity="1.00" stroke="None" id="g197">
    <path d=" M 651.00 1604.00  C 650.96 1604.00 651.00 1603.00 651.00 1603.00 C 644.67 1603.00 638.33 1603.00 632.00 1603.00 C 637.34 1605.32 644.84 1603.34 651.00 1604.00 Z" id="path197"/>
  </g>
  <g fill="#8AC9C4" fill-opacity="1.00" stroke="None" id="g198">
    <path d=" M 651.00 1604.00  C 658.00 1604.00 665.00 1604.00 672.00 1604.00 C 671.96 1604.00 672.00 1603.00 672.00 1603.00 C 665.00 1603.00 658.00 1603.00 651.00 1603.00 C 651.00 1603.00 650.96 1604.00 651.00 1604.00 Z" id="path198"/>
  </g>
  <g fill="#9CD7CD" fill-opacity="1.00" stroke="None" id="g199">
    <path d=" M 672.00 1604.00  C 695.00 1604.00 718.00 1604.00 741.00 1604.00 C 740.96 1604.00 741.00 1603.00 741.00 1603.00 C 718.00 1603.00 695.00 1603.00 672.00 1603.00 C 672.00 1603.00 671.96 1604.00 672.00 1604.00 Z" id="path199"/>
  </g>
  <g fill="#8AC9C4" fill-opacity="1.00" stroke="None" id="g200">
    <path d=" M 741.00 1604.00  C 756.33 1604.00 771.67 1604.00 787.00 1604.00 C 786.96 1604.00 787.00 1603.00 787.00 1603.00 C 771.67 1603.00 756.33 1603.00 741.00 1603.00 C 741.00 1603.00 740.96 1604.00 741.00 1604.00 Z" id="path200"/>
  </g>
  <g fill="#72BAB4" fill-opacity="1.00" stroke="None" id="g201">
    <path d=" M 787.00 1604.00  C 795.84 1603.35 805.91 1605.31 814.00 1603.00 C 805.00 1603.00 796.00 1603.00 787.00 1603.00 C 787.00 1603.00 786.96 1604.00 787.00 1604.00 Z" id="path201"/>
  </g>
  <g fill="#60A6A6" fill-opacity="1.00" stroke="None" id="g202">
    <path d=" M 857.00 1603.00  C 845.33 1603.00 833.67 1603.00 822.00 1603.00 C 832.52 1604.67 846.41 1604.66 857.00 1603.00 Z" id="path202"/>
  </g>
</svg>